<svg xmlns="http://www.w3.org/2000/svg" xmlns:xlink="http://www.w3.org/1999/xlink">
  <defs/>
  <g>
    <path stroke="none" fill="#FFFFFF" d="M-37.55 -19.25 Q-36.5 -20.25 -36.45 -21.7 -36.4 -23.15 -37.3 -24.2 -39.15 -26.35 -40.15 -28.95 -41.15 -31.65 -41.15 -34.55 -41.15 -41.15 -36.5 -45.85 -31.8 -50.5 -25.2 -50.5 -21.7 -50.5 -18.55 -49.05 -15.5 -47.65 -13.3 -45.1 -12.45 -44.1 -11.15 -43.9 -9.85 -43.7 -8.7 -44.4 -5.15 -46.55 -1 -46.55 5.2 -46.55 9.6 -42.15 13.95 -37.75 13.95 -31.55 L13.9 -30.15 Q13.8 -29.1 14.25 -28.15 14.75 -27.2 15.65 -26.65 16.55 -26.1 17.55 -26.15 18.6 -26.15 19.5 -26.75 23.2 -29.15 27.6 -29.15 33.8 -29.15 38.2 -24.75 42.6 -20.35 42.6 -14.15 42.6 -10 40.5 -6.5 40 -5.65 40 -4.65 40 -3.7 40.5 -2.85 41 -1.95 41.85 -1.5 42.7 -1 43.7 -1.05 L44.3 -1.05 Q48.7 -1 51.8 2.1 54.9 5.2 54.9 9.55 54.9 13.95 51.8 17.05 48.65 20.2 44.25 20.2 41.95 20.2 39.85 19.25 37.85 18.35 36.35 16.7 35.55 15.75 34.35 15.55 33.1 15.3 32.05 15.9 L31.5 16.1 Q30.7 16.5 30.1 17.25 29.55 18 29.45 18.95 29.3 19.9 29.7 20.75 30 21.65 30.75 22.25 33.5 24.45 35.1 27.65 36.7 30.95 36.7 34.65 36.7 41.2 32.05 45.9 27.35 50.55 20.8 50.55 14.9 50.55 10.45 46.75 6 42.95 5.1 37.25 4.9 36.15 4.1 35.3 3.3 34.5 2.2 34.3 L0.05 34.5 Q-1 35 -1.55 35.95 -3 38.3 -5.35 39.6 -7.8 41 -10.65 41 -14 41 -16.8 39.05 -19.5 37.1 -20.65 34 -20.95 33.1 -21.7 32.45 -22.45 31.8 -23.4 31.65 L-25.25 31.8 Q-26.2 32.15 -26.8 32.9 -29.05 35.55 -32.15 37.05 -35.4 38.6 -39 38.6 -45.6 38.6 -50.25 33.95 -54.9 29.25 -54.9 22.65 -54.9 16.5 -50.75 11.95 -46.6 7.4 -40.55 6.8 -39.5 6.75 -38.65 6.1 -37.85 5.5 -37.5 4.55 -37.1 3.55 -37.3 2.55 -37.5 1.55 -38.2 0.8 -39.95 -1.15 -40.95 -3.6 -41.9 -6.15 -41.9 -8.9 -41.9 -11.9 -40.75 -14.6 -39.6 -17.25 -37.55 -19.25"/>
  </g>
</svg>