<svg xmlns="http://www.w3.org/2000/svg" xmlns:xlink="http://www.w3.org/1999/xlink">
  <defs/>
  <g>
    <path stroke="none" fill="#FFFFFF" d="M-42.9 -18.15 Q-41 -18.15 -39.3 -19.1 -37.65 -20.1 -36.7 -21.8 -36.15 -22.75 -35.25 -23.3 -34.3 -23.85 -33.2 -23.85 -31.85 -23.85 -30.8 -23.05 -29.2 -21.85 -27.2 -21.65 -25.2 -21.5 -23.35 -22.35 -21.55 -23.25 -20.45 -24.95 -19.4 -26.7 -19.35 -28.7 L-19.3 -29.6 Q-19.05 -31.05 -19.4 -32.5 -19.8 -33.9 -20.65 -35.05 -21.55 -36.25 -22.85 -36.95 -24.1 -37.65 -25.6 -37.85 -28.4 -38.15 -30.35 -40.3 -32.25 -42.4 -32.25 -45.3 -32.25 -48.4 -30.1 -50.6 -27.9 -52.8 -24.8 -52.8 -21.7 -52.8 -19.45 -50.6 -17.3 -48.4 -17.3 -45.3 L-17.55 -43.3 Q-17.95 -41.85 -17.75 -40.4 -17.6 -38.95 -16.8 -37.65 -16.05 -36.4 -14.85 -35.55 -13.7 -34.65 -12.25 -34.35 -10.7 -34 -9.55 -32.95 -8.05 -31.55 -6.05 -31.15 L-2.1 -31.5 Q-0.2 -32.25 1.05 -33.9 2.25 -35.5 2.45 -37.55 2.7 -40.45 4.8 -42.4 6.95 -44.4 9.9 -44.4 13 -44.4 15.2 -42.2 17.4 -40 17.4 -36.9 17.4 -35.25 16.75 -33.85 16 -32.15 16.15 -30.35 16.3 -28.5 17.3 -26.95 18.3 -25.45 19.95 -24.6 21.6 -23.75 23.45 -23.75 L23.9 -23.75 25.6 -23.55 28.6 -23.25 Q30.15 -23.45 31.5 -24.25 32.8 -25.1 33.65 -26.4 34.55 -27.7 34.8 -29.25 35.25 -32.25 37.6 -34.3 39.95 -36.35 43.1 -36.35 46.55 -36.35 49.05 -33.85 51.5 -31.4 51.5 -27.9 51.5 -24.45 49.05 -21.95 46.55 -19.5 43.1 -19.5 41.1 -19.5 39.35 -20.4 37.95 -21.05 36.4 -21.15 34.85 -21.15 33.4 -20.55 31.95 -19.95 30.9 -18.8 29.85 -17.65 29.4 -16.15 28.85 -14.55 27.65 -13.55 26.55 -12.6 25.95 -11.3 25.3 -10.05 25.2 -8.6 25.1 -7.2 25.55 -5.8 26 -4.5 26.95 -3.4 29.1 -0.95 29.1 2.3 L29.05 3 Q28.9 4.85 29.65 6.55 30.4 8.25 31.85 9.35 33.35 10.5 35.15 10.75 L38.75 10.35 40.8 10 Q43.2 10 44.95 11.7 46.65 13.4 46.65 15.85 46.65 18.25 44.95 19.95 43.2 21.65 40.8 21.65 39.3 21.65 38 20.95 36.75 20.3 35.95 19.1 34.85 17.45 33.05 16.6 31.3 15.8 29.3 16 27.35 16.2 25.8 17.35 24.2 18.5 23.45 20.3 23.05 21.25 22.3 21.85 21.55 22.5 20.55 22.7 17.85 23.3 16.25 25.55 14.65 27.8 14.95 30.55 L15 30.7 Q15.05 32.35 15.85 33.85 16.65 35.3 18 36.25 19.35 37.2 21 37.45 L24.25 37.25 25.45 37.05 Q27.1 37.05 28.3 38.25 29.45 39.45 29.45 41.1 29.45 42.8 28.3 43.95 27.1 45.15 25.45 45.15 24.3 45.15 23.3 44.55 21.8 43.55 20 43.4 18.2 43.3 16.55 44.05 14.9 44.8 13.8 46.2 12.7 47.65 12.4 49.45 12.2 50.9 11.1 51.85 9.95 52.8 8.45 52.8 6.8 52.8 5.6 51.65 4.4 50.45 4.4 48.8 4.4 47.65 5 46.7 5.6 45.75 6.55 45.2 8.05 44.4 9.05 43 10 41.6 10.25 39.9 10.5 38.2 9.9 36.6 9.35 35 8.15 33.8 6.95 32.65 6.9 30.95 6.9 29.45 6.3 28.05 5.7 26.65 4.55 25.65 3.4 24.65 2 24.2 L-1 23.9 -2.55 23.8 -7.1 24.05 Q-9.3 24.95 -10.55 27 -11.75 29.05 -11.55 31.45 -11.3 33.8 -9.65 35.55 -8.6 36.65 -8.6 38.25 -8.6 39.9 -9.75 41.1 -10.95 42.3 -12.6 42.3 -14.5 42.3 -15.7 40.85 -16.85 39.5 -18.5 38.85 -20.15 38.15 -21.9 38.35 -23.65 38.55 -25.15 39.55 -26.6 40.55 -27.45 42.1 -27.95 43.05 -28.9 43.65 -29.9 44.25 -31.05 44.25 -32.7 44.25 -33.9 43.05 -35.05 41.85 -35.05 40.2 -35.05 38.6 -33.95 37.45 -32.35 35.8 -32 33.55 -31.65 31.3 -32.7 29.25 -33.1 28.45 -33.1 27.5 -33.1 25.85 -31.9 24.65 -30.75 23.5 -29.05 23.5 L-28.3 23.55 Q-25.5 24.15 -23.05 22.6 -20.65 21.1 -19.95 18.3 L-19.9 18.15 Q-18.9 15.75 -19.7 13.25 -20.5 10.8 -22.7 9.4 L-23.65 8.5 Q-24.95 6.65 -27 5.8 L-31.3 5.55 -32.1 5.65 -34.05 5.15 Q-35.3 4.45 -36.75 4.3 L-39.6 4.55 Q-41 4.95 -42.1 5.9 -43.25 6.8 -43.9 8.1 -44.4 9.1 -45.35 9.7 -46.3 10.3 -47.45 10.3 -49.15 10.3 -50.35 9.1 -51.5 7.95 -51.5 6.25 -51.5 4.45 -50.15 3.3 -48.1 1.45 -47.8 -1.3 -47.45 -4.05 -49.1 -6.3 -50.5 -8.2 -50.5 -10.65 -50.5 -13.7 -48.3 -15.9 -46.15 -18.1 -43.05 -18.15 L-42.9 -18.15"/>
  </g>
</svg>