<svg xmlns="http://www.w3.org/2000/svg" xmlns:xlink="http://www.w3.org/1999/xlink">
  <defs/>
  <g>
    <path stroke="none" fill="#FFFFFF" d="M-11.85 -44.2 Q-10.55 -42 -8.3 -40.8 -6 -39.65 -3.4 -39.9 -0.85 -40.15 1.15 -41.8 3.1 -43.4 3.9 -45.9 5.05 -49.45 8.05 -51.65 11.1 -53.9 14.9 -53.9 19.65 -53.9 23.05 -50.5 26.45 -47.15 26.45 -42.35 26.45 -40 25.5 -37.8 24.55 -35.65 24.85 -33.2 25.2 -30.85 26.7 -28.95 28.2 -27.1 30.45 -26.25 L35.1 -25.9 37.4 -26.1 Q43.15 -26.1 47.2 -22.05 51.25 -18 51.25 -12.25 51.25 -6.8 47.6 -2.85 43.9 1.15 38.55 1.55 36.1 1.8 34.15 3.2 32.2 4.65 31.25 6.9 30.35 9.2 30.75 11.6 31.15 14 32.75 15.85 36.15 19.75 36.15 24.9 36.15 30.65 32.1 34.7 28.05 38.8 22.3 38.8 16.75 38.8 12.7 34.9 10.9 33.15 8.4 32.65 5.9 32.15 3.55 33.1 1.2 34.05 -0.3 36.1 -1.8 38.2 -1.9 40.75 -2.15 46.25 -6.15 50.05 -10.2 53.9 -15.75 53.9 -21.5 53.9 -25.55 49.85 -29.6 45.75 -29.6 40 -29.6 35.8 -27.2 32.2 -25.7 30.05 -25.65 27.5 -25.6 24.9 -27 22.7 -28.4 20.5 -30.75 19.45 -33.1 18.4 -35.65 18.8 L-37.3 18.9 Q-43.05 18.9 -47.15 14.85 -51.2 10.8 -51.2 5.05 -51.2 1.4 -49.4 -1.75 -47.65 -4.8 -44.7 -6.65 -42.55 -8 -41.5 -10.3 -40.4 -12.6 -40.75 -15.1 L-40.85 -16.55 Q-40.85 -19.65 -39.5 -22.5 -38.2 -25.2 -35.9 -27.15 -34 -28.75 -33.2 -31.15 -32.45 -33.5 -33.05 -35.9 L-33.35 -38.45 Q-33.35 -43.25 -29.95 -46.6 -26.6 -50 -21.8 -50 -18.65 -50 -15.95 -48.4 -13.35 -46.85 -11.85 -44.2"/>
  </g>
</svg>