<svg xmlns="http://www.w3.org/2000/svg" xmlns:xlink="http://www.w3.org/1999/xlink">
  <defs/>
  <g>
    <path stroke="none" fill="#FFFFFF" d="M23.6 19.85 Q21.05 19.15 18.85 20.65 16.65 22.2 16.25 24.8 15.9 27.6 14.35 29.95 12.9 32.3 10.6 33.8 8.8 35 8.15 37.05 7.55 39.05 8.35 41.05 9.25 43.25 9.25 45.75 9.25 51.1 5.45 54.9 1.7 58.65 -3.65 58.65 -9 58.65 -12.8 54.9 -16.6 51.1 -16.6 45.75 -16.6 43.85 -16.05 42.1 -15.25 39.35 -16.85 37.05 -18.4 34.65 -21.3 34.45 L-23 34.25 Q-24.95 33.9 -26.7 34.9 -28.5 35.8 -29.3 37.65 -30.9 41.05 -34 43.1 -37.2 45.2 -41.05 45.2 -46.4 45.2 -50.2 41.45 -53.95 37.65 -53.95 32.3 -53.95 27.2 -50.45 23.45 -46.95 19.75 -41.9 19.4 -39.9 19.25 -38.3 17.9 -36.8 16.55 -36.4 14.55 -36.05 12.55 -36.95 10.75 -37.9 8.9 -39.75 8.05 -43.05 6.45 -45.05 3.4 -47.1 0.25 -47.1 -3.55 -47.1 -6.65 -45.7 -9.4 -44.4 -12 -42 -13.8 -40.8 -14.75 -40.15 -16.15 -39.55 -17.65 -39.7 -19.2 -39.85 -20.75 -40.75 -22 -41.65 -23.25 -43.05 -23.95 -46.35 -25.55 -48.3 -28.65 -50.35 -31.8 -50.35 -35.6 -50.35 -40.9 -46.6 -44.75 -42.8 -48.5 -37.45 -48.5 -33.9 -48.5 -30.9 -46.65 -27.95 -44.95 -26.25 -41.95 -25.55 -40.7 -24.35 -39.9 -23.15 -39.1 -21.75 -38.95 -18.75 -38.65 -16.65 -40.8 -14.9 -42.7 -12.5 -43.8 -10.05 -44.85 -7.35 -44.9 L-6.75 -44.9 Q-4.7 -44.85 -3.05 -46.1 -1.4 -47.3 -0.85 -49.25 0.3 -53.4 3.75 -56 7.2 -58.65 11.55 -58.65 16.95 -58.65 20.7 -54.85 24.45 -51.05 24.45 -45.75 24.45 -42.25 22.75 -39.3 21.1 -36.4 18.2 -34.7 16.95 -33.95 16.15 -32.65 15.35 -31.35 15.3 -29.9 15.2 -28.4 15.8 -27 16.5 -25.65 17.7 -24.75 L18.3 -24.3 Q20.2 -22.9 22.55 -23.15 24.95 -23.45 26.45 -25.3 28.3 -27.45 30.8 -28.7 33.45 -29.95 36.4 -29.95 41.75 -29.95 45.5 -26.2 49.3 -22.35 49.3 -17.05 49.3 -13.1 47.1 -9.85 44.95 -6.65 41.45 -5.15 39.25 -4.25 38.3 -2.05 37.4 0.15 38.2 2.4 L38.45 3.1 Q39 4.65 40.3 5.65 41.55 6.7 43.15 6.95 47.8 7.7 50.9 11.3 54 14.9 54 19.7 54 25 50.25 28.8 46.4 32.6 41.1 32.6 36.9 32.6 33.55 30.15 30.2 27.7 28.9 23.9 28.35 22.3 27.05 21.2 25.8 20.15 24.15 19.9 L23.6 19.85"/>
  </g>
</svg>