<svg xmlns="http://www.w3.org/2000/svg" xmlns:xlink="http://www.w3.org/1999/xlink">
  <defs/>
  <g>
    <path stroke="none" fill="#FFFFFF" d="M16.2 -23.4 L17.7 -23.65 17.75 -23.65 Q19 -24.15 19.7 -25.3 21.25 -27.7 23.15 -29.8 24.3 -31.1 26.1 -31.2 27.9 -31.3 29.2 -30.1 30.5 -28.95 30.55 -27.2 30.65 -25.45 29.5 -24.1 L28.05 -22.55 Q27.1 -21.45 27 -20.05 26.9 -18.65 27.7 -17.45 28.55 -16.3 29.9 -15.85 L32.55 -15.95 34.7 -16.25 36.75 -15.6 Q37.9 -14.95 39.3 -15.1 40.65 -15.35 41.65 -16.25 47.25 -21.85 55.45 -25.75 L57.25 -25.8 Q58.25 -25.45 58.65 -24.6 59.1 -23.7 58.75 -22.75 58.45 -21.8 57.5 -21.4 L41.55 -13.85 Q40.65 -13.4 40 -12.55 39.4 -11.7 39.25 -10.65 39.15 -9.4 38.35 -8.4 37.65 -7.3 36.45 -6.75 L31.1 -4.2 Q30.15 -3.75 29.55 -2.9 28.95 -2.05 28.8 -1 28.55 0.7 27.35 1.9 26.45 2.75 26.15 3.9 25.9 5.15 26.35 6.3 26.8 7.45 27.8 8.15 28.8 8.9 30 8.9 39 9.2 48.4 13 49.5 13.5 49.95 14.6 50.4 15.7 50 16.8 49.55 17.9 48.4 18.4 L46.25 18.35 36.25 14.35 33.7 14.15 Q32.45 14.45 31.6 15.45 30.75 16.45 30.6 17.75 30.5 19.05 31.15 20.15 31.9 21.5 31.85 22.95 31.7 24.5 30.8 25.7 29.55 27.35 27.5 27.65 25.5 27.9 23.8 26.65 L19.65 23.55 Q18.45 22.6 16.95 22.7 15.4 22.8 14.3 23.9 13.2 24.95 13.1 26.5 13 28 13.9 29.25 16.1 32.2 17.3 35.85 18 37.75 17.1 39.65 16.15 41.5 14.2 42.15 L10.35 41.9 Q8.55 41 7.85 39.05 L5.35 31.45 Q4.95 30.25 3.85 29.5 2.8 28.7 1.5 28.65 0.25 28.6 -0.85 29.35 -1.9 30.1 -2.35 31.3 -3.55 34.3 -5.65 37.05 -6.65 38.4 -8.25 38.85 L-11.35 38.75 -14.5 38.9 Q-16.05 39.6 -16.65 41.2 -18.4 46.1 -21.75 50.45 -22.85 51.8 -24.6 52.05 -26.4 52.25 -27.75 51.15 -29.15 50.1 -29.4 48.35 -29.55 46.6 -28.5 45.2 L-18.3 32.25 Q-17.55 31.2 -17.5 29.95 -17.4 28.75 -18 27.65 -18.6 26.6 -19.7 26.05 -20.85 25.5 -22.1 25.6 L-25.25 25.4 Q-26.85 25.1 -28.15 24.15 -28.9 23.7 -29.8 23.55 L-31.55 23.65 Q-32.45 23.95 -33.15 24.55 L-34.2 26 Q-38.1 35.2 -47 40.8 -48.5 41.7 -50.2 41.3 -51.9 40.95 -52.85 39.45 -53.75 38 -53.35 36.25 -53 34.5 -51.5 33.55 L-33.85 22.6 Q-32.75 21.9 -32.25 20.75 -31.75 19.6 -31.95 18.35 L-32.1 16.6 Q-32.1 15.45 -32.7 14.4 -33.35 13.45 -34.35 12.85 L-36.6 12.45 Q-37.75 12.6 -38.7 13.3 -44.2 17.55 -51.45 19.75 -53.75 20.4 -55.8 19.3 -57.9 18.2 -58.6 15.9 -59.25 13.65 -58.1 11.6 -57 9.5 -54.75 8.8 L-44.25 5.65 Q-42.85 5.2 -42 4 -41.2 2.75 -41.35 1.3 -41.55 -0.2 -42.6 -1.25 -43.7 -2.3 -45.15 -2.35 L-48.5 -2.75 Q-50.2 -3.05 -51.2 -4.45 -52.25 -5.85 -51.95 -7.65 -51.7 -9.4 -50.25 -10.4 -48.8 -11.4 -47.1 -11.15 L-38.55 -9.75 Q-37.05 -9.5 -35.7 -10.25 -34.4 -11.1 -33.95 -12.55 -33.5 -14.05 -34.15 -15.4 -34.7 -16.85 -36.15 -17.5 L-37.35 -18.1 Q-38.9 -18.9 -39.45 -20.6 -40 -22.3 -39.2 -23.85 -38.35 -25.4 -36.7 -25.9 L-33.45 -25.65 -21.55 -19.45 Q-20.7 -19.05 -19.75 -19 L-17.9 -19.4 -16.45 -20.6 Q-15.85 -21.35 -15.65 -22.3 -15.4 -23.7 -14.4 -24.7 -13.4 -25.8 -12 -26.15 L-11 -26.3 Q-9.9 -26.35 -8.95 -26.95 -8 -27.6 -7.55 -28.55 -7.05 -29.55 -7.15 -30.65 -7.2 -31.8 -7.85 -32.75 -12.25 -39.1 -13.3 -47.25 -13.55 -49 -12.5 -50.4 -11.4 -51.8 -9.65 -52.05 -7.9 -52.25 -6.5 -51.15 -5.1 -50.1 -4.9 -48.35 L-3 -33.45 Q-2.8 -32.15 -1.9 -31.25 -1.05 -30.25 0.2 -29.95 L2.7 -30.2 Q3.9 -30.7 4.6 -31.75 5.3 -33.05 6.75 -33.55 8.1 -34.05 9.5 -33.55 11.1 -33 11.9 -31.55 12.7 -30.05 12.3 -28.5 12 -27.35 12.35 -26.3 12.7 -25.15 13.55 -24.45 14.65 -23.4 16.2 -23.4"/>
  </g>
</svg>