<svg xmlns="http://www.w3.org/2000/svg" xmlns:xlink="http://www.w3.org/1999/xlink">
  <defs/>
  <g>
    <path stroke="none" fill="#FFFFFF" d="M-43.35 49.5 Q-41.65 49.6 -40.3 48.45 -38.95 47.3 -38.75 45.55 -38.6 44.2 -37.85 43 -37.15 41.85 -36.05 41.05 -35.05 40.3 -34.55 39.15 -34.05 38 -34.2 36.75 -34.4 35.5 -35.2 34.55 -36 33.6 -37.2 33.2 -38.65 32.7 -39.7 31.6 -40.75 30.55 -41.25 29.1 -41.65 28 -42.45 27.25 -43.35 26.45 -44.45 26.2 L-46.7 26.25 Q-47.8 26.55 -48.6 27.35 -49.65 28.35 -51.05 28.35 -52.5 28.35 -53.5 27.35 -54.55 26.3 -54.55 24.9 -54.55 23.45 -53.5 22.4 -52.5 21.4 -51.05 21.4 -49.4 21.4 -48.4 22.65 -47.35 23.95 -45.7 24.2 -44.1 24.5 -42.65 23.65 -41.25 22.8 -40.7 21.25 -40.2 19.7 -40.8 18.15 -41.25 17.05 -41.25 15.8 -41.25 13.6 -39.9 11.8 -39.1 10.8 -38.95 9.5 -38.85 8.2 -39.45 7.05 L-39.85 6.1 Q-40.25 5.1 -41.05 4.35 -41.85 3.65 -42.85 3.4 -45 2.8 -46.3 1.1 -47.7 -0.65 -47.7 -2.9 -47.7 -5.6 -45.8 -7.5 -43.85 -9.4 -41.15 -9.4 -39.5 -9.4 -38.05 -8.6 L-37.3 -8.25 -36.75 -7.7 Q-35.6 -6.6 -35.05 -5.2 -34.7 -4.15 -33.9 -3.4 -33.1 -2.7 -32.05 -2.4 -30.65 -2.05 -29.55 -1.1 -28.05 0.15 -26.15 -0.05 -24.25 -0.3 -23.1 -1.85 L-22.25 -2.75 Q-21.2 -3.7 -20.9 -5.15 -20.6 -6.55 -21.2 -7.85 -21.65 -8.9 -21.75 -10.1 -21.8 -11.05 -22.25 -11.95 -22.7 -12.8 -23.45 -13.4 -24.25 -14 -25.2 -14.2 -26.15 -14.4 -27.1 -14.2 L-28.45 -14.05 Q-30.15 -14.05 -31.6 -14.9 L-32.3 -15.2 -32.85 -15.8 Q-34.35 -17.15 -34.8 -19.15 -35.2 -21 -36.85 -22 -38.4 -23 -40.25 -22.55 L-41.85 -22.35 Q-44.55 -22.35 -46.45 -24.25 -48.35 -26.15 -48.35 -28.85 -48.35 -31.55 -46.45 -33.45 -44.55 -35.35 -41.85 -35.35 -39.55 -35.35 -37.75 -33.9 -35.95 -32.5 -35.5 -30.25 -35.05 -28.45 -33.5 -27.45 -31.95 -26.45 -30.1 -26.85 L-29.85 -26.95 Q-28.3 -27.3 -27.3 -28.55 -26.35 -29.8 -26.4 -31.4 L-26.4 -31.6 Q-26.35 -34.3 -24.45 -36.15 -22.55 -38.05 -19.9 -38.05 -18 -38.05 -16.45 -37.1 -14.9 -36.15 -14.1 -34.55 -13.25 -32.95 -11.6 -32.35 -9.45 -31.6 -8.3 -29.75 -7.7 -28.85 -6.75 -28.3 -5.8 -27.75 -4.75 -27.7 L-2.65 -28.1 Q-1.7 -28.6 -1.05 -29.4 -0.35 -30.3 0.6 -30.9 2.3 -31.95 2.65 -33.9 3 -35.85 1.75 -37.4 0.4 -39.15 0.4 -41.4 0.4 -44.1 2.3 -46.05 4.2 -47.95 6.9 -47.95 9.6 -47.95 11.5 -46.05 13.4 -44.1 13.4 -41.4 13.4 -39.75 12.6 -38.3 12.1 -37.3 12.1 -36.15 12.1 -35 12.6 -34.05 13.15 -33.05 14.1 -32.4 15.05 -31.8 16.15 -31.7 L18.1 -31.25 21.05 -31.1 Q22.5 -31.55 23.4 -32.8 24.5 -34.3 26.15 -35 27.05 -35.4 27.75 -36.15 28.4 -36.85 28.65 -37.8 28.95 -38.75 28.85 -39.75 28.7 -40.7 28.15 -41.55 27.6 -42.35 27.6 -43.4 L27.8 -44.55 Q28.5 -46.3 27.65 -48 26.85 -49.75 25.05 -50.35 24 -50.7 23.35 -51.55 22.65 -52.5 22.65 -53.65 22.65 -55.1 23.65 -56.1 24.7 -57.1 26.15 -57.1 27.6 -57.1 28.65 -56.05 29.6 -55.05 30.95 -54.75 32.3 -54.5 33.6 -55.05 L34.9 -55.3 Q36.35 -55.3 37.35 -54.25 38.4 -53.25 38.4 -51.8 38.4 -50.9 37.9 -50.05 L36.65 -48.8 Q35.4 -48.1 34.85 -46.8 34.25 -45.45 34.5 -44.05 L34.6 -43.4 Q34.6 -42.6 34.2 -41.85 L33.3 -40.65 Q32.5 -40.05 32.05 -39.2 31.65 -38.3 31.6 -37.3 31.6 -36.3 31.95 -35.45 32.35 -34.5 33.05 -33.85 34.1 -32.95 34.65 -31.7 35.25 -30.45 35.25 -29 35.25 -26.9 34 -25.2 32.8 -23.5 30.85 -22.85 29.25 -22.3 28.4 -20.9 27.6 -19.5 27.85 -17.85 L27.95 -16.8 Q27.95 -15.05 27.1 -13.5 26.2 -12.05 24.75 -11.2 23.05 -10.15 22.7 -8.2 22.5 -7.3 22.7 -6.35 22.95 -5.4 23.5 -4.7 L24.05 -3.8 Q24.5 -2.9 25.3 -2.3 26.1 -1.7 27.05 -1.5 28 -1.3 29 -1.5 29.95 -1.7 30.75 -2.3 32.45 -3.65 34.65 -3.65 37.35 -3.65 39.25 -1.7 41.2 0.2 41.2 2.9 41.2 5.6 39.25 7.5 37.35 9.4 34.65 9.4 32.8 9.4 31.25 8.45 29.75 7.5 28.9 5.9 28.45 5 27.65 4.45 26.85 3.85 25.9 3.65 24.95 3.4 24 3.65 23 3.85 22.25 4.45 L20.9 5.25 Q19.1 6 18.45 7.8 17.8 9.65 18.65 11.35 L19.25 13.05 19.35 13.4 19.55 15.15 19.25 17.15 Q18.75 18.65 19.25 20.1 19.8 21.55 21.1 22.35 22.45 23.2 24 23 25.5 22.8 26.6 21.75 28.55 19.85 31.2 19.85 33.9 19.85 35.8 21.75 37.7 23.65 37.7 26.35 37.7 29.05 35.8 30.95 33.9 32.85 31.2 32.85 29.45 32.85 27.95 32 26.55 31.2 24.95 31.5 23.35 31.75 22.3 33 L21.15 34.1 Q19.75 35.15 19.4 36.85 19.1 38.6 20 40.1 21 41.7 21 43.55 21 46.25 19.1 48.15 17.2 50.05 14.5 50.05 11.85 50.05 9.95 48.2 8.85 47.1 7.25 46.95 5.65 46.85 4.3 47.75 2.65 48.9 0.6 48.9 -2.1 48.9 -4 47 -5.9 45.1 -5.9 42.4 -5.9 41.15 -5.45 39.95 -5.05 39 -5.1 38.05 -5.15 37.05 -5.6 36.15 -6.1 35.3 -6.9 34.7 -7.65 34.1 -8.65 33.9 L-9.7 33.55 -11.8 33.25 Q-12.9 33.35 -13.8 33.95 -14.75 34.55 -15.25 35.5 -15.8 36.45 -15.85 37.55 -15.95 40 -17.65 41.8 -19.4 43.55 -21.85 43.75 -23.35 43.9 -24.45 44.9 -25.6 45.95 -25.85 47.4 L-25.95 47.85 Q-26.15 48.8 -25.95 49.8 L-25.1 51.55 Q-24.45 52.45 -24.45 53.65 -24.45 55.1 -25.45 56.1 -26.45 57.1 -27.9 57.1 -28.95 57.1 -29.8 56.55 -30.65 56 -31.05 55.1 -31.45 54.2 -32.2 53.55 -32.95 52.95 -33.9 52.65 L-34.55 52.45 Q-36.2 51.8 -37.8 52.4 -39.4 53.05 -40.2 54.55 -40.65 55.4 -41.45 55.95 -42.3 56.45 -43.3 56.45 -44.75 56.45 -45.75 55.45 -46.75 54.45 -46.75 52.95 -46.75 51.55 -45.75 50.55 -44.8 49.55 -43.35 49.5 M48.2 -9.4 Q47.4 -10.6 46.05 -11.15 L43.3 -11.25 42.5 -11.15 Q41.05 -11.15 40.05 -12.15 39 -13.15 39 -14.65 39 -16.05 40.05 -17.1 41.05 -18.1 42.5 -18.1 L44.15 -17.65 45.4 -16.55 Q46.2 -15.35 47.55 -14.8 L50.3 -14.7 51.1 -14.8 Q52.55 -14.8 53.55 -13.75 54.55 -12.75 54.55 -11.3 54.55 -9.9 53.55 -8.85 52.55 -7.85 51.1 -7.85 50.2 -7.85 49.45 -8.25 48.7 -8.7 48.2 -9.4"/>
  </g>
</svg>