<svg xmlns="http://www.w3.org/2000/svg" xmlns:xlink="http://www.w3.org/1999/xlink">
  <defs/>
  <g>
    <path stroke="none" fill="#FFFFFF" d="M-23.25 -46.3 Q-21.4 -44.9 -19.15 -44.4 -16.9 -43.9 -14.6 -44.35 -12.4 -44.75 -10.45 -46.05 -8.55 -47.4 -7.35 -49.35 -6.7 -50.4 -5.6 -51.05 -4.45 -51.7 -3.2 -51.7 -1.2 -51.7 0.3 -50.25 1.75 -48.85 1.75 -46.85 L1.75 -46.75 Q1.65 -43.05 3.85 -40 6.05 -37 9.65 -35.95 13.25 -34.9 16.75 -36.3 20.2 -37.65 22.1 -40.85 22.8 -41.95 23.9 -42.6 25.05 -43.25 26.35 -43.25 28.35 -43.25 29.8 -41.85 31.25 -40.45 31.25 -38.45 31.3 -35.6 32.75 -33.15 34.2 -30.7 36.65 -29.3 39.1 -27.85 41.95 -27.75 44.75 -27.7 47.3 -29 48.35 -29.55 49.55 -29.55 51.6 -29.55 53 -28.1 54.45 -26.65 54.45 -24.6 54.45 -23.05 53.55 -21.75 52.7 -20.5 51.25 -20 47.6 -18.65 45.6 -15.3 43.6 -11.95 44.2 -8.05 44.75 -4.2 47.65 -1.6 50.55 1.05 54.45 1.25 56.4 1.35 57.75 2.75 59.1 4.2 59.1 6.15 59.1 8.2 57.65 9.65 56.2 11.1 54.15 11.1 52.9 11.1 51.7 10.4 49.6 9.15 47.05 8.95 44.55 8.8 42.2 9.7 L40.9 10 Q37.85 10.25 35.4 11.95 32.9 13.7 31.65 16.45 30.45 19.2 30.8 22.25 31.15 25.25 33 27.65 33.85 28.75 34 30.1 34.4 34.25 37.4 37.1 40.45 39.95 44.6 40 46.6 40.05 48 41.5 49.4 42.95 49.4 44.95 49.4 47 47.95 48.4 46.5 49.85 44.5 49.85 42.55 49.85 41.15 48.6 39.75 47.3 39.55 45.45 39.2 41.3 36.15 38.45 33.1 35.65 28.95 35.55 27.3 35.45 26.15 34.55 23.8 32.8 20.9 32.4 18 32.05 15.3 33.15 12.6 34.3 10.85 36.65 9.05 38.9 8.65 41.85 8.4 43.65 7 44.85 5.65 46.05 3.8 46.05 2.4 46.05 1.25 45.35 0.1 44.65 -0.55 43.5 -2.25 40.35 -5.5 38.85 -8.7 37.3 -12.25 37.95 -15.75 38.65 -18.2 41.25 -20.65 43.9 -21.05 47.45 -21.25 49.25 -22.65 50.5 -24.05 51.75 -25.95 51.75 -27.95 51.75 -29.4 50.3 -30.85 48.9 -30.85 46.85 -30.85 45.25 -29.95 44.05 -28.3 41.7 -28 38.8 -27.75 35.9 -28.95 33.25 -30.15 30.6 -32.5 28.9 -34.85 27.2 -37.7 26.85 -39.55 26.65 -40.8 25.25 -42.05 23.85 -42.05 21.95 -42.05 19.75 -40.35 18.25 -38.55 16.7 -37.55 14.55 -36.55 12.45 -36.55 10.05 -36.5 7.7 -37.45 5.55 -38.4 3.4 -40.15 1.8 -41.85 0.35 -41.85 -1.85 -41.85 -3 -41.25 -4.15 -39.75 -6.95 -40 -10.15 -40.25 -13.3 -42.15 -15.85 -44.1 -18.4 -47.1 -19.55 -50.05 -20.65 -53.2 -20 L-54.2 -19.9 Q-56.25 -19.9 -57.65 -21.35 -59.1 -22.8 -59.1 -24.85 -59.1 -26.85 -57.65 -28.3 -56.25 -29.75 -54.2 -29.75 -52.55 -29.75 -51.2 -28.75 -48.45 -26.65 -45.05 -26.45 -41.55 -26.3 -38.65 -28.2 L-37.8 -28.6 Q-33.95 -30.05 -32 -33.65 -30.05 -37.3 -30.95 -41.3 L-31.05 -42.35 Q-31.05 -44.35 -29.65 -45.8 -28.2 -47.25 -26.15 -47.25 -24.55 -47.25 -23.25 -46.3"/>
  </g>
</svg>