<svg xmlns="http://www.w3.org/2000/svg" xmlns:xlink="http://www.w3.org/1999/xlink">
  <defs/>
  <g>
    <path stroke="none" fill="#FFFFFF" d="M-7.55 -29.2 Q-6.6 -29.2 -5.7 -29.6 -4.8 -30.05 -4.25 -30.85 -3.65 -31.65 -3.5 -32.6 -3.4 -33.6 -3.7 -34.5 -8.3 -47.45 -8.85 -51 -9.15 -53.15 -7.85 -54.9 -6.55 -56.65 -4.4 -56.95 -2.25 -57.25 -0.5 -56 1.25 -54.7 1.6 -52.55 2.05 -49.25 1.55 -36.8 1.55 -35.7 2.05 -34.75 2.5 -33.8 3.45 -33.25 4.5 -32.6 5 -31.55 5.5 -30.35 6.65 -29.7 7.75 -29.05 9.05 -29.2 L11.4 -28.7 Q12.55 -28 13.2 -26.85 L13.5 -26.3 Q14 -25 15.25 -24.3 16.45 -23.6 17.9 -23.85 L18.8 -23.9 Q19.95 -23.85 20.95 -24.4 21.95 -25 22.5 -26 28.9 -38 31.4 -41.15 33.6 -43.85 37 -44.2 40.45 -44.6 43.15 -42.45 45.85 -40.3 46.25 -36.85 46.65 -33.4 44.45 -30.7 42.4 -28.1 35.1 -21.7 34.4 -21.05 34.05 -20.15 33.7 -19.3 33.8 -18.35 33.9 -17.4 34.4 -16.55 34.9 -15.75 35.7 -15.25 36.65 -14.75 37.25 -13.7 37.8 -12.7 37.85 -11.45 37.85 -10.1 37.25 -8.95 36.6 -7.8 35.5 -7.3 34.35 -6.75 33.75 -5.6 33.1 -4.45 33.3 -3.15 33.45 -2.2 33 -1.2 32.6 -0.25 31.8 0.5 30.5 1.7 30.5 3.45 30.5 5.15 31.8 6.4 39.3 13.4 40.9 15.55 41.95 16.95 41.65 18.7 41.4 20.45 39.95 21.55 38.55 22.6 36.8 22.3 35.05 22.1 34 20.65 L33.7 20.25 32.35 19 Q31.5 18.55 30.55 18.5 L28.8 18.85 Q27.9 19.25 27.3 20 L26.9 20.4 Q25.7 21.45 25.5 23 25.35 24.6 26.3 25.85 L27.65 27.85 Q28.8 29.7 28.25 31.8 27.7 33.95 25.85 35.05 24.15 36.05 22.2 35.7 L20 35.9 Q18.9 36.35 18.25 37.3 17.55 38.25 17.5 39.45 17.45 40.6 18 41.6 21.6 47.85 22.35 49.95 23.1 52 22.15 54 21.25 55.95 19.2 56.7 L15.15 56.5 Q13.2 55.6 12.45 53.55 11.1 49.9 8.8 34.65 8.6 33.3 7.65 32.4 6.7 31.45 5.35 31.25 4.05 31.1 2.9 31.75 1.75 32.4 1.2 33.6 0.35 35.6 -1.7 36.4 -3.7 37.2 -5.7 36.35 -7.7 35.5 -8.5 33.45 -8.95 32.25 -10.05 31.55 -11.15 30.85 -12.4 30.9 -13.7 31 -14.7 31.8 -15.7 32.6 -16.05 33.85 -17.7 39.75 -18.55 41.55 -19.3 43.15 -20.95 43.75 L-24.25 43.6 Q-25.85 42.85 -26.45 41.15 -27.05 39.5 -26.3 37.9 L-23.15 32.8 Q-22.45 31.75 -22.5 30.45 -22.5 29.15 -23.3 28.15 -24.1 27.1 -25.35 26.75 L-27.8 26.8 -29.45 26.9 Q-30.25 26.7 -30.85 26.05 -31.6 25.2 -31.55 24.05 -31.5 22.85 -30.65 22.1 -29.35 20.95 -25.05 18.3 -24.3 17.8 -23.85 17.05 -23.35 16.3 -23.25 15.4 -23.1 14.55 -23.4 13.7 -23.65 12.8 -24.3 12.2 -25.35 11.05 -26 9.55 -26.65 8 -26.7 6.3 L-26.6 4.55 Q-26.4 3.4 -26.8 2.4 -27.2 1.35 -28.1 0.65 -29 0 -30.1 -0.15 L-32.25 0.25 Q-36.95 2.55 -38.65 3.05 -39.85 3.4 -40.95 2.8 -42.1 2.2 -42.45 0.95 -42.8 -0.25 -42.2 -1.35 -41.6 -2.5 -40.35 -2.85 L-32.1 -4.05 Q-30.65 -4.2 -29.65 -5.25 -28.65 -6.3 -28.55 -7.8 -28.45 -9.25 -29.35 -10.4 -30.25 -11.55 -31.65 -11.9 -40.95 -14 -43.4 -15.05 -45.2 -15.8 -45.95 -17.6 -46.7 -19.4 -45.9 -21.2 -45.15 -23 -43.3 -23.75 -41.5 -24.45 -39.75 -23.7 -36.15 -22.15 -22.15 -12.55 -21 -11.7 -19.6 -11.85 -18.2 -11.95 -17.15 -12.9 L-15.75 -14 -14 -14.85 Q-12.4 -15.4 -11.7 -16.9 L-11.4 -17.4 Q-10.65 -18.4 -10.65 -19.75 -10.65 -21.05 -11.4 -22.05 -12.1 -23.05 -12.1 -24.35 -12.15 -25.65 -11.45 -26.85 -10.85 -27.95 -9.75 -28.6 -8.7 -29.2 -7.55 -29.2"/>
  </g>
</svg>