<svg xmlns="http://www.w3.org/2000/svg" xmlns:xlink="http://www.w3.org/1999/xlink">
  <defs/>
  <g>
    <path stroke="none" fill="#FFFFFF" d="M-38.6 -31.9 Q-36.5 -30.95 -34.3 -31.45 -32.05 -32 -30.6 -33.8 -29.15 -35.55 -29.05 -37.8 -28.95 -40.05 -30.25 -41.95 L-31.6 -44.05 Q-32.5 -45.65 -32.05 -47.4 -31.6 -49.2 -30 -50.15 -28.4 -51.05 -26.6 -50.6 -24.85 -50.15 -23.9 -48.55 -20.85 -43.3 -18.8 -35.8 -18.15 -33.2 -15.85 -31.75 -13.55 -30.35 -10.9 -30.9 -8.25 -31.4 -6.7 -33.65 -5.15 -35.8 -5.5 -38.5 L-6.05 -44 Q-6.05 -46.15 -4.5 -47.7 -3 -49.25 -0.85 -49.25 1.3 -49.25 2.85 -47.7 4.4 -46.15 4.4 -44 L3.9 -38.9 Q3.55 -36.4 4.95 -34.25 6.35 -32.1 8.85 -31.45 11.3 -30.75 13.6 -31.9 15.9 -33 16.9 -35.3 L17.7 -37 Q18.5 -38.7 20.25 -39.25 L23.65 -39.05 Q25.05 -38.3 25.7 -36.85 26.35 -35.45 25.95 -33.9 25.4 -31.75 26.2 -29.75 27 -27.65 28.85 -26.5 30.7 -25.3 32.9 -25.4 35.15 -25.55 36.8 -26.95 41.9 -31.05 43.95 -32.25 45.85 -33.3 47.9 -32.75 50 -32.15 51.05 -30.3 52.15 -28.45 51.6 -26.35 51.05 -24.25 49.2 -23.2 45.85 -21.3 32.45 -16.55 30.1 -15.7 28.85 -13.55 27.6 -11.4 28.05 -8.95 28.5 -6.5 30.4 -4.9 32.35 -3.3 34.85 -3.35 L39.4 -3.15 Q41.2 -3 42.4 -1.55 43.6 -0.15 43.4 1.65 43.25 3.5 41.85 4.65 40.4 5.8 38.6 5.65 L37.65 5.6 Q35.8 5.4 34.1 6.15 32.35 6.9 31.3 8.45 30.2 10 30.1 11.9 29.95 13.75 30.8 15.45 31.3 16.3 30.8 17.15 30.45 17.7 30 17.9 27.45 19 26.4 21.7 25.45 24.4 26.6 26.95 27.15 28.1 27 29.35 26.85 30.65 26 31.65 24.8 33.05 23 33.2 21.15 33.35 19.75 32.2 L17.55 30.2 Q15.95 28.65 13.8 28.3 11.65 28 9.65 29 7.7 30 6.75 31.95 5.75 33.9 6.05 36.1 6.9 41.6 6.9 43.9 6.9 46.75 4.9 48.75 2.9 50.75 0 50.75 -2.8 50.75 -4.8 48.75 -6.85 46.8 -6.85 43.9 L-6.7 41.75 Q-6.55 39.8 -7.4 38.1 -8.3 36.35 -9.9 35.35 -11.55 34.35 -13.5 34.35 -15.45 34.35 -17.1 35.35 -18.35 36.15 -19.9 36 -21.45 35.8 -22.55 34.7 -23.6 33.65 -23.75 32.25 -24 30.5 -25.1 29.1 -26.15 27.65 -27.8 26.95 -29.4 26.2 -31.2 26.45 -32.95 26.6 -34.4 27.6 L-36.25 28.8 Q-38.7 30.25 -41.45 29.5 -44.2 28.75 -45.65 26.3 -47.05 23.85 -46.3 21.1 -45.55 18.35 -43.15 16.9 -41.35 15.85 -36.75 14.05 -34.45 13.15 -33.25 10.9 -32.1 8.65 -32.65 6.2 -33.2 3.75 -35.25 2.25 -37.3 0.75 -39.8 0.95 L-41.3 1.05 Q-43.15 1.1 -44.5 -0.15 -45.85 -1.4 -45.9 -3.2 -46 -4.6 -45.2 -5.8 -43.6 -8.2 -44.25 -11 -44.8 -13.8 -47.3 -15.3 -50.55 -17.3 -51.45 -21 -52.35 -24.75 -50.4 -28.05 -48.6 -31.1 -45.2 -32.2 -41.8 -33.3 -38.6 -31.9"/>
  </g>
</svg>