<svg xmlns="http://www.w3.org/2000/svg" xmlns:xlink="http://www.w3.org/1999/xlink">
  <defs/>
  <g>
    <path stroke="none" fill="#FFFFFF" d="M46.15 -16.45 L45.5 -16.3 43.8 -16 Q42.2 -16 40.85 -16.9 39.55 -17.75 38.9 -19.2 38.4 -20.35 37.4 -21.15 36.4 -21.9 35.15 -22.15 L32.75 -22.05 Q31.55 -21.7 30.6 -20.85 29.35 -19.6 27.7 -19.15 26.05 -18.6 25.05 -17.25 24.05 -15.9 24.05 -14.2 L23.85 -12.7 Q23.65 -11.6 23.9 -10.55 24.1 -9.45 24.8 -8.55 25.45 -7.6 26.45 -7.1 27.45 -6.55 28.55 -6.5 31.45 -6.25 33.5 -4.1 35.5 -1.9 35.5 1.05 35.5 2.65 34.9 4 34.1 6.05 34.95 8.05 35.8 10.05 37.85 10.85 41.5 12.2 43.75 15.4 46 18.6 46 22.6 46 27.75 42.35 31.45 38.65 35.1 33.5 35.1 30 35.1 27.05 33.3 24.2 31.6 22.55 28.65 21.85 27.4 20.55 26.7 19.3 26 17.85 26.05 16.4 26.05 15.2 26.85 14 27.65 13.35 28.95 11.85 32.15 8.8 34.1 5.75 36.05 2.05 36.05 -2.65 36.05 -6.2 32.95 -9.7 29.9 -10.35 25.25 -10.55 23.8 -11.5 22.65 -12.45 21.5 -13.85 21.05 -15.75 20.45 -17.1 18.9 -18.4 17.4 -20.4 17.2 -22.4 17 -24 18.15 -25.95 19.55 -28.35 19.55 -30.6 19.55 -32.4 18.35 -34.25 17.2 -35.15 15.2 -36 13.45 -37.85 12.65 -39.65 11.9 -41.55 12.6 L-45.65 13.25 Q-50.85 13.25 -54.5 9.6 -58.15 5.95 -58.15 0.75 -58.15 -4.05 -54.95 -7.65 -51.75 -11.2 -47.05 -11.7 -45.85 -11.85 -44.85 -12.5 -43.85 -13.1 -43.2 -14.15 -42.55 -15.15 -42.45 -16.35 -42.35 -17.55 -42.75 -18.65 -43.2 -19.85 -43.2 -21.15 -43.2 -24.3 -41 -26.5 -38.75 -28.75 -35.65 -28.75 L-34.55 -28.65 Q-32.3 -28.3 -30.55 -29.75 -28.8 -31.15 -28.6 -33.4 L-28.25 -35.2 Q-27.9 -36.3 -28.05 -37.5 -28.2 -38.65 -28.8 -39.65 -29.45 -40.65 -30.5 -41.25 -31.5 -41.85 -32.7 -42 -35 -42.2 -36.6 -43.95 -38.2 -45.7 -38.2 -48.05 -38.2 -50.6 -36.4 -52.4 -34.6 -54.2 -32.1 -54.2 -29.55 -54.2 -27.75 -52.4 -25.95 -50.6 -25.95 -48.05 -25.95 -47.35 -26.1 -46.75 -26.4 -45.6 -26.1 -44.45 -25.85 -43.3 -25.15 -42.4 -24.4 -41.45 -23.3 -40.95 -22.25 -40.45 -21.1 -40.45 -18.6 -40.45 -16.55 -38.9 -14.6 -37.45 -13.85 -35.15 -13.3 -33.3 -11.7 -32.3 -10.1 -31.3 -8.25 -31.55 L-7.3 -31.6 -5.8 -31.45 -3.4 -31.55 Q-2.15 -31.9 -1.25 -32.75 -0.35 -33.6 0.1 -34.75 0.5 -35.95 0.35 -37.15 L0.3 -38.4 Q0.35 -40.75 -1.35 -42.35 -2.45 -43.4 -3.05 -44.75 -3.7 -46.2 -3.7 -47.8 -3.7 -50.95 -1.5 -53.15 0.7 -55.4 3.85 -55.4 6.2 -55.4 8.15 -54 10 -52.7 10.85 -50.6 11.25 -49.55 12.1 -48.75 12.9 -47.95 13.95 -47.6 16.25 -46.8 18.3 -48.05 19.95 -49.05 22.05 -49.05 25.15 -49.05 27.4 -46.8 29.6 -44.6 29.6 -41.5 29.6 -39.85 28.9 -38.35 28.15 -36.75 28.55 -35.05 28.95 -33.3 30.3 -32.2 32.05 -30.7 32.7 -28.55 33.1 -27.35 33.95 -26.45 34.8 -25.5 36 -25.1 L38.45 -24.9 Q39.65 -25.1 40.7 -25.85 42.1 -26.85 43.8 -26.85 46.05 -26.85 47.65 -25.25 49.2 -23.65 49.2 -21.4 49.2 -20 48.5 -18.75 47.85 -17.6 46.7 -16.85 L46.15 -16.45 M13.1 -21 Q14.85 -21.9 15.65 -23.7 16.35 -25.55 15.65 -27.45 15 -29.3 13.25 -30.2 11.5 -31.15 9.6 -30.7 L7.85 -30.5 6.4 -30.65 3.95 -30.55 Q2.75 -30.2 1.85 -29.35 0.9 -28.5 0.5 -27.35 0.05 -26.15 0.2 -24.9 L0.3 -24.05 Q0.3 -22.65 -0.25 -21.35 -0.9 -19.6 -0.35 -17.85 0.25 -16.05 1.85 -15.05 L2.1 -14.9 Q4.1 -13.7 6.35 -14.4 7.45 -14.75 8.25 -15.5 9.1 -16.25 9.55 -17.25 10.65 -19.8 13.1 -21 M50.45 -7.4 L51.1 -7.6 52.8 -7.85 Q55.05 -7.85 56.65 -6.25 58.2 -4.7 58.2 -2.45 58.2 -0.2 56.65 1.4 55.05 2.95 52.8 2.95 50.6 2.95 49 1.4 47.4 -0.2 47.4 -2.45 47.4 -3.85 48.1 -5.1 48.8 -6.3 49.95 -7 L50.45 -7.4 M22.55 6.35 Q21.6 5.4 20.35 5 L17.75 4.95 Q16.45 5.25 15.45 6.15 14.45 7.05 14.05 8.3 L12.8 10.55 Q11.75 11.85 11.7 13.5 11.6 15.15 12.5 16.6 L13.05 17.5 Q13.75 18.75 15.05 19.45 16.25 20.15 17.7 20.1 19.15 20.05 20.35 19.25 21.55 18.45 22.2 17.2 22.95 15.6 24 14.4 24.7 13.65 25 12.6 L25.25 10.55 Q25.05 8.35 23.3 6.95 L22.55 6.35 M20.25 44.65 Q22.5 44.65 24.05 46.25 25.65 47.85 25.65 50.05 25.65 52.3 24.05 53.9 22.5 55.45 20.25 55.45 18 55.45 16.4 53.9 14.85 52.3 14.85 50.05 14.85 47.8 16.4 46.25 18 44.65 20.25 44.65 M-22.2 -25.4 L-24.3 -25.3 Q-25.35 -25 -26.2 -24.3 -28 -22.9 -28.1 -20.65 L-28.4 -19.05 Q-28.8 -17.75 -28.45 -16.45 -28.2 -15.1 -27.25 -14.1 -26.35 -13.1 -25.05 -12.7 L-22.45 -12.5 -21.1 -12.65 -19.35 -12.45 -16.4 -12.6 Q-14.9 -13.15 -14 -14.45 -13.05 -15.7 -13 -17.25 -12.9 -18.8 -13.75 -20.15 L-14.6 -22.05 Q-15.2 -23.75 -16.75 -24.7 -18.35 -25.65 -20.15 -25.4 L-21.1 -25.3 -22.2 -25.4 M-34.8 41.2 Q-35.25 39.1 -37.05 37.9 -38.85 36.7 -40.95 37.15 L-42.05 37.25 Q-44.3 37.25 -45.85 35.65 -47.45 34.1 -47.45 31.85 -47.45 29.6 -45.85 28 -44.25 26.45 -42.05 26.45 -40.35 26.45 -38.95 27.4 -37.6 28.35 -37 29.85 -36.2 31.9 -34.25 32.7 -32.25 33.6 -30.2 32.75 -28.85 32.2 -27.4 32.2 -24.3 32.2 -22.05 34.4 -19.85 36.65 -19.85 39.75 -19.85 42.9 -22.05 45.1 -24.3 47.3 -27.4 47.3 -30.15 47.3 -32.25 45.55 -34.3 43.85 -34.8 41.2"/>
  </g>
</svg>