<svg xmlns="http://www.w3.org/2000/svg" xmlns:xlink="http://www.w3.org/1999/xlink">
  <defs/>
  <g>
    <path stroke="none" fill="#FFFFFF" d="M35.15 14.55 Q33.7 14.9 32.6 15.85 31.5 16.85 31 18.25 30.5 19.65 30.75 21.1 30.95 22.55 31.85 23.7 35.3 28.1 35.3 33.75 35.3 40.5 30.45 45.35 25.65 50.15 18.85 50.15 14.5 50.15 10.75 48 7.05 45.95 4.9 42.35 3.65 40.45 1.45 39.85 -0.75 39.25 -2.75 40.35 -5.25 41.65 -8.1 41.65 -12.6 41.65 -15.9 38.5 -19.15 35.4 -19.45 30.95 -19.55 29.15 -20.6 27.75 -21.65 26.4 -23.3 25.8 L-26.7 25.65 Q-28.35 26.1 -29.55 27.45 L-32.1 29.8 Q-33.45 30.8 -34.1 32.35 -34.7 33.9 -34.35 35.55 L-34.25 37.05 Q-34.25 40.7 -36.8 43.2 -39.35 45.8 -42.95 45.8 -46.6 45.8 -49.15 43.2 -51.7 40.7 -51.7 37.05 -51.7 35.65 -51.25 34.35 -50.7 32.75 -51.1 31.15 -51.5 29.5 -52.7 28.35 -55 26.1 -56.25 23.2 -57.55 20.2 -57.55 16.85 -57.55 10.25 -52.85 5.55 -48.15 0.85 -41.55 0.85 L-40.5 0.9 Q-38.9 1.05 -37.5 0.35 -36.05 -0.35 -35.2 -1.65 -34.35 -3 -34.25 -4.6 -34.2 -6.2 -34.95 -7.55 -36.05 -9.65 -36.05 -12 -36.05 -15.75 -33.45 -18.55 -30.9 -21.3 -27.15 -21.55 -25.75 -21.65 -24.5 -22.4 -23.3 -23.15 -22.6 -24.4 -21.85 -25.65 -21.8 -27.05 -21.75 -28.5 -22.35 -29.75 -23.7 -32.65 -23.7 -35.85 -23.7 -41.75 -19.55 -45.95 -15.4 -50.1 -9.45 -50.1 -3.6 -50.1 0.6 -45.95 4.75 -41.75 4.75 -35.85 4.75 -33.5 3.95 -31.15 3.1 -28.75 4.3 -26.55 5.5 -24.25 7.9 -23.65 10.75 -22.95 13.55 -21.5 14.95 -20.75 16.55 -20.85 18.2 -20.95 19.5 -21.85 22.15 -23.7 25 -24.55 26.85 -25.15 28 -26.7 29.1 -28.3 29.1 -30.2 L29.1 -30.4 Q29.1 -34 31.65 -36.55 34.2 -39.05 37.8 -39.05 41.4 -39.05 44 -36.5 46.55 -33.95 46.55 -30.35 46.55 -27.9 45.25 -25.8 44.25 -24.15 44.4 -22.2 44.6 -20.3 45.9 -18.85 48.4 -16.1 49.8 -12.7 51.2 -9.1 51.2 -5.2 51.2 -3.25 50.8 -1.35 50.45 0.45 51.2 2.1 51.9 3.8 53.45 4.7 55.35 5.9 56.45 7.8 57.6 9.8 57.6 12.15 57.6 15.75 55.05 18.3 52.5 20.85 48.9 20.85 46.65 20.85 44.7 19.8 42.8 18.75 41.6 16.95 40.6 15.45 38.95 14.75 L35.5 14.45 35.15 14.55"/>
  </g>
</svg>