<svg xmlns="http://www.w3.org/2000/svg" xmlns:xlink="http://www.w3.org/1999/xlink">
  <defs/>
  <g>
    <path stroke="none" fill="#FFFFFF" d="M-13.45 -49.15 Q-11.25 -48.75 -9.2 -49.55 -7.1 -50.35 -5.8 -52.2 -4.55 -53.9 -2.65 -54.85 -0.7 -55.85 1.5 -55.85 5.2 -55.85 7.8 -53.2 10.45 -50.55 10.45 -46.85 10.45 -45.15 9.85 -43.55 8.95 -41.3 9.45 -38.95 9.95 -36.65 11.75 -34.95 13.5 -33.35 15.85 -33 18.25 -32.6 20.4 -33.65 22.2 -34.55 24.3 -34.55 27.4 -34.55 29.9 -32.6 32.05 -30.9 34.8 -30.9 37.55 -30.95 39.7 -32.7 42.1 -34.75 45.4 -34.75 49.15 -34.75 51.75 -32.1 54.4 -29.5 54.4 -25.75 54.4 -23.75 53.55 -21.9 52.7 -20.15 51.2 -18.9 49.75 -17.65 49 -15.8 48.3 -14 48.55 -12.05 L48.7 -9.8 48.6 -8.35 Q48.45 -6.5 49.15 -4.75 49.85 -3 51.3 -1.8 52.75 -0.55 53.55 1.2 54.4 3 54.4 5 54.4 8.75 51.75 11.4 49.15 14.05 45.4 14.05 L42.65 13.6 38.9 13.3 Q36.95 13.65 35.45 14.85 33.9 16.05 33.15 17.85 32.35 19.6 32.5 21.55 L32.55 22.05 Q32.55 25.8 29.9 28.4 27.25 31.05 23.5 31.05 21.15 31.05 19.15 29.9 16.45 28.35 13.45 29.1 10.5 29.8 8.8 32.4 7.6 34.2 5.75 35.25 3.85 36.35 1.65 36.45 -0.05 36.5 -1.5 37.25 -3 38 -4.05 39.3 -5.1 40.6 -5.55 42.2 -5.95 43.8 -5.7 45.4 L-5.6 46.85 Q-5.6 50.55 -8.25 53.2 -10.85 55.85 -14.6 55.85 -17.9 55.85 -20.4 53.7 -22.9 51.6 -23.45 48.4 -23.85 46.15 -25.45 44.45 -27 42.75 -29.25 42.25 L-32.35 41.2 Q-33.8 40.6 -35.4 40.6 L-38.4 41.2 Q-40.05 41.9 -41.9 41.9 -45.6 41.9 -48.25 39.25 -50.9 36.65 -50.9 32.9 L-50.7 31.05 Q-50.35 29.3 -50.75 27.6 -51.2 25.85 -52.3 24.5 -54.4 21.95 -54.4 18.75 -54.4 15.05 -51.75 12.4 -49.1 9.75 -45.35 9.75 L-44.3 9.85 -40.95 9.55 Q-39.3 9.05 -38.05 7.85 -35.5 5.6 -32.5 4.3 -30.2 3.25 -28.95 1.1 -27.65 -1.05 -27.9 -3.6 -28.15 -6.1 -29.85 -7.95 -31.5 -9.85 -33.95 -10.4 -37 -11.05 -39 -13.45 -41 -15.95 -41.05 -19.1 L-41 -19.3 Q-40.95 -21.95 -42.5 -24.1 -44.1 -26.25 -46.65 -26.95 -49.5 -27.8 -51.35 -30.15 -53.2 -32.55 -53.2 -35.6 -53.2 -39.35 -50.55 -42 -47.95 -44.65 -44.2 -44.65 -41.75 -44.65 -39.7 -43.4 -37.5 -42.1 -35 -42.35 -32.45 -42.6 -30.55 -44.3 -27.85 -46.75 -24.45 -48.1 -20.95 -49.45 -17.1 -49.45 L-13.45 -49.15"/>
  </g>
</svg>