<svg xmlns="http://www.w3.org/2000/svg" xmlns:xlink="http://www.w3.org/1999/xlink">
  <defs/>
  <g>
    <path stroke="none" fill="#FFFFFF" d="M-40.4 -6.75 Q-39.2 -7.7 -38.7 -9.1 -38.2 -10.55 -38.5 -12.05 -38.8 -13.55 -39.85 -14.7 -40.9 -15.8 -42.35 -16.25 -46.25 -17.35 -48.35 -20.95 -50.55 -24.7 -49.45 -28.9 -48.3 -33.05 -44.6 -35.2 -41.35 -37.1 -37.6 -36.45 -33.95 -35.85 -31.5 -33.05 -30.45 -31.9 -29 -31.4 L-26.05 -31.3 Q-24.6 -31.7 -23.5 -32.8 -22.4 -33.85 -22 -35.35 -21.15 -39 -19 -41.95 -16.75 -45.05 -13.4 -46.95 -6.85 -50.75 0.5 -48.8 7.85 -46.85 11.65 -40.25 13.75 -36.65 14.05 -32.4 14.15 -30.95 14.95 -29.75 15.7 -28.55 17 -27.95 18.25 -27.3 19.7 -27.3 21.15 -27.35 22.3 -28.1 L22.7 -28.35 Q29.3 -32.1 36.55 -30.1 43.9 -28.15 47.7 -21.6 51.45 -15.05 49.5 -7.65 47.55 -0.4 41 3.4 37.45 5.45 33.4 5.85 31.2 6 29.75 7.6 28.3 9.25 28.35 11.45 28.45 14.25 27.1 16.75 25.7 19.35 23.15 20.8 20.3 22.45 17.05 22.15 13.85 21.85 11.45 19.85 10.35 19.05 9.05 18.8 L6.55 18.9 1.85 19.15 Q-0.15 18.8 -1.85 19.8 -3.6 20.8 -4.25 22.65 L-5.1 24.4 Q-6.15 26.05 -5.85 28.05 -5.6 30 -4.15 31.3 -2.95 32.4 -2.15 33.8 0 37.6 -1.1 41.7 -2.25 45.85 -6 48.05 -9.7 50.2 -13.9 49.05 -18.05 48 -20.2 44.2 -21.45 42.05 -21.55 39.55 -21.75 37.15 -20.75 34.9 -19.95 33.1 -20.5 31.2 -21.1 29.25 -22.8 28.15 L-24.25 27.05 Q-25.95 25.55 -28.2 25.65 -30.45 25.75 -31.95 27.45 -33.05 28.65 -34.4 29.45 -38.15 31.6 -42.35 30.45 -46.5 29.35 -48.65 25.6 -50.6 22.2 -49.9 18.45 -49.15 14.6 -46.15 12.25 -44.9 11.3 -44.35 9.75 -43.8 8.15 -44.25 6.6 L-44.55 5.45 Q-45.2 1.9 -44.05 -1.4 -42.95 -4.65 -40.4 -6.75"/>
  </g>
</svg>