<svg xmlns="http://www.w3.org/2000/svg" xmlns:xlink="http://www.w3.org/1999/xlink">
  <defs/>
  <g>
    <path stroke="none" fill="#FFFFFF" d="M-26.45 -24 Q-25.15 -23.25 -23.6 -23.35 -22.1 -23.5 -20.95 -24.5 -19.8 -25.5 -19.45 -26.95 -19.1 -28.45 -19.7 -29.85 -21.15 -33.35 -21.15 -37.3 -21.15 -45.35 -15.5 -51.05 -9.8 -56.7 -1.75 -56.7 6.3 -56.7 12 -51.05 17.65 -45.35 17.65 -37.3 L17.6 -35.45 Q17.45 -34.15 18.05 -32.9 18.65 -31.7 19.8 -31 20.95 -30.25 22.3 -30.3 23.65 -30.35 24.8 -31.05 29.6 -34.15 35.3 -34.15 43.35 -34.15 49.05 -28.5 54.75 -22.8 54.75 -14.75 54.75 -10.55 53 -6.7 51.3 -3 48.3 -0.3 47.1 0.8 46.8 2.35 46.5 3.95 47.25 5.35 48.85 8.35 48.85 11.75 48.85 17.45 44.85 21.45 40.8 25.5 35.15 25.5 L34.75 25.5 Q33.6 25.5 32.55 26 31.5 26.5 30.8 27.45 30.15 28.35 30 29.55 29.85 30.65 30.2 31.8 31 34 31 36.4 31 42.1 27 46.15 22.95 50.15 17.25 50.15 14.2 50.15 11.45 48.9 8.85 47.7 6.9 45.5 6.05 44.55 4.85 44.1 L2.4 43.95 Q1.15 44.25 0.25 45.05 -0.7 45.95 -1.1 47.15 -2.4 51.4 -6 54 -9.65 56.75 -14.2 56.75 -19.9 56.75 -23.95 52.7 -27.95 48.65 -27.95 42.95 -27.95 41.25 -27.55 39.6 -27.25 38.4 -27.6 37.25 -27.9 36.1 -28.75 35.2 -29.6 34.35 -30.75 34 L-33.15 33.9 -36.05 34.2 Q-41.75 34.2 -45.75 30.2 -49.8 26.15 -49.8 20.45 -49.8 16.15 -47.35 12.6 -46.3 11.1 -46.5 9.3 -46.75 7.5 -48.15 6.3 -51.25 3.7 -52.95 0 -54.75 -3.75 -54.75 -7.95 -54.75 -15.7 -49.25 -21.15 -43.8 -26.65 -36.05 -26.65 -30.8 -26.65 -26.45 -24"/>
  </g>
</svg>