<svg xmlns="http://www.w3.org/2000/svg" xmlns:xlink="http://www.w3.org/1999/xlink">
  <defs/>
  <g>
    <path stroke="none" fill="#FFFFFF" d="M-23.65 -32.8 Q-22.2 -31.45 -20.25 -31.2 -18.25 -30.95 -16.5 -31.9 -14.75 -32.85 -13.9 -34.65 -13 -36.45 -13.4 -38.4 -14.25 -43.4 -13.65 -48.55 -13.35 -51.65 -10.9 -53.55 -8.45 -55.55 -5.35 -55.2 -2.25 -54.85 -0.3 -52.4 1.7 -49.95 1.35 -46.85 L-0.85 -27.35 Q-1.15 -25.2 0 -23.4 1.15 -21.6 3.15 -20.8 5.15 -20.1 7.15 -20.75 9.2 -21.4 10.4 -23.2 16.7 -32.55 27.15 -36.65 L32.9 -36.5 Q35.75 -35.25 36.9 -32.35 37.65 -30.4 37.3 -28.45 37.05 -26.5 35.8 -24.95 34.5 -23.3 34.5 -21.25 34.45 -19.2 35.65 -17.5 36.85 -15.8 38.85 -15.2 L42.75 -15.3 Q47.05 -16.8 51.55 -17.25 54.7 -17.5 57.1 -15.5 59.5 -13.55 59.8 -10.45 60.05 -7.3 58.1 -4.9 56.1 -2.5 53 -2.2 L44 -1.4 Q42.45 -1.3 41.15 -0.4 39.85 0.45 39.1 1.8 L38.2 3.2 Q37.15 4.35 36.85 5.95 36.55 7.5 37 9 37.45 10.5 38.6 11.65 39.75 12.7 41.25 13.15 49.35 15.35 55.85 21.2 58.1 23.35 58.25 26.45 58.4 29.6 56.3 31.85 54.2 34.2 51.05 34.3 47.95 34.45 45.65 32.35 L41.65 28.7 Q40.25 27.4 38.4 27.1 36.5 26.85 34.8 27.7 33.05 28.5 32.1 30.15 31.15 31.8 31.3 33.7 31.45 35.8 30.55 37.65 29.65 39.55 27.85 40.7 25.2 42.35 22.15 41.7 19.1 41 17.45 38.4 L13.2 31.75 Q12 29.8 9.75 29.15 7.55 28.45 5.45 29.45 3.35 30.4 2.35 32.5 1.4 34.55 2.05 36.8 3.6 42.1 3.45 47.9 3.35 51.05 1.05 53.2 -1.2 55.35 -4.35 55.25 -7.45 55.1 -9.6 52.85 -11.75 50.6 -11.65 47.45 L-11.25 35.4 Q-11.2 33.45 -12.25 31.8 -13.3 30.15 -15.15 29.45 -16.95 28.7 -18.85 29.15 -20.75 29.65 -22.05 31.1 -25.35 34.85 -29.7 37.55 -32.35 39.25 -35.4 38.55 -38.45 37.85 -40.1 35.2 -41.8 32.6 -41.1 29.55 -40.4 26.5 -37.75 24.8 L-19.9 13.55 Q-17.5 12.1 -17.05 9.35 -16.6 6.6 -18.35 4.45 L-19.95 2 Q-21.2 -0.4 -23.8 -1.1 -26.4 -1.8 -28.7 -0.4 -40.4 6.85 -53.4 4.85 -56.5 4.4 -58.4 1.9 -60.25 -0.65 -59.75 -3.7 -59.3 -6.8 -56.75 -8.65 -54.25 -10.5 -51.15 -10.05 L-34.05 -7.4 Q-31.85 -7.05 -29.95 -8.15 -28.05 -9.3 -27.25 -11.35 -26.5 -13.4 -27.2 -15.5 -27.95 -17.6 -29.8 -18.75 -32.65 -20.55 -35.1 -22.85 -37.4 -25 -37.55 -28.1 -37.65 -31.25 -35.5 -33.5 -33.4 -35.8 -30.25 -35.9 -27.15 -36.05 -24.9 -33.9 L-23.65 -32.8"/>
  </g>
</svg>