<svg xmlns="http://www.w3.org/2000/svg" xmlns:xlink="http://www.w3.org/1999/xlink">
  <defs/>
  <g>
    <path stroke="none" fill="#FFFFFF" d="M-31.25 -54.8 L-28.05 -54.7 Q-26.4 -55.15 -25.35 -56.4 -24.1 -57.85 -22.2 -57.85 -20.5 -57.85 -19.3 -56.65 -18.05 -55.45 -18.05 -53.8 L-18.05 -52.95 Q-18.2 -50.75 -16.7 -49.1 -15.3 -47.4 -13.05 -47.2 -11.9 -47.1 -11 -46.45 -10.05 -45.75 -9.6 -44.75 -8.8 -42.8 -6.85 -41.95 -5 -41.05 -3 -41.65 L0.4 -42.15 3.95 -41.6 6.45 -41.45 Q7.75 -41.6 8.8 -42.35 9.85 -43.15 10.45 -44.25 11.05 -45.4 11.1 -46.7 11.2 -51 14.3 -53.95 17.4 -56.95 21.7 -56.95 26.1 -56.95 29.2 -53.85 32.3 -50.75 32.3 -46.35 32.3 -43.35 30.7 -40.7 29.95 -39.5 29.85 -38.1 29.75 -36.7 30.35 -35.4 30.95 -34.15 32.1 -33.3 33.25 -32.5 34.65 -32.3 36.2 -32.15 37.2 -30.95 38.25 -29.75 38.25 -28.15 38.25 -26.45 37.05 -25.2 35.8 -24 34.1 -24 L33.3 -24.05 30.35 -23.85 Q28.9 -23.3 27.9 -22.15 26.95 -20.95 26.75 -19.4 26.55 -17.9 27.15 -16.5 27.75 -15.1 27.75 -13.7 L27.7 -13.2 Q27.6 -11.9 28.1 -10.7 28.55 -9.5 29.55 -8.65 30.5 -7.75 31.75 -7.4 L34.3 -7.35 36.1 -7.55 37.05 -7.5 39.3 -7.7 Q40.4 -8.05 41.25 -8.8 43.1 -10.35 43.15 -12.8 43.2 -14.45 44.4 -15.65 45.65 -16.85 47.35 -16.85 49.05 -16.85 50.3 -15.65 51.5 -14.4 51.5 -12.7 51.5 -11.55 50.95 -10.6 50.4 -9.65 49.5 -9.1 47.85 -8.1 47.15 -6.35 46.5 -4.6 47.05 -2.75 47.6 -0.95 49.15 0.15 50.7 1.25 52.6 1.15 L53.15 1.1 Q54.85 1.15 56.05 2.35 57.2 3.55 57.2 5.3 57.2 7 56 8.25 54.75 9.45 53.05 9.45 51.2 9.45 49.95 8.1 48.45 6.4 46.1 6.3 43.8 6.15 42.1 7.75 L41.65 8.15 Q40.25 9.35 39.85 11.05 39.4 12.8 40.1 14.45 40.55 15.6 40.6 16.9 40.6 18.6 41.6 19.95 42.65 21.35 44.25 21.95 45.5 22.4 46.25 23.45 47.05 24.55 47.05 25.85 47.05 27.2 46.3 28.25 45.55 29.3 44.4 29.75 42.95 30.3 42.05 31.5 41.1 32.7 40.9 34.25 40.75 35.75 41.35 37.15 41.95 38.55 43.2 39.4 44.05 40 44.5 40.85 45 41.75 45 42.8 45 44.5 43.75 45.75 42.55 47 40.8 47 39.4 47 38.3 46.15 36.8 44.95 34.95 44.95 33.1 44.95 31.6 46.1 L30.6 46.75 Q29.1 47.7 28.4 49.4 27.75 51.05 28.2 52.8 L28.3 53.7 Q28.3 55.45 27.05 56.65 25.85 57.9 24.1 57.9 22.35 57.9 21.15 56.65 19.9 55.45 19.9 53.7 L19.95 53.05 Q20.3 51.3 19.55 49.65 18.75 48 17.2 47.15 L16.2 46.6 Q14.75 45.6 13 45.65 11.2 45.7 9.8 46.8 7.95 48.2 5.6 48.2 L4.8 48.15 Q3.25 47.95 1.8 48.65 0.35 49.3 -0.5 50.65 -1.45 52.15 -3 53 -4.6 53.9 -6.45 53.9 -9.35 53.9 -11.4 51.85 -13.5 49.8 -13.5 46.9 -13.5 43.9 -11.35 41.85 -9.6 40.2 -9.65 37.7 -9.7 35.25 -11.55 33.7 -13.6 31.95 -14.85 29.6 -16.15 27.15 -16.45 24.45 -16.65 22.45 -18.1 21.1 -19.55 19.7 -21.6 19.55 -24.35 19.4 -26.3 17.35 -28.2 15.35 -28.2 12.55 -28.2 10.05 -26.6 8.1 -25.05 6.15 -22.6 5.65 -20.4 5.2 -19.15 3.3 -17.85 1.35 -18.35 -0.85 L-18.7 -3.95 Q-18.7 -6.55 -17.8 -8.95 -17.15 -10.75 -17.75 -12.55 -18.3 -14.35 -19.85 -15.4 -21.4 -16.45 -23.3 -16.35 -25.15 -16.2 -26.6 -15 -28.05 -13.75 -29.95 -13.4 -31.95 -13.05 -33.25 -11.4 -34.55 -9.75 -34.45 -7.7 L-34.4 -7 Q-34.45 -5.3 -35.7 -4.1 -36.9 -2.95 -38.6 -2.95 -40.15 -2.95 -41.35 -3.95 -42.5 -4.95 -42.75 -6.45 -42.95 -7.8 -43.75 -8.9 -44.55 -10 -45.8 -10.6 -47.05 -11.15 -48.4 -11.1 -49.75 -11.05 -50.95 -10.35 -51.85 -9.8 -53 -9.8 -54.75 -9.8 -55.95 -11.05 -57 -12.1 -57.15 -13.55 L-57.2 -14 -57.15 -14.45 Q-57 -15.75 -56.15 -16.75 -55.1 -17.95 -53.55 -18.15 -51.85 -18.35 -50.55 -19.5 -49.25 -20.65 -48.9 -22.35 -48.55 -23.7 -47.45 -24.6 -46.3 -25.5 -44.85 -25.5 L-43.95 -25.4 Q-41.95 -24.95 -40.15 -25.9 -38.3 -26.85 -37.55 -28.75 -36.8 -30.65 -37.45 -32.6 -38.15 -34.5 -39.9 -35.55 -42.35 -36.95 -43.75 -39.35 -45.2 -41.8 -45.2 -44.7 -45.2 -49.15 -42.1 -52.2 -39 -55.35 -34.6 -55.35 -32.85 -55.35 -31.25 -54.8 M-39.5 37.25 Q-38.75 36.05 -38.65 34.75 -38.6 33.4 -39.15 32.15 -39.7 30.9 -40.75 30.05 -41.85 29.25 -43.2 28.95 -44.65 28.7 -45.6 27.55 -46.6 26.35 -46.6 24.85 -46.6 23.15 -45.35 21.9 -44.15 20.7 -42.4 20.7 -40.8 20.7 -39.65 21.7 -38.5 22.7 -38.25 24.25 -37.95 26.6 -36.05 27.95 -34.1 29.35 -31.8 28.9 L-31.2 28.8 Q-29.45 28.8 -28.25 30.05 -27 31.3 -27 33 -27 34.15 -27.6 35.15 -28.15 36.1 -29.15 36.65 -31.3 37.9 -31.8 40.25 -32.1 41.65 -33.25 42.6 -34.4 43.5 -35.85 43.5 -37.6 43.5 -38.85 42.3 -40.05 41.05 -40.05 39.35 -40.05 38.2 -39.5 37.25"/>
  </g>
</svg>