<svg xmlns="http://www.w3.org/2000/svg" xmlns:xlink="http://www.w3.org/1999/xlink">
  <defs/>
  <g>
    <path stroke="none" fill="#FFFFFF" d="M-28.9 -23.75 Q-27.75 -22.1 -25.75 -21.65 -23.8 -21.2 -22 -22.15 -20.25 -23.15 -19.55 -25.05 -18.9 -26.95 -19.65 -28.8 -21.05 -32.3 -21.05 -36.2 -21.05 -44.4 -15.3 -50.15 -9.5 -55.95 -1.35 -55.95 6.2 -55.95 11.85 -50.9 17.4 -45.85 18.25 -38.45 18.55 -36.25 20.25 -34.9 22 -33.5 24.2 -33.8 L25.5 -34 Q26.8 -34.15 27.85 -34.85 28.9 -35.6 29.5 -36.7 31.35 -40.15 34.75 -42.2 38.2 -44.35 42.25 -44.35 48.25 -44.35 52.5 -40.1 56.75 -35.8 56.75 -29.8 56.75 -25.75 54.6 -22.2 53.9 -21.1 53.85 -19.8 53.75 -18.5 54.3 -17.3 56.65 -11.9 56.65 -5.95 56.65 1.55 53 7.9 52.2 9.3 52.3 10.85 52.4 12.4 53.3 13.7 56.1 17.5 56.1 22.25 56.1 28.25 51.85 32.5 47.65 36.75 41.65 36.75 36.55 36.75 32.6 33.6 28.7 30.5 27.55 25.7 27.15 24.15 26.05 23.1 24.9 22 23.35 21.7 L19.3 20.65 Q17.55 20.05 15.8 20.65 14.1 21.25 13.1 22.8 L12.7 23.4 Q11.85 24.55 11.75 26 11.6 27.45 12.2 28.7 13.95 32.45 13.95 36.75 13.95 44.7 8.35 50.3 2.75 55.95 -5.2 55.95 -13.15 55.95 -18.75 50.3 -24.4 44.7 -24.4 36.75 L-24.35 35.3 Q-24.2 33.9 -24.8 32.6 -25.45 31.3 -26.6 30.45 -29.25 28.6 -31.4 26.25 -32.5 25.05 -34.05 24.65 L-37.15 24.85 Q-39.6 25.75 -42.2 25.75 -48.2 25.75 -52.5 21.5 -56.7 17.25 -56.7 11.25 -56.7 7.1 -54.55 3.6 -52.4 0.2 -48.85 -1.65 -47.8 -2.15 -47.05 -3.15 -46.35 -4.1 -46.1 -5.3 -45.85 -6.5 -46.15 -7.65 -46.45 -8.8 -47.25 -9.75 -49.95 -12.95 -49.95 -17.15 -49.95 -21.95 -46.55 -25.35 -43.15 -28.75 -38.35 -28.75 -35.45 -28.75 -32.95 -27.4 -30.45 -26.05 -28.9 -23.75"/>
  </g>
</svg>