<svg xmlns="http://www.w3.org/2000/svg" xmlns:xlink="http://www.w3.org/1999/xlink">
  <defs/>
  <g>
    <path stroke="none" fill="#FFFFFF" d="M-32.45 -28.85 L-29.1 -28.55 Q-27.4 -28.9 -26.25 -30.25 -25.1 -31.6 -24.95 -33.3 -24.85 -35.05 -25.75 -36.55 L-26.05 -36.95 Q-28.4 -40.75 -27.35 -45.1 -26.3 -49.45 -22.5 -51.85 -18.7 -54.2 -14.35 -53.15 -9.95 -52.15 -7.6 -48.3 -3.4 -41.5 -0.55 -36.05 0.25 -34.5 1.85 -33.75 3.4 -33 5.1 -33.3 6.8 -33.65 8 -34.9 9.2 -36.2 9.4 -37.9 9.6 -39.6 10.9 -40.75 12.15 -41.9 13.9 -41.95 15.6 -41.95 16.95 -40.85 18.25 -39.75 18.55 -38.1 18.8 -36.6 19.8 -35.45 20.85 -34.3 22.3 -33.9 23.8 -33.45 25.3 -33.9 26.75 -34.35 27.75 -35.45 L29.85 -37.75 Q32.25 -40.3 35.75 -40.4 39.3 -40.5 41.85 -38.05 44.4 -35.65 44.45 -32.1 44.55 -28.6 42.1 -26.1 L34.2 -17.75 Q33.1 -16.6 32.8 -15.05 32.5 -13.55 33.1 -12.05 33.7 -10.6 34.95 -9.7 36.25 -8.8 37.8 -8.75 43.6 -8.55 50.35 -6.85 53.35 -6.15 54.95 -3.5 56.5 -0.85 55.75 2.15 55 5.1 52.35 6.7 49.75 8.3 46.75 7.55 L30.95 3.55 Q29.05 3.05 27.3 3.95 25.55 4.8 24.8 6.6 24 8.4 24.55 10.25 25.15 12.15 26.8 13.2 34.65 18.2 41.3 29.7 42.85 32.35 42.05 35.35 41.25 38.35 38.55 39.85 35.9 41.4 32.95 40.6 30 39.8 28.45 37.15 L27.35 35.3 Q26.45 33.65 24.7 33 L21.15 32.85 Q19.4 33.45 18.35 35 17.3 36.55 17.45 38.4 17.8 42.25 17.65 46.25 17.6 49.35 15.35 51.45 13.1 53.55 10.05 53.45 6.95 53.4 4.85 51.15 2.75 48.9 2.85 45.85 L3.4 27.45 Q3.4 25.6 2.35 24.15 1.25 22.65 -0.5 22.15 L-4 22.35 Q-5.65 23.1 -6.55 24.65 -10.75 32.15 -20.25 39.35 -22.65 41.2 -25.7 40.8 -28.75 40.35 -30.65 37.9 -32.1 36 -32.15 33.55 -32.2 31.2 -30.85 29.25 -29.85 27.8 -29.9 26.1 -29.95 24.4 -31 23 -32.05 21.65 -33.7 21.15 -35.3 20.65 -36.95 21.2 L-41.95 22.85 Q-46.25 24.15 -50.2 22.05 -54.15 19.95 -55.45 15.65 -56.75 11.4 -54.65 7.4 -52.55 3.45 -48.3 2.15 L-34.05 -1.7 Q-32.45 -2.1 -31.35 -3.3 -30.2 -4.55 -30 -6.15 -29.75 -7.8 -30.5 -9.3 -31.25 -10.75 -32.7 -11.55 L-39.8 -16.05 Q-42.3 -17.85 -42.8 -20.9 -43.25 -23.95 -41.45 -26.45 -39.9 -28.6 -37.35 -29.25 -34.8 -29.95 -32.45 -28.85"/>
  </g>
</svg>