<svg xmlns="http://www.w3.org/2000/svg" xmlns:xlink="http://www.w3.org/1999/xlink">
  <defs/>
  <g>
    <path stroke="none" fill="#FFFFFF" d="M44.15 -37.7 L43.4 -37.65 42.65 -37.75 39.35 -37.5 Q37.75 -36.95 36.7 -35.6 35.6 -34.3 35.35 -32.6 35.15 -30.9 35.8 -29.3 L36.05 -28.85 Q36.9 -26.3 39.4 -25.2 40.6 -24.7 41.9 -24.7 43.2 -24.75 44.35 -25.25 L45.35 -25.55 45.6 -25.65 45.8 -25.65 46.35 -25.7 Q48.25 -25.65 49.6 -24.25 50.9 -22.95 50.9 -21 50.9 -19.1 49.6 -17.8 48.25 -16.4 46.35 -16.35 L45.6 -16.4 Q44.15 -16.5 42.8 -15.9 41.45 -15.3 40.55 -14.15 39.6 -13.05 39.3 -11.6 39 -10.15 39.4 -8.75 L39.65 -6.75 39.6 -6.2 Q39.4 -3.9 40.8 -2.05 42.2 -0.15 44.5 0.3 47.15 0.85 48.9 2.9 50.65 5 50.75 7.75 50.8 9.65 51.9 11.15 53 12.7 54.85 13.35 56.2 13.8 57.05 15 57.9 16.25 57.9 17.7 57.9 19.65 56.55 21 55.15 22.35 53.25 22.35 51.85 22.35 50.65 21.55 49.55 20.8 49 19.5 48.25 17.75 46.65 16.75 45.05 15.75 43.2 15.8 L42.5 15.8 Q40.7 15.65 39.15 16.5 37.55 17.35 36.7 18.9 35.8 20.45 35.9 22.25 36.05 24 37.1 25.45 38.5 27.45 38.5 29.95 38.5 31.7 37.75 33.3 37 34.85 35.7 35.95 34.65 36.8 34.1 38 33.55 39.2 33.5 40.55 33.45 41.85 34 43.1 34.55 44.3 35.55 45.2 37.1 46.55 37.1 48.65 37.1 50.55 35.7 51.9 34.35 53.3 32.45 53.3 30.5 53.3 29.15 51.9 27.8 50.6 27.8 48.65 27.8 47.05 28.7 45.85 30.4 43.65 29.9 40.95 29.35 38.2 26.95 36.8 L26.8 36.75 Q24.65 35.5 22.25 36.1 19.85 36.7 18.55 38.8 17.45 40.5 15.75 41.5 13.95 42.55 11.85 42.55 L11 42.45 Q9.25 42.25 7.65 43 6.05 43.75 5.1 45.25 4.05 46.9 2.35 47.9 0.55 48.85 -1.5 48.85 -4.7 48.85 -7 46.55 -9.3 44.3 -9.3 41.05 -9.3 38.8 -8.1 36.85 -6.8 34.85 -7.25 32.5 -7.65 30.15 -9.6 28.7 -11.2 27.55 -12 25.65 -12.55 24.5 -13.5 23.6 -14.5 22.75 -15.75 22.35 -18.3 21.5 -20.7 22.9 -22.4 23.95 -24.6 23.95 L-25.9 23.85 Q-28.25 23.4 -30.25 24.75 -32.25 26.05 -32.85 28.4 -33.25 29.9 -34.5 30.9 -35.75 31.9 -37.35 31.9 -39.25 31.9 -40.6 30.5 -42 29.15 -42 27.25 -42 25.45 -40.8 24.1 -39.6 22.8 -37.85 22.6 -35.5 22.35 -33.9 20.6 -32.35 18.75 -32.4 16.4 L-32.4 16.05 Q-32.4 12.85 -30.1 10.6 -27.8 8.3 -24.6 8.3 -22.25 8.3 -20.3 9.6 -18.4 10.85 -17.45 12.9 -16.95 14.1 -15.95 14.95 L-13.75 16.25 Q-11.15 17.05 -8.8 15.7 -7 14.65 -4.9 14.65 -1.85 14.65 0.4 16.65 2.6 18.7 2.9 21.7 3.05 22.95 3.65 24.1 4.3 25.25 5.35 26 6.4 26.75 7.7 27.05 9 27.3 10.25 27.05 L11.85 26.85 12.85 26.95 Q14.9 27.25 16.75 26.2 18.55 25.15 19.3 23.2 20.1 21.3 19.55 19.25 19 17.25 17.35 16 15.9 14.9 15.1 13.3 14.25 11.65 14.25 9.75 14.25 8.65 14.55 7.65 15 6 14.6 4.35 14.15 2.7 12.85 1.5 11.65 0.35 9.95 -0.05 L6.7 0.2 Q4.15 1.05 1.35 1.05 -3.4 1.05 -7.45 -1.5 -11.3 -3.95 -13.4 -8.1 -14 -9.35 -15.1 -10.2 -16.2 -11.05 -17.55 -11.35 -18.9 -11.65 -20.25 -11.35 -21.6 -11 -22.7 -10.15 -24.8 -8.45 -27.55 -8.45 L-29 -8.6 Q-31.4 -9.05 -33.45 -7.75 -35.5 -6.5 -36.1 -4.15 -36.5 -2.65 -37.75 -1.7 -39 -0.7 -40.6 -0.7 -42.5 -0.7 -43.9 -2.1 -45.25 -3.45 -45.25 -5.4 -45.25 -7.2 -44 -8.5 -42.75 -9.85 -41 -10 -38.55 -10.2 -36.95 -12 -35.3 -13.8 -35.35 -16.25 L-35.35 -16.35 Q-35.35 -19.35 -33.3 -21.55 -31.25 -23.75 -28.25 -24.05 -26.55 -24.2 -25.15 -25.25 -23.75 -26.3 -23.15 -27.9 -22.5 -29.55 -22.8 -31.2 -23.1 -32.95 -24.25 -34.25 -26.25 -36.4 -26.25 -39.35 -26.25 -42.6 -23.9 -44.9 -21.65 -47.2 -18.4 -47.2 -15.4 -47.2 -13.2 -45.2 -12.05 -44.15 -10.55 -43.8 L-7.5 -43.85 Q-6 -44.25 -4.9 -45.3 -3.75 -46.4 -3.3 -47.9 -2.5 -50.3 -0.5 -51.75 1.6 -53.3 4.15 -53.3 7.4 -53.3 9.7 -51 12 -48.75 12 -45.5 12 -43.7 11.2 -42.1 10.5 -40.55 9.15 -39.45 8 -38.5 7.4 -37.15 6.8 -35.8 6.9 -34.3 7.05 -32.8 7.8 -31.55 8.55 -30.25 9.85 -29.5 L12.15 -27.85 Q13.2 -26.9 14.6 -26.55 L17.35 -26.45 Q18.7 -26.7 19.85 -27.55 21 -28.45 21.65 -29.7 22.9 -32.25 25.4 -33.35 26.75 -33.95 27.7 -35.1 28.6 -36.25 28.9 -37.7 29.2 -39.15 28.8 -40.55 28.4 -41.95 27.4 -43.05 26.2 -44.35 26.2 -46.15 26.2 -48.05 27.55 -49.45 28.9 -50.8 30.85 -50.8 32 -50.8 33 -50.3 34 -49.75 34.65 -48.85 35.85 -47.1 37.9 -46.45 L41.9 -46.65 43.55 -46.95 Q45.45 -46.95 46.8 -45.6 48.15 -44.25 48.15 -42.35 48.15 -40.65 47.1 -39.35 46 -38.05 44.4 -37.75 L44.15 -37.7 M-53.8 -31.15 Q-51.95 -31.4 -50.5 -32.7 -49.05 -33.95 -48.65 -35.85 -48.3 -37.35 -47 -38.35 -45.75 -39.35 -44.15 -39.35 -42.2 -39.35 -40.85 -38 -39.5 -36.65 -39.5 -34.75 -39.5 -33 -40.65 -31.65 -41.8 -30.35 -43.5 -30.15 -45.4 -29.9 -46.85 -28.6 -48.25 -27.35 -48.7 -25.45 -49.05 -23.95 -50.3 -22.95 -51.6 -21.95 -53.2 -21.95 -55.1 -21.95 -56.5 -23.3 -57.85 -24.65 -57.85 -26.55 -57.85 -28.35 -56.7 -29.65 -55.55 -30.95 -53.8 -31.15"/>
  </g>
</svg>