<svg xmlns="http://www.w3.org/2000/svg" xmlns:xlink="http://www.w3.org/1999/xlink">
  <defs/>
  <g>
    <path stroke="none" fill="#FFFFFF" d="M-23.2 -23.7 Q-22.3 -24.45 -22.1 -25.6 -21.85 -26.7 -22.4 -27.75 -23.6 -30.3 -22.8 -32.95 -22 -35.7 -19.55 -37.1 -17 -38.6 -14.1 -37.85 -11.25 -37.05 -9.75 -34.5 -9 -33.15 -8.85 -31.65 -8.75 -30.75 -8.25 -30.05 L-6.85 -28.9 -5.15 -28.6 Q-4.25 -28.65 -3.5 -29.25 -1.9 -30.35 0 -30.5 1.2 -30.6 2.05 -31.45 2.95 -32.3 3.1 -33.5 3.35 -35.95 5.2 -37.75 7.05 -39.55 9.65 -39.9 L13.15 -39.6 Q14.8 -39.05 16.05 -37.95 17.1 -36.9 18.6 -37 20.05 -37.1 21 -38.3 22.2 -39.8 23.95 -40.8 27.75 -43 32 -41.85 36.25 -40.7 38.45 -36.9 39.6 -34.9 39.8 -32.65 40 -30.4 39.3 -28.35 39 -27.45 39.2 -26.5 39.45 -25.55 40.1 -24.9 40.75 -24.2 41.7 -24 L43.55 -24.05 Q47.05 -25.25 50.55 -23.9 54.05 -22.55 55.95 -19.3 58.15 -15.5 57.05 -11.25 55.9 -7 52.1 -4.8 50 -3.6 47.65 -3.45 45.35 -3.25 43.2 -4 L41 -4.05 Q39.95 -3.7 39.3 -2.8 38.65 -1.85 38.7 -0.65 38.75 0.5 39.5 1.35 L40.65 2.95 Q42.85 6.75 41.7 11 40.55 15.25 36.75 17.45 34.65 18.65 32.25 18.8 29.85 18.95 27.6 18.1 L24.95 18.25 Q23.65 18.9 23.2 20.3 22.55 22.3 21.15 23.65 19.25 25.5 16.65 25.8 14.1 26.15 12.05 24.85 11 24.2 9.75 24.35 8.6 24.55 7.75 25.45 6.1 27.25 3.55 27.6 1 27.95 -1.35 26.7 -3.45 25.6 -4.55 23.55 -5.65 21.5 -5.4 19.25 -5.3 18.45 -5.6 17.7 L-6.5 16.35 Q-7.1 15.85 -7.95 15.65 -8.7 15.45 -9.55 15.65 L-12.2 15.7 Q-13.4 15.55 -14.45 16.15 -15.5 16.75 -15.9 17.85 L-16.45 19 Q-17.1 20 -16.95 21.25 -16.75 22.4 -15.9 23.25 -15.1 23.95 -14.6 24.8 -13.3 27.1 -14 29.6 -14.7 32.2 -16.95 33.55 -18.65 34.5 -20.6 34.35 -22.45 34.25 -24 33.1 -24.65 32.65 -25.4 32.5 L-27 32.6 Q-27.8 32.9 -28.4 33.45 -29 34.05 -29.2 34.8 -29.8 36.65 -31 38.25 -32.25 39.8 -34 40.85 -37.8 43.05 -42.05 41.9 -46.25 40.75 -48.45 36.95 -50.6 33.3 -49.6 29.1 -48.6 25 -45 22.75 -44.05 22.1 -43.6 20.95 -43.25 19.8 -43.7 18.7 -44.45 16.6 -43.75 14.5 -43.5 13.7 -43.6 12.9 -43.7 12.1 -44.2 11.45 -44.65 10.8 -45.35 10.45 -46.1 10.1 -46.9 10.1 -49.65 10.05 -52.05 8.65 -54.55 7.25 -55.95 4.8 -58.15 0.95 -57 -3.25 -55.9 -7.5 -52.1 -9.7 -49.75 -11.05 -46.95 -11.15 -45.8 -11.15 -44.9 -11.8 -43.95 -12.6 -43.75 -13.7 -43.05 -16.35 -40.7 -17.7 -38.7 -18.85 -36.4 -18.45 -34.2 -18.05 -32.65 -16.35 -32.05 -15.6 -31.15 -15.35 L-29.35 -15.25 Q-28.4 -15.45 -27.75 -16.15 -27.1 -16.8 -26.85 -17.75 -26 -21.3 -23.2 -23.7"/>
  </g>
</svg>