<svg xmlns="http://www.w3.org/2000/svg" xmlns:xlink="http://www.w3.org/1999/xlink">
  <defs/>
  <g>
    <path stroke="none" fill="#FFFFFF" d="M96.95 88.65 Q98.4 90.1 100.3 90.55 L104.15 90.45 Q106.05 89.85 107.4 88.35 108.7 86.9 109.1 84.95 109.7 81.7 112.05 79.4 114.5 77 117.9 76.5 122.2 75.85 125.7 78.45 129.2 81.05 129.85 85.4 130.6 90.3 130.25 94.7 130.15 96.7 131.05 98.5 131.95 100.3 133.65 101.35 135.35 102.4 137.35 102.4 139.35 102.45 141.05 101.45 143.9 99.75 148 97.6 151.9 95.6 156.05 96.9 160.25 98.25 162.25 102.15 163.7 104.85 163.4 108 163.05 110.95 161.25 113.35 160.05 114.9 159.8 116.85 159.6 118.85 160.35 120.6 161.15 122.45 162.75 123.55 164.35 124.7 166.35 124.9 L173.95 125.75 Q178.3 126.35 180.95 129.85 183.6 133.35 182.95 137.65 182.35 142 178.85 144.65 175.35 147.25 171.05 146.65 L167.25 145.95 Q165 145.45 162.9 146.25 160.75 147.1 159.55 149.05 158.3 150.95 158.4 153.25 158.5 155.5 159.9 157.35 162.3 160.35 162.15 164.25 162 168.2 159.3 171.05 156.3 174.25 151.95 174.4 147.55 174.5 144.4 171.55 136.45 164.1 133.35 154.45 132.55 151.85 130.2 150.5 127.85 149.1 125.15 149.65 122.5 150.15 120.85 152.35 119.2 154.55 119.4 157.25 119.85 162.65 119.85 169.05 119.85 173.45 116.75 176.5 113.65 179.6 109.3 179.6 104.95 179.6 101.8 176.5 98.7 173.45 98.7 169.05 98.7 162.65 100.45 156.9 101.1 154.8 100.45 152.7 99.85 150.6 98.15 149.25 96.45 147.85 94.25 147.65 92.05 147.5 90.15 148.55 86.5 150.55 82.5 149.55 78.45 148.55 76.15 145.05 73.8 141.35 74.75 137.05 75.65 132.8 79.3 130.4 87.2 125.4 95.65 124.2 98.05 123.85 99.75 122.15 101.45 120.45 101.75 118.05 102.1 115.65 100.9 113.55 99.7 111.45 97.5 110.5 87.1 106 78.05 100.6 74.35 98.35 73.25 94.1 72.2 89.85 74.45 86.1 76.7 82.35 80.95 81.3 85.2 80.25 88.9 82.5 93.45 85.2 96.95 88.65"/>
    <path stroke="none" fill="#FFFFFF" d="M232.4 95.2 Q233.85 96.55 235.8 96.8 237.8 97.05 239.55 96.1 241.3 95.15 242.15 93.35 243.05 91.55 242.65 89.6 241.8 84.6 242.4 79.45 242.7 76.35 245.15 74.45 247.6 72.45 250.7 72.8 253.8 73.15 255.75 75.6 257.75 78.05 257.4 81.15 L255.2 100.65 Q254.9 102.8 256.05 104.6 257.2 106.4 259.2 107.2 261.2 107.9 263.2 107.25 265.25 106.6 266.45 104.8 272.75 95.45 283.2 91.35 L288.95 91.5 Q291.8 92.75 292.95 95.65 293.7 97.6 293.35 99.55 293.1 101.5 291.85 103.05 290.55 104.7 290.55 106.75 290.5 108.8 291.7 110.5 292.9 112.2 294.9 112.8 L298.8 112.7 Q303.1 111.2 307.6 110.75 310.75 110.5 313.15 112.5 315.55 114.45 315.85 117.55 316.1 120.7 314.15 123.1 312.15 125.5 309.05 125.8 L300.05 126.6 Q298.5 126.7 297.2 127.6 295.9 128.45 295.15 129.8 L294.25 131.2 Q293.2 132.35 292.9 133.95 292.6 135.5 293.05 137 293.5 138.5 294.65 139.65 295.8 140.7 297.3 141.15 305.4 143.35 311.9 149.2 314.15 151.35 314.3 154.45 314.45 157.6 312.35 159.85 310.25 162.2 307.1 162.3 304 162.45 301.7 160.35 L297.7 156.7 Q296.3 155.4 294.45 155.1 292.55 154.85 290.85 155.7 289.1 156.5 288.15 158.15 287.2 159.8 287.35 161.7 287.5 163.8 286.6 165.65 285.7 167.55 283.9 168.7 281.25 170.35 278.2 169.7 275.15 169 273.5 166.4 L269.25 159.75 Q268.05 157.8 265.8 157.15 263.6 156.45 261.5 157.45 259.4 158.4 258.4 160.5 257.45 162.55 258.1 164.8 259.65 170.1 259.5 175.9 259.4 179.05 257.1 181.2 254.85 183.35 251.7 183.25 248.6 183.1 246.45 180.85 244.3 178.6 244.4 175.45 L244.8 163.4 Q244.85 161.45 243.8 159.8 242.75 158.15 240.9 157.45 L237.2 157.15 Q235.3 157.65 234 159.1 230.7 162.85 226.35 165.55 223.7 167.25 220.65 166.55 217.6 165.85 215.95 163.2 214.25 160.6 214.95 157.55 215.65 154.5 218.3 152.8 L236.15 141.55 Q238.55 140.1 239 137.35 239.45 134.6 237.7 132.45 L236.1 130 Q234.85 127.6 232.25 126.9 229.65 126.2 227.35 127.6 215.65 134.85 202.65 132.85 199.55 132.4 197.65 129.9 195.8 127.35 196.3 124.3 196.75 121.2 199.3 119.35 201.8 117.5 204.9 117.95 L222 120.6 Q224.2 120.95 226.1 119.85 228 118.7 228.8 116.65 229.55 114.6 228.85 112.5 228.1 110.4 226.25 109.25 223.4 107.45 220.95 105.15 218.65 103 218.5 99.9 218.4 96.75 220.55 94.5 222.65 92.2 225.8 92.1 228.9 91.95 231.15 94.1 L232.4 95.2"/>
    <path stroke="none" fill="#FFFFFF" d="M373.85 95.45 Q374.55 96.6 375.75 97.2 376.95 97.8 378.3 97.65 379.6 97.55 380.7 96.8 381.75 96 382.25 94.75 L390.95 73.8 Q391.75 71.85 393.7 71 395.65 70.2 397.65 71 399.6 71.85 400.4 73.8 401.2 75.75 400.4 77.7 398 83.6 395.25 88.7 394.5 90.1 394.75 91.6 394.95 93.15 396.05 94.25 397.15 95.4 398.7 95.6 400.25 95.85 401.65 95.15 403.45 94.15 405.55 94.15 409 94.15 411.45 96.6 413.9 99.05 413.95 102.5 L413.95 102.7 Q413.9 103.95 414.5 105.1 415.1 106.2 416.2 106.9 417.25 107.55 418.55 107.55 419.8 107.6 420.9 107 L425.25 104.7 427.35 104.5 Q428.45 104.85 429 105.85 429.55 106.85 429.25 108 428.9 109.1 427.9 109.65 L420.75 113.1 Q419.8 113.5 419.1 114.25 418.4 115 418.1 116 417.8 117 417.9 118 418.05 119.05 418.55 119.9 419.8 121.9 419.8 124.25 L419.55 126.25 Q419.25 127.3 419.45 128.3 419.7 129.35 420.3 130.2 420.9 131.05 421.85 131.55 422.75 132.05 423.8 132.15 L432.4 132.75 Q433.2 132.8 433.7 133.45 434.25 134.05 434.15 134.85 434.1 135.65 433.5 136.15 432.9 136.7 432.1 136.65 L423.25 135.5 420.6 135.75 Q419.35 136.3 418.5 137.4 417.7 138.5 417.6 139.9 417.55 141.25 418.2 142.45 418.75 143.45 418.8 144.55 418.8 145.75 418.3 146.75 L416.95 148.35 Q416.15 149 415.1 149.2 413.85 149.45 412.9 150.3 411.95 151.15 411.55 152.4 410.75 154.95 408.55 156.55 406.35 158.15 403.6 158.15 401.7 158.15 400.05 157.4 398.6 156.7 397.1 157.05 395.55 157.35 394.45 158.55 393.45 159.7 393.3 161.3 393.15 162.85 394 164.2 L402.85 178.4 Q403.9 180.05 403.45 181.9 403 183.75 401.4 184.75 399.8 185.75 397.95 185.3 396.1 184.9 395.05 183.25 386.2 169.05 383.6 157.2 383.25 155.8 382.2 154.75 381.15 153.75 379.7 153.55 378.3 153.3 376.95 153.95 375.65 154.55 374.9 155.8 L373.95 157.35 Q373.25 158.55 371.85 158.7 370.1 158.85 368.9 160.1 367.65 161.35 367.55 163.1 L366.7 174.7 Q366.6 175.9 365.75 176.65 364.85 177.4 363.7 177.3 362.55 177.25 361.8 176.35 361.05 175.5 361.15 174.3 362.15 160.2 366.5 150.95 367.25 149.5 366.9 147.9 366.5 146.3 365.25 145.3 364.05 144.25 362.4 144.2 360.8 144.1 359.45 145.05 L358.6 145.55 Q357 146.25 356.2 147.8 354.7 150.7 351.95 152.45 349.05 154.3 345.65 154.3 340.8 154.3 337.35 150.8 333.85 147.35 333.85 142.45 333.85 139.2 335.55 136.4 337.15 133.7 339.9 132.15 341.35 131.4 342 129.9 342.6 128.4 342.2 126.85 341.85 125.3 340.55 124.3 339.3 123.3 337.7 123.25 336.95 123.25 336.4 122.7 335.85 122.2 335.8 121.4 335.8 120.6 336.3 120.05 336.85 119.45 337.7 119.4 L343.55 119.4 Q344.95 119.45 346.15 118.7 347.4 117.95 348 116.65 348.6 115.4 348.4 114 348.2 112.6 347.25 111.5 345.2 109.15 345.2 105.95 345.2 102.5 347.65 100.05 350.1 97.55 353.55 97.55 L356.15 98 359.2 97.95 Q360.7 97.45 361.6 96.1 362.5 94.75 362.4 93.15 362.3 91.55 361.2 90.35 L359.35 88.2 Q358.35 87.05 358.45 85.55 358.55 84.05 359.7 83.05 360.85 82.05 362.35 82.2 363.85 82.3 364.85 83.4 370.3 89.65 373.85 95.45 M397.15 102.25 Q397.2 100.7 396.3 99.4 395.45 98.1 393.95 97.6 L391 97.55 Q389.5 98.05 388.6 99.3 385.6 103.3 382.3 106.5 380.95 107.75 380.85 109.6 380.75 111.4 381.85 112.85 382.95 114.3 384.75 114.6 386.55 114.9 388.1 113.95 389.4 113.15 390.9 113.15 L391.75 113.25 Q393.3 113.5 394.75 112.8 396.2 112.05 396.9 110.65 L397.5 109.3 Q398.45 107.45 397.7 105.55 397.2 104.2 397.15 102.6 L397.15 102.25 M360.6 130.7 Q361.65 129.7 361.95 128.25 362.25 126.8 361.7 125.45 361.1 124.05 359.85 123.3 358.6 122.5 357.15 122.55 L352.45 122.7 Q350.8 122.8 349.55 123.85 348.3 124.9 348 126.55 347.65 128.15 348.4 129.6 349.15 131.05 350.65 131.8 L352.65 132.95 Q354.05 134 355.8 133.85 357.55 133.75 358.8 132.5 L360.6 130.7"/>
    <path stroke="none" fill="#FFFFFF" d="M482.75 99.85 Q483.75 101.6 485.65 102.3 L489.4 102.45 Q491.35 101.85 492.5 100.2 493.6 98.55 493.45 96.55 L493.4 95.35 Q493.4 86.95 499.4 81 505.3 75.05 513.75 75.05 522.15 75.05 528.1 81 534.1 86.95 534.1 95.35 534.1 98.5 533.15 101.45 532.75 102.7 532.95 104 533.15 105.3 533.9 106.4 534.65 107.5 535.8 108.1 536.95 108.8 538.25 108.9 545.1 109.4 550.6 113.5 556 117.55 558.45 123.8 559.05 125.35 560.3 126.3 561.65 127.3 563.25 127.45 565.75 127.7 567.4 129.5 569.1 131.4 569.1 133.9 569.1 136.55 567.25 138.45 565.35 140.3 562.7 140.35 L562.55 140.35 Q560.9 140.3 559.45 141.15 558.05 141.95 557.3 143.4 555.3 147.15 552.15 149.95 548.95 152.8 545 154.35 543.35 154.95 542.35 156.45 541.3 157.85 541.3 159.65 541.3 168.5 535 174.75 528.7 181.05 519.85 181.05 511 181.05 504.7 174.75 498.4 168.5 498.4 159.65 L498.4 159.1 Q498.45 157.1 497.25 155.5 496.05 153.9 494.1 153.4 492.15 152.9 490.3 153.7 488.45 154.55 487.55 156.35 485.4 160.45 481.55 162.9 477.5 165.4 472.75 165.4 465.9 165.4 461.05 160.55 456.15 155.65 456.15 148.8 456.15 147.6 456.3 146.5 456.5 145.25 456.15 144 455.75 142.75 454.9 141.85 453.3 140 453.3 137.55 453.3 134.9 455.2 133 457.05 131.1 459.75 131.1 461.7 131.1 463.25 132.15 464.3 132.85 465.55 133.05 L468.05 132.85 471 132.25 Q473.3 132.05 474.8 130.25 476.3 128.45 476.15 126.1 L476.05 124.85 Q476 122.6 474.45 121 472.9 119.4 470.7 119.25 465.7 118.85 462.25 115.2 458.75 111.5 458.75 106.4 458.75 101.05 462.55 97.3 466.35 93.5 471.65 93.5 475.15 93.5 478.15 95.3 481.05 96.95 482.75 99.85 M561.8 104.3 Q561.6 101.95 559.7 100.35 557.85 98.8 555.4 99.1 L554.6 99.15 Q551.3 99.15 548.95 96.85 546.65 94.5 546.65 91.25 546.65 87.95 548.95 85.65 551.3 83.3 554.6 83.3 557.85 83.3 560.2 85.65 562.5 87.95 562.5 91.25 L562.35 92.75 Q561.85 95.1 563.25 97.1 564.65 99.1 567 99.55 568.6 99.8 569.6 101.05 570.65 102.25 570.65 103.9 570.65 105.75 569.4 107.05 568.1 108.35 566.25 108.35 564.5 108.35 563.25 107.15 561.95 106 561.8 104.3"/>
    <path stroke="none" fill="#FFFFFF" d="M675.15 142.5 Q673.7 142.85 672.6 143.8 671.5 144.8 671 146.2 670.5 147.6 670.75 149.05 670.95 150.5 671.85 151.65 675.3 156.05 675.3 161.7 675.3 168.45 670.45 173.3 665.65 178.1 658.85 178.1 654.5 178.1 650.75 175.95 647.05 173.9 644.9 170.3 643.65 168.4 641.45 167.8 639.25 167.2 637.25 168.3 634.75 169.6 631.9 169.6 627.4 169.6 624.1 166.45 620.85 163.35 620.55 158.9 620.45 157.1 619.4 155.7 618.35 154.35 616.7 153.75 L613.3 153.6 Q611.65 154.05 610.45 155.4 L607.9 157.75 Q606.55 158.75 605.9 160.3 605.3 161.85 605.65 163.5 L605.75 165 Q605.75 168.65 603.2 171.15 600.65 173.75 597.05 173.75 593.4 173.75 590.85 171.15 588.3 168.65 588.3 165 588.3 163.6 588.75 162.3 589.3 160.7 588.9 159.1 588.5 157.45 587.3 156.3 585 154.05 583.75 151.15 582.45 148.15 582.45 144.8 582.45 138.2 587.15 133.5 591.85 128.8 598.45 128.8 L599.5 128.85 Q601.1 129 602.5 128.3 603.95 127.6 604.8 126.3 605.65 124.95 605.75 123.35 605.8 121.75 605.05 120.4 603.95 118.3 603.95 115.95 603.95 112.2 606.55 109.4 609.1 106.65 612.85 106.4 614.25 106.3 615.5 105.55 616.7 104.8 617.4 103.55 618.15 102.3 618.2 100.9 618.25 99.45 617.65 98.2 616.3 95.3 616.3 92.1 616.3 86.2 620.45 82 624.6 77.85 630.55 77.85 636.4 77.85 640.6 82 644.75 86.2 644.75 92.1 644.75 94.45 643.95 96.8 643.1 99.2 644.3 101.4 645.5 103.7 647.9 104.3 650.75 105 653.55 106.45 654.95 107.2 656.55 107.1 658.2 107 659.5 106.1 662.15 104.25 665 103.4 666.85 102.8 668 101.25 669.1 99.65 669.1 97.75 L669.1 97.55 Q669.1 93.95 671.65 91.4 674.2 88.9 677.8 88.9 681.4 88.9 684 91.45 686.55 94 686.55 97.6 686.55 100.05 685.25 102.15 684.25 103.8 684.4 105.75 684.6 107.65 685.9 109.1 688.4 111.85 689.8 115.25 691.2 118.85 691.2 122.75 691.2 124.7 690.8 126.6 690.45 128.4 691.2 130.05 691.9 131.75 693.45 132.65 695.35 133.85 696.45 135.75 697.6 137.75 697.6 140.1 697.6 143.7 695.05 146.25 692.5 148.8 688.9 148.8 686.65 148.8 684.7 147.75 682.8 146.7 681.6 144.9 680.6 143.4 678.95 142.7 L675.5 142.4 675.15 142.5"/>
    <path stroke="none" fill="#FFFFFF" d="M739.1 104.3 Q740.25 105.95 742.25 106.4 744.2 106.85 746 105.9 747.75 104.9 748.45 103 749.1 101.1 748.35 99.25 746.95 95.75 746.95 91.85 746.95 83.65 752.7 77.9 758.5 72.1 766.65 72.1 774.2 72.1 779.85 77.15 785.4 82.2 786.25 89.6 786.55 91.8 788.25 93.15 790 94.55 792.2 94.25 L793.5 94.05 Q794.8 93.9 795.85 93.2 796.9 92.45 797.5 91.35 799.35 87.9 802.75 85.85 806.2 83.7 810.25 83.7 816.25 83.7 820.5 87.95 824.75 92.25 824.75 98.25 824.75 102.3 822.6 105.85 821.9 106.95 821.85 108.25 821.75 109.55 822.3 110.75 824.65 116.15 824.65 122.1 824.65 129.6 821 135.95 820.2 137.35 820.3 138.9 820.4 140.45 821.3 141.75 824.1 145.55 824.1 150.3 824.1 156.3 819.85 160.55 815.65 164.8 809.65 164.8 804.55 164.8 800.6 161.65 796.7 158.55 795.55 153.75 795.15 152.2 794.05 151.15 792.9 150.05 791.35 149.75 L787.3 148.7 Q785.55 148.1 783.8 148.7 782.1 149.3 781.1 150.85 L780.7 151.45 Q779.85 152.6 779.75 154.05 779.6 155.5 780.2 156.75 781.95 160.5 781.95 164.8 781.95 172.75 776.35 178.35 770.75 184 762.8 184 754.85 184 749.25 178.35 743.6 172.75 743.6 164.8 L743.65 163.35 Q743.8 161.95 743.2 160.65 742.55 159.35 741.4 158.5 738.75 156.65 736.6 154.3 735.5 153.1 733.95 152.7 L730.85 152.9 Q728.4 153.8 725.8 153.8 719.8 153.8 715.5 149.55 711.3 145.3 711.3 139.3 711.3 135.15 713.45 131.65 715.6 128.25 719.15 126.4 L720.95 124.9 Q721.65 123.95 721.9 122.75 722.15 121.55 721.85 120.4 721.55 119.25 720.75 118.3 718.05 115.1 718.05 110.9 718.05 106.1 721.45 102.7 724.85 99.3 729.65 99.3 732.55 99.3 735.05 100.65 737.55 102 739.1 104.3"/>
    <path stroke="none" fill="#FFFFFF" d="M859.35 85.5 Q860.85 85.6 862.15 84.85 863.45 84.1 864 82.7 865.6 78.9 869 76.55 872.55 74.2 876.75 74.2 880.55 74.2 883.8 76.1 887 78 888.8 81.2 889.3 82.1 890.1 82.7 890.95 83.3 891.95 83.45 894.85 84 896.75 86.25 898.7 88.55 898.7 91.55 898.7 92.9 898.3 94.1 897.9 95.25 898.15 96.5 898.4 97.7 899.2 98.6 900.05 99.5 901.2 99.9 L903.6 100 906.25 99.75 Q911.5 99.75 915.2 103.45 918.9 107.15 918.9 112.35 918.9 115 917.85 117.4 917.25 118.85 917.6 120.35 918 121.85 919.2 122.85 920.45 123.8 922 123.8 923.5 123.8 924.75 122.9 927 121.2 929.55 120.35 932.25 119.45 935.1 119.45 942.2 119.45 947.25 124.45 952.3 129.5 952.3 136.6 952.3 143.75 947.25 148.75 942.2 153.8 935.1 153.8 L932.15 153.55 Q930.55 153.25 929.1 154.05 927.7 154.85 927.1 156.35 924.65 162.6 919.1 166.45 913.45 170.4 906.5 170.4 L905.65 170.4 Q904.2 170.35 902.95 171.2 901.75 172 901.25 173.35 899.85 177.15 896.6 179.45 893.25 181.85 889.1 181.85 883.8 181.85 880 178.05 876.2 174.25 876.2 168.9 876.2 165.4 878 162.4 878.75 161.15 878.6 159.65 878.45 158.2 877.5 157.1 876.5 156 875.1 155.65 L872.3 155.85 Q869.85 156.9 867.15 156.9 861.7 156.9 857.75 153.1 853.8 149.3 853.65 143.85 853.6 142.3 852.6 141.1 851.65 139.9 850.15 139.55 845.65 138.5 842.7 134.85 839.75 131.15 839.75 126.4 839.75 120.8 843.75 116.85 847.7 112.9 853.25 112.9 856.1 112.9 858.7 114.05 L861.95 114.2 Q863.55 113.7 864.45 112.25 865.7 110.1 867.55 108.3 868.8 107.1 868.95 105.45 869.1 103.75 868.1 102.35 867.1 101 865.45 100.6 863.8 100.2 862.3 100.95 860.6 101.85 858.6 101.85 855.2 101.85 852.8 99.45 850.4 97.05 850.4 93.65 850.4 90.25 852.8 87.85 855.2 85.45 858.6 85.45 L859.35 85.5"/>
    <path stroke="none" fill="#FFFFFF" d="M1010.55 78.85 Q1012.75 79.25 1014.8 78.45 1016.9 77.65 1018.2 75.8 1019.45 74.1 1021.35 73.15 1023.3 72.15 1025.5 72.15 1029.2 72.15 1031.8 74.8 1034.45 77.45 1034.45 81.15 1034.45 82.85 1033.85 84.45 1032.95 86.7 1033.45 89.05 1033.95 91.35 1035.75 93.05 1037.5 94.65 1039.85 95 1042.25 95.4 1044.4 94.35 1046.2 93.45 1048.3 93.45 1051.4 93.45 1053.9 95.4 1056.05 97.1 1058.8 97.1 1061.55 97.05 1063.7 95.3 1066.1 93.25 1069.4 93.25 1073.15 93.25 1075.75 95.9 1078.4 98.5 1078.4 102.25 1078.4 104.25 1077.55 106.1 1076.7 107.85 1075.2 109.1 1073.75 110.35 1073 112.2 1072.3 114 1072.55 115.95 L1072.7 118.2 1072.6 119.65 Q1072.45 121.5 1073.15 123.25 1073.85 125 1075.3 126.2 1076.75 127.45 1077.55 129.2 1078.4 131 1078.4 133 1078.4 136.75 1075.75 139.4 1073.15 142.05 1069.4 142.05 L1066.65 141.6 1062.9 141.3 Q1060.95 141.65 1059.45 142.85 1057.9 144.05 1057.15 145.85 1056.35 147.6 1056.5 149.55 L1056.55 150.05 Q1056.55 153.8 1053.9 156.4 1051.25 159.05 1047.5 159.05 1045.15 159.05 1043.15 157.9 1040.45 156.35 1037.45 157.1 1034.5 157.8 1032.8 160.4 1031.6 162.2 1029.75 163.25 1027.85 164.35 1025.65 164.45 1023.95 164.5 1022.5 165.25 1021 166 1019.95 167.3 1018.9 168.6 1018.45 170.2 1018.05 171.8 1018.3 173.4 L1018.4 174.85 Q1018.4 178.55 1015.75 181.2 1013.15 183.85 1009.4 183.85 1006.1 183.85 1003.6 181.7 1001.1 179.6 1000.55 176.4 1000.15 174.15 998.55 172.45 997 170.75 994.75 170.25 L991.65 169.2 Q990.2 168.6 988.6 168.6 987.05 168.6 985.6 169.2 983.95 169.9 982.1 169.9 978.4 169.9 975.75 167.25 973.1 164.65 973.1 160.9 L973.3 159.05 Q973.65 157.3 973.25 155.6 972.8 153.85 971.7 152.5 969.6 149.95 969.6 146.75 969.6 143.05 972.25 140.4 974.9 137.75 978.65 137.75 L979.7 137.85 983.05 137.55 Q984.7 137.05 985.95 135.85 988.5 133.6 991.5 132.3 993.8 131.25 995.05 129.1 996.35 126.95 996.1 124.4 995.85 121.9 994.15 120.05 992.5 118.15 990.05 117.6 987 116.95 985 114.55 983 112.05 982.95 108.9 L983 108.7 Q983.05 106.05 981.5 103.9 979.9 101.75 977.35 101.05 974.5 100.2 972.65 97.85 970.8 95.45 970.8 92.4 970.8 88.65 973.45 86 976.05 83.35 979.8 83.35 982.25 83.35 984.3 84.6 986.5 85.9 989 85.65 991.55 85.4 993.45 83.7 996.15 81.25 999.55 79.9 1003.05 78.55 1006.9 78.55 L1010.55 78.85"/>
    <path stroke="none" fill="#FFFFFF" d="M1130.8 90.2 Q1131.8 90.45 1132.85 90.2 1133.85 90 1134.7 89.4 L1136.05 87.85 Q1136.55 86.95 1136.65 85.9 1137.15 80.25 1141.35 76.35 1145.6 72.45 1151.4 72.45 1157.5 72.45 1161.85 76.8 1166.2 81.15 1166.2 87.3 1166.2 91.2 1164.2 94.65 1163.65 95.55 1163.55 96.65 1163.45 97.7 1163.85 98.7 1164.2 99.7 1164.95 100.45 L1166.65 101.6 Q1169.65 102.75 1171.9 105 1174.15 107.25 1175.3 110.2 1175.65 111.35 1176.6 112.1 1177.45 112.9 1178.6 113.2 L1180.95 113.25 Q1182.05 112.95 1183 112.15 1184.95 110.45 1187.4 109.5 1189.9 108.55 1192.65 108.55 1198.75 108.55 1203.1 112.9 1207.45 117.2 1207.45 123.35 1207.45 129.45 1203.1 133.8 1198.75 138.15 1192.65 138.15 L1190.15 137.95 Q1188.3 137.6 1186.75 138.6 1185.15 139.6 1184.65 141.45 1183.75 144.85 1181.35 147.5 1178.95 150.1 1175.65 151.35 1174.55 151.8 1173.75 152.7 1172.95 153.55 1172.65 154.7 1172.35 155.9 1172.65 157 1172.9 158.2 1173.7 159.1 1175.4 161.05 1176.35 163.5 1177.3 166.05 1177.3 168.75 1177.3 174.9 1172.95 179.2 1168.65 183.55 1162.5 183.55 1156.35 183.55 1152.05 179.2 1147.7 174.9 1147.7 168.75 1147.7 165.65 1148.95 162.85 1149.4 161.75 1149.35 160.55 1149.25 159.35 1148.6 158.3 1147.95 157.3 1146.9 156.7 1145.85 156.1 1144.65 156.05 L1140.85 155.6 Q1138.75 155.15 1137 156.35 1135.3 157.6 1135 159.7 1134.3 165.2 1130.15 168.9 1125.95 172.6 1120.3 172.6 1114.2 172.6 1109.85 168.25 1105.55 163.95 1105.55 157.8 1105.55 154.75 1106.7 152 1107.85 149.35 1109.95 147.3 1110.85 146.35 1111.2 145.1 1111.55 143.85 1111.2 142.55 1110.85 141.25 1109.95 140.35 1109 139.45 1107.7 139.15 1102.85 137.9 1099.75 133.95 1096.55 129.9 1096.55 124.8 1096.55 119.35 1100.1 115.2 1103.6 111.1 1108.85 110.2 1110.65 109.9 1111.8 108.5 1112.95 107.1 1112.9 105.3 L1112.9 104.6 Q1112.95 98.5 1117.25 94.2 1121.55 89.85 1127.7 89.85 L1130.8 90.2"/>
    <path stroke="none" fill="#FFFFFF" d="M99.45 231.4 Q101.15 230.45 101.8 228.65 102.45 226.85 101.8 225.05 100.55 221.45 101.85 217.8 103.15 214.2 106.55 212.2 109.65 210.45 113.2 210.9 116.7 211.3 119.25 213.8 120.15 214.75 121.5 215.1 L124.1 215.2 Q125.35 214.85 126.35 214.05 127.4 213.15 127.95 211.9 L129.2 208.85 Q131.55 203.15 137.35 200.85 143.1 198.45 148.8 200.9 154.45 203.25 156.85 209.1 159.15 214.8 156.8 220.5 153.9 227.1 149.9 232.25 148.75 233.8 148.8 235.65 148.75 237.5 150 239 151.1 240.4 152.95 240.85 154.8 241.25 156.5 240.45 160.55 238.4 165.55 236.45 170.1 234.6 174.65 236.5 179.15 238.5 181 243 182.15 245.85 181.75 248.8 181.5 251.75 179.8 254.2 178.6 256 178.9 258.15 179.25 260.25 181 261.55 182.7 262.8 183.85 264.7 186.05 268.55 184.9 272.85 183.75 277.1 179.9 279.3 177.05 281 173.8 280.65 170.6 280.4 168 278.5 167.1 277.75 166 277.5 L163.65 277.4 Q162.55 277.65 161.65 278.3 160.7 279.05 160.1 280.1 158.8 282.2 156.45 283.3 154 284.35 151.45 283.8 143.5 281.95 137.85 276.85 136.35 275.45 134.35 275.45 132.3 275.45 130.7 276.8 129.2 278.15 128.9 280.2 128.7 282.15 129.85 283.85 132.3 287.4 134.55 291.4 136.2 294.2 135.35 297.35 134.5 300.6 131.7 302.15 128.8 303.8 125.7 302.95 122.45 302.1 120.85 299.3 118.1 294.5 117.2 289.65 116.8 287.75 115.5 286.6 114.15 285.4 112.4 285.2 110.6 285.05 109.1 286 107.55 286.95 106.95 288.6 103.8 296.6 99.65 304.7 97.05 309.85 91.5 311.65 86 313.4 80.85 310.75 75.75 308.1 74.05 302.65 72.2 297.2 74.9 292.05 L76.2 289.65 Q77.2 287.8 76.8 285.85 76.4 283.85 74.8 282.7 73.2 281.4 72.1 279.5 70.2 276.2 70.85 272.35 71.5 268.65 74.45 266.15 75.95 264.8 76.2 262.8 76.5 260.75 75.35 259.05 74 257.05 74 254.55 74.05 251.3 76.4 248.95 78.8 246.65 82.05 246.75 86.2 246.85 89.6 247.75 91 248.15 92.5 247.75 93.95 247.3 94.95 246.3 95.9 245.15 96.25 243.7 96.55 242.2 96 240.8 95.25 238.5 95.95 236.1 96.65 233.6 98.55 232.05 L99.45 231.4"/>
    <path stroke="none" fill="#FFFFFF" d="M207.85 224.85 Q209.6 224.7 211 223.7 212.45 222.75 213.15 221.15 213.85 219.6 213.7 217.9 213.5 216.15 212.5 214.8 L211.2 212.85 Q210.35 211.45 210.75 209.9 211.1 208.35 212.5 207.55 213.85 206.7 215.4 207.1 216.95 207.45 217.8 208.8 L224.55 220 Q225.65 221.75 227.55 222.55 L231.45 222.85 Q233.45 222.4 234.75 220.8 236.1 219.25 236.25 217.2 236.4 215.05 237.75 213.35 239.15 211.65 241.3 211.05 244.05 210.35 246.5 211.75 248.95 213.15 249.65 215.9 L252 224.85 Q252.4 226.35 253.45 227.5 254.5 228.6 255.95 229.15 L258.95 229.5 Q260.45 229.3 261.75 228.4 264.15 226.7 267.05 225.55 L270.05 225.65 Q271.5 226.3 272.1 227.8 L272.15 227.95 Q272.75 229.9 274.4 231.15 276.1 232.35 278.15 232.4 280.2 232.4 281.85 231.2 283.5 230 284.15 228.05 286.1 222.15 290.75 217.8 291.9 216.7 293.5 216.8 295.1 216.85 296.2 218 297.3 219.15 297.25 220.75 297.2 222.35 296.05 223.45 L290.15 228.9 Q289.15 229.85 288.65 231.05 288.1 232.3 288.15 233.65 288.2 235 288.75 236.2 289.3 237.4 290.3 238.3 291.65 239.45 292.45 240.95 293.25 242.55 293.45 244.35 293.65 246.65 292.75 248.8 291.95 250.6 292.35 252.55 292.8 254.55 294.2 255.9 295.65 257.25 297.65 257.5 299.6 257.8 301.4 256.9 305.9 254.6 311.1 254.3 312.7 254.2 313.9 255.25 315.1 256.3 315.2 257.95 315.3 259.55 314.2 260.75 313.15 261.95 311.55 262 L297.5 262.8 Q295.95 262.9 294.6 263.7 293.25 264.5 292.45 265.85 291.65 267.2 291.55 268.8 291.45 270.35 292.15 271.75 293.25 274.2 292.9 276.85 292.5 279.6 290.65 281.6 288.6 283.85 285.65 284.35 282.75 284.9 280.1 283.6 278.15 282.7 276 283.15 273.85 283.6 272.5 285.3 271.1 287 271.05 289.2 271.05 291.4 272.35 293.1 L274.1 295.65 Q274.9 297.05 274.5 298.6 274.1 300.15 272.75 300.95 271.35 301.8 269.8 301.4 268.25 301 267.4 299.65 L261.15 288.95 Q260.15 287.25 258.35 286.4 256.55 285.6 254.6 285.95 252.65 286.3 251.25 287.7 249.85 289.1 249.5 291.05 248.8 294.95 247.45 298.65 246.05 302.4 242.4 304.1 238.7 305.8 234.95 304.4 232.5 303.45 230.85 301.45 229.25 299.45 228.8 296.95 228.45 295.1 227.1 293.7 225.75 292.3 223.9 291.9 222 291.55 220.2 292.25 218.45 292.95 217.35 294.55 213.75 299.85 208 302.75 L205.05 302.95 Q203.55 302.45 202.8 301.05 202.1 299.6 202.6 298.1 203.1 296.55 204.55 295.85 L218.7 288.75 Q220.25 288 221.2 286.55 222.1 285.1 222.2 283.4 222.25 281.65 221.45 280.15 220.6 278.6 219.15 277.75 L217.85 276.5 Q217 275.15 217.35 273.55 217.7 271.95 219.05 271.1 L228.55 265.15 Q230.6 263.85 231.25 261.45 231.9 259.05 230.75 256.85 229.6 254.7 227.25 253.9 L222.7 254.05 Q213.25 258.15 203.2 256.6 200.15 256.1 198.35 253.65 196.5 251.2 196.95 248.15 197.3 245.9 198.85 244.25 200.4 242.6 202.55 242.05 204.2 241.65 205.45 240.45 206.65 239.25 207.1 237.6 207.6 235.95 207.1 234.3 206.65 232.65 205.45 231.45 204.45 230.5 204.3 229.1 204.15 227.65 204.95 226.5 205.5 225.75 206.25 225.3 207 224.9 207.85 224.85"/>
    <path stroke="none" fill="#FFFFFF" d="M345.4 224.1 Q347.5 225.05 349.7 224.55 351.95 224 353.4 222.2 354.85 220.45 354.95 218.2 355.05 215.95 353.75 214.05 L352.4 211.95 Q351.5 210.35 351.95 208.6 352.4 206.8 354 205.85 355.6 204.95 357.4 205.4 359.15 205.85 360.1 207.45 363.15 212.7 365.2 220.2 365.85 222.8 368.15 224.25 370.45 225.65 373.1 225.1 375.75 224.6 377.3 222.35 378.85 220.2 378.5 217.5 377.95 213.4 377.95 212 377.95 209.85 379.5 208.3 381 206.75 383.15 206.75 385.3 206.75 386.85 208.3 388.4 209.85 388.4 212 L387.9 217.1 Q387.55 219.6 388.95 221.75 390.35 223.9 392.85 224.55 395.3 225.25 397.6 224.1 399.9 223 400.9 220.7 L401.7 219 Q402.5 217.3 404.25 216.75 L407.65 216.95 Q409.05 217.7 409.7 219.15 410.35 220.55 409.95 222.1 409.4 224.25 410.2 226.25 411 228.35 412.85 229.5 414.7 230.7 416.9 230.6 419.15 230.45 420.8 229.05 425.9 224.95 427.95 223.75 429.85 222.7 431.9 223.25 434 223.85 435.05 225.7 436.15 227.55 435.6 229.65 435.05 231.75 433.2 232.8 429.85 234.7 416.45 239.45 414.1 240.3 412.85 242.45 411.6 244.6 412.05 247.05 412.5 249.5 414.4 251.1 416.35 252.7 418.85 252.65 L423.4 252.85 Q425.2 253 426.4 254.45 427.6 255.85 427.4 257.65 427.25 259.5 425.85 260.65 424.4 261.8 422.6 261.65 L421.65 261.6 Q419.8 261.4 418.1 262.15 416.35 262.9 415.3 264.45 414.2 266 414.1 267.9 413.95 269.75 414.8 271.45 415.3 272.3 414.8 273.15 414.45 273.7 414 273.9 411.45 275 410.4 277.7 409.45 280.4 410.6 282.95 411.15 284.1 411 285.35 410.85 286.65 410 287.65 408.8 289.05 407 289.2 405.15 289.35 403.75 288.2 L401.55 286.2 Q399.95 284.65 397.8 284.3 395.65 284 393.65 285 391.7 286 390.75 287.95 389.75 289.9 390.05 292.1 390.9 297.6 390.9 299.9 390.9 302.75 388.9 304.75 386.9 306.75 384 306.75 381.2 306.75 379.2 304.75 377.15 302.8 377.15 299.9 L377.3 297.75 Q377.45 295.8 376.6 294.1 375.7 292.35 374.1 291.35 372.45 290.35 370.5 290.35 368.55 290.35 366.9 291.35 365.65 292.15 364.1 292 362.55 291.8 361.45 290.7 360.4 289.65 360.25 288.25 360 286.5 358.9 285.1 357.85 283.65 356.2 282.95 354.6 282.2 352.8 282.45 351.05 282.6 349.6 283.6 L347.75 284.8 Q345.3 286.25 342.55 285.5 339.8 284.75 338.35 282.3 336.95 279.85 337.7 277.1 338.45 274.35 340.85 272.9 342.65 271.85 347.25 270.05 349.55 269.15 350.75 266.9 351.9 264.65 351.35 262.2 350.8 259.75 348.75 258.25 346.7 256.75 344.2 256.95 L342.7 257.05 Q340.85 257.1 339.5 255.85 338.15 254.6 338.1 252.8 338 251.4 338.8 250.2 340.4 247.8 339.75 245 339.2 242.2 336.7 240.7 333.45 238.7 332.55 235 331.65 231.25 333.6 227.95 335.4 224.9 338.8 223.8 342.2 222.7 345.4 224.1"/>
    <path stroke="none" fill="#FFFFFF" d="M485.55 232 Q486.85 232.75 488.4 232.65 489.9 232.5 491.05 231.5 492.2 230.5 492.55 229.05 492.9 227.55 492.3 226.15 490.85 222.65 490.85 218.7 490.85 210.65 496.5 204.95 502.2 199.3 510.25 199.3 518.3 199.3 524 204.95 529.65 210.65 529.65 218.7 L529.6 220.55 Q529.45 221.85 530.05 223.1 530.65 224.3 531.8 225 532.95 225.75 534.3 225.7 535.65 225.65 536.8 224.95 541.6 221.85 547.3 221.85 555.35 221.85 561.05 227.5 566.75 233.2 566.75 241.25 566.75 245.45 565 249.3 563.3 253 560.3 255.7 559.1 256.8 558.8 258.35 558.5 259.95 559.25 261.35 560.85 264.35 560.85 267.75 560.85 273.45 556.85 277.45 552.8 281.5 547.15 281.5 L546.75 281.5 Q545.6 281.5 544.55 282 543.5 282.5 542.8 283.45 542.15 284.35 542 285.55 541.85 286.65 542.2 287.8 543 290 543 292.4 543 298.1 539 302.15 534.95 306.15 529.25 306.15 526.2 306.15 523.45 304.9 520.85 303.7 518.9 301.5 518.05 300.55 516.85 300.1 L514.4 299.95 Q513.15 300.25 512.25 301.05 511.3 301.95 510.9 303.15 509.6 307.4 506 310 502.35 312.75 497.8 312.75 492.1 312.75 488.05 308.7 484.05 304.65 484.05 298.95 484.05 297.25 484.45 295.6 484.75 294.4 484.4 293.25 484.1 292.1 483.25 291.2 482.4 290.35 481.25 290 L478.85 289.9 475.95 290.2 Q470.25 290.2 466.25 286.2 462.2 282.15 462.2 276.45 462.2 272.15 464.65 268.6 465.7 267.1 465.5 265.3 465.25 263.5 463.85 262.3 460.75 259.7 459.05 256 457.25 252.25 457.25 248.05 457.25 240.3 462.75 234.85 468.2 229.35 475.95 229.35 481.2 229.35 485.55 232"/>
    <path stroke="none" fill="#FFFFFF" d="M602.45 236.7 Q603.5 235.7 603.55 234.25 603.6 232.8 602.7 231.75 600.85 229.6 599.85 227 598.85 224.3 598.85 221.4 598.85 214.8 603.5 210.1 608.2 205.45 614.8 205.45 618.3 205.45 621.45 206.9 624.5 208.3 626.7 210.85 627.55 211.85 628.85 212.05 630.15 212.25 631.3 211.55 634.85 209.4 639 209.4 645.2 209.4 649.6 213.8 653.95 218.2 653.95 224.4 L653.9 225.8 Q653.8 226.85 654.25 227.8 654.75 228.75 655.65 229.3 656.55 229.85 657.55 229.8 658.6 229.8 659.5 229.2 663.2 226.8 667.6 226.8 673.8 226.8 678.2 231.2 682.6 235.6 682.6 241.8 682.6 245.95 680.5 249.45 680 250.3 680 251.3 680 252.25 680.5 253.1 681 254 681.85 254.45 682.7 254.95 683.7 254.9 L684.3 254.9 Q688.7 254.95 691.8 258.05 694.9 261.15 694.9 265.5 694.9 269.9 691.8 273 688.65 276.15 684.25 276.15 681.95 276.15 679.85 275.2 677.85 274.3 676.35 272.65 675.55 271.7 674.35 271.5 673.1 271.25 672.05 271.85 L671.5 272.05 Q670.7 272.45 670.1 273.2 669.55 273.95 669.45 274.9 669.3 275.85 669.7 276.7 670 277.6 670.75 278.2 673.5 280.4 675.1 283.6 676.7 286.9 676.7 290.6 676.7 297.15 672.05 301.85 667.35 306.5 660.8 306.5 654.9 306.5 650.45 302.7 646 298.9 645.1 293.2 644.9 292.1 644.1 291.25 643.3 290.45 642.2 290.25 L640.05 290.45 Q639 290.95 638.45 291.9 637 294.25 634.65 295.55 632.2 296.95 629.35 296.95 626 296.95 623.2 295 620.5 293.05 619.35 289.95 619.05 289.05 618.3 288.4 617.55 287.75 616.6 287.6 L614.75 287.75 Q613.8 288.1 613.2 288.85 610.95 291.5 607.85 293 604.6 294.55 601 294.55 594.4 294.55 589.75 289.9 585.1 285.2 585.1 278.6 585.1 272.45 589.25 267.9 593.4 263.35 599.45 262.75 600.5 262.7 601.35 262.05 602.15 261.45 602.5 260.5 602.9 259.5 602.7 258.5 602.5 257.5 601.8 256.75 600.05 254.8 599.05 252.35 598.1 249.8 598.1 247.05 598.1 244.05 599.25 241.35 600.4 238.7 602.45 236.7"/>
    <path stroke="none" fill="#FFFFFF" d="M743.95 208.6 Q746.6 210.15 749.5 209.1 752.35 208.05 753.45 205.15 754.4 202.7 756.5 201.1 758.75 199.55 761.45 199.55 764.95 199.55 767.4 202 769.95 204.45 769.95 207.95 L769.95 209 Q769.75 211.9 771.85 214 773.9 216.05 776.85 215.95 L777.4 215.9 Q781 216 783.55 218.55 786.1 221.15 786.1 224.7 786.1 226.5 785.35 228.2 784.65 229.8 784.85 231.7 785.15 233.45 786.3 234.9 787.4 236.35 789.15 237 L792.7 237.25 794.3 237.1 794.55 237.1 Q797.7 237.3 799.8 234.9 801.85 232.55 801.4 229.45 L801.3 228.2 Q801.3 223.85 804.4 220.75 807.5 217.65 811.9 217.65 816.25 217.65 819.35 220.75 822.45 223.85 822.45 228.2 822.45 232.55 819.4 235.65 816.35 238.75 812.05 238.8 L811.75 238.75 Q808.6 238.65 806.5 241 805.5 242.05 805.1 243.5 804.7 244.95 804.9 246.4 L805 248 Q804.85 250.7 806.65 252.7 808.4 254.75 811.1 254.9 814.45 255.1 816.75 257.55 819 260.05 819 263.4 819 266.15 817.4 268.35 815.85 270.5 813.35 271.45 811.9 271.95 810.8 273.05 809.7 274.15 809.2 275.65 808.75 277.15 809.05 278.7 809.25 280.25 810.2 281.5 811.75 283.7 811.75 286.45 811.75 289.95 809.3 292.45 806.8 294.95 803.25 294.95 800.55 294.95 798.4 293.45 796.25 291.95 795.3 289.5 794.4 287.05 791.8 285.85 789.2 284.8 786.75 285.8 785 286.5 782.95 286.5 778.65 286.5 775.6 283.6 774.25 282.25 772.35 281.85 770.45 281.5 768.65 282.2 766.85 282.95 765.7 284.5 764.55 286.05 764.5 288 L764.45 288.55 764.4 288.7 Q764.05 291.05 765.3 293.05 766.45 295.1 768.7 295.9 771.15 296.8 772.7 298.95 774.3 301.15 774.3 303.9 774.3 307.4 771.75 309.9 769.25 312.4 765.75 312.4 762.3 312.4 759.75 310 757.3 307.6 757.2 304.1 757.15 301.85 755.65 300.1 754.15 298.3 751.9 297.85 L750.45 297.45 746.9 297.15 Q745.1 297.5 743.7 298.7 741.35 300.9 738.1 300.9 734.55 300.9 732.05 298.4 729.55 295.9 729.55 292.35 729.55 289.35 731.35 287.05 733.2 284.75 736 284.1 738.3 283.55 739.7 281.7 741.15 279.85 741.05 277.5 741 275.1 739.45 273.35 737.95 271.6 735.6 271.2 732.35 270.65 730.05 268.3 727.7 265.95 727.1 262.7 726.75 260.55 725.1 259.05 723.45 257.5 721.25 257.3 717.95 257 715.75 254.6 713.55 252.15 713.55 248.85 713.55 245.3 716 242.8 718.55 240.3 722.05 240.3 724.6 240.3 726.7 241.65 729.05 243.25 731.9 242.55 734.75 241.9 736.1 239.3 737 237.65 738.6 236.3 740 235.05 740.65 233.25 741.2 231.45 740.75 229.6 L740.65 229.45 740.65 229 Q740.35 227.3 739.25 225.95 738.15 224.5 736.55 223.9 734.15 222.95 732.65 220.8 731.2 218.65 731.2 216 731.2 212.5 733.7 209.95 736.2 207.45 739.7 207.45 741.95 207.45 743.95 208.6"/>
    <path stroke="none" fill="#FFFFFF" d="M884.15 211.8 Q885.45 214 887.7 215.2 890 216.35 892.6 216.1 895.15 215.85 897.15 214.2 899.1 212.6 899.9 210.1 901.05 206.55 904.05 204.35 907.1 202.1 910.9 202.1 915.65 202.1 919.05 205.5 922.45 208.85 922.45 213.65 922.45 216 921.5 218.2 920.55 220.35 920.85 222.8 921.2 225.15 922.7 227.05 924.2 228.9 926.45 229.75 L931.1 230.1 933.4 229.9 Q939.15 229.9 943.2 233.95 947.25 238 947.25 243.75 947.25 249.2 943.6 253.15 939.9 257.15 934.55 257.55 932.1 257.8 930.15 259.2 928.2 260.65 927.25 262.9 926.35 265.2 926.75 267.6 927.15 270 928.75 271.85 932.15 275.75 932.15 280.9 932.15 286.65 928.1 290.7 924.05 294.8 918.3 294.8 912.75 294.8 908.7 290.9 906.9 289.15 904.4 288.65 901.9 288.15 899.55 289.1 897.2 290.05 895.7 292.1 894.2 294.2 894.1 296.75 893.85 302.25 889.85 306.05 885.8 309.9 880.25 309.9 874.5 309.9 870.45 305.85 866.4 301.75 866.4 296 866.4 291.8 868.8 288.2 870.3 286.05 870.35 283.5 870.4 280.9 869 278.7 867.6 276.5 865.25 275.45 862.9 274.4 860.35 274.8 L858.7 274.9 Q852.95 274.9 848.85 270.85 844.8 266.8 844.8 261.05 844.8 257.4 846.6 254.25 848.35 251.2 851.3 249.35 853.45 248 854.5 245.7 855.6 243.4 855.25 240.9 L855.15 239.45 Q855.15 236.35 856.5 233.5 857.8 230.8 860.1 228.85 862 227.25 862.8 224.85 863.55 222.5 862.95 220.1 862.65 218.9 862.65 217.55 862.65 212.75 866.05 209.4 869.4 206 874.2 206 877.35 206 880.05 207.6 882.65 209.15 884.15 211.8"/>
    <path stroke="none" fill="#FFFFFF" d="M1000.75 209.65 Q1002.6 211.05 1004.85 211.55 1007.1 212.05 1009.4 211.6 1011.6 211.2 1013.55 209.9 1015.45 208.55 1016.65 206.6 1017.3 205.55 1018.4 204.9 1019.55 204.25 1020.8 204.25 1022.8 204.25 1024.3 205.7 1025.75 207.1 1025.75 209.1 L1025.75 209.2 Q1025.65 212.9 1027.85 215.95 1030.05 218.95 1033.65 220 1037.25 221.05 1040.75 219.65 1044.2 218.3 1046.1 215.1 1046.8 214 1047.9 213.35 1049.05 212.7 1050.35 212.7 1052.35 212.7 1053.8 214.1 1055.25 215.5 1055.25 217.5 1055.3 220.35 1056.75 222.8 1058.2 225.25 1060.65 226.65 1063.1 228.1 1065.95 228.2 1068.75 228.25 1071.3 226.95 1072.35 226.4 1073.55 226.4 1075.6 226.4 1077 227.85 1078.45 229.3 1078.45 231.35 1078.45 232.9 1077.55 234.2 1076.7 235.45 1075.25 235.95 1071.6 237.3 1069.6 240.65 1067.6 244 1068.2 247.9 1068.75 251.75 1071.65 254.35 1074.55 257 1078.45 257.2 1080.4 257.3 1081.75 258.7 1083.1 260.15 1083.1 262.1 1083.1 264.15 1081.65 265.6 1080.2 267.05 1078.15 267.05 1076.9 267.05 1075.7 266.35 1073.6 265.1 1071.05 264.9 1068.55 264.75 1066.2 265.65 L1064.9 265.95 Q1061.85 266.2 1059.4 267.9 1056.9 269.65 1055.65 272.4 1054.45 275.15 1054.8 278.2 1055.15 281.2 1057 283.6 1057.85 284.7 1058 286.05 1058.4 290.2 1061.4 293.05 1064.45 295.9 1068.6 295.95 1070.6 296 1072 297.45 1073.4 298.9 1073.4 300.9 1073.4 302.95 1071.95 304.35 1070.5 305.8 1068.5 305.8 1066.55 305.8 1065.15 304.55 1063.75 303.25 1063.55 301.4 1063.2 297.25 1060.15 294.4 1057.1 291.6 1052.95 291.5 1051.3 291.4 1050.15 290.5 1047.8 288.75 1044.9 288.35 1042 288 1039.3 289.1 1036.6 290.25 1034.85 292.6 1033.05 294.85 1032.65 297.8 1032.4 299.6 1031 300.8 1029.65 302 1027.8 302 1026.4 302 1025.25 301.3 1024.1 300.6 1023.45 299.45 1021.75 296.3 1018.5 294.8 1015.3 293.25 1011.75 293.9 1008.25 294.6 1005.8 297.2 1003.35 299.85 1002.95 303.4 1002.75 305.2 1001.35 306.45 999.95 307.7 998.05 307.7 996.05 307.7 994.6 306.25 993.15 304.85 993.15 302.8 993.15 301.2 994.05 300 995.7 297.65 996 294.75 996.25 291.85 995.05 289.2 993.85 286.55 991.5 284.85 989.15 283.15 986.3 282.8 984.45 282.6 983.2 281.2 981.95 279.8 981.95 277.9 981.95 275.7 983.65 274.2 985.45 272.65 986.45 270.5 987.45 268.4 987.45 266 987.5 263.65 986.55 261.5 985.6 259.35 983.85 257.75 982.15 256.3 982.15 254.1 982.15 252.95 982.75 251.8 984.25 249 984 245.8 983.75 242.65 981.85 240.1 979.9 237.55 976.9 236.4 973.95 235.3 970.8 235.95 L969.8 236.05 Q967.75 236.05 966.35 234.6 964.9 233.15 964.9 231.1 964.9 229.1 966.35 227.65 967.75 226.2 969.8 226.2 971.45 226.2 972.8 227.2 975.55 229.3 978.95 229.5 982.45 229.65 985.35 227.75 L986.2 227.35 Q990.05 225.9 992 222.3 993.95 218.65 993.05 214.65 L992.95 213.6 Q992.95 211.6 994.35 210.15 995.8 208.7 997.85 208.7 999.45 208.7 1000.75 209.65"/>
    <path stroke="none" fill="#FFFFFF" d="M1175.6 275.85 Q1173.05 275.15 1170.85 276.65 1168.65 278.2 1168.25 280.8 1167.9 283.6 1166.35 285.95 1164.9 288.3 1162.6 289.8 1160.8 291 1160.15 293.05 1159.55 295.05 1160.35 297.05 1161.25 299.25 1161.25 301.75 1161.25 307.1 1157.45 310.9 1153.7 314.65 1148.35 314.65 1143 314.65 1139.2 310.9 1135.4 307.1 1135.4 301.75 1135.4 299.85 1135.95 298.1 1136.75 295.35 1135.15 293.05 1133.6 290.65 1130.7 290.45 L1129 290.25 Q1127.05 289.9 1125.3 290.9 1123.5 291.8 1122.7 293.65 1121.1 297.05 1118 299.1 1114.8 301.2 1110.95 301.2 1105.6 301.2 1101.8 297.45 1098.05 293.65 1098.05 288.3 1098.05 283.2 1101.55 279.45 1105.05 275.75 1110.1 275.4 1112.1 275.25 1113.7 273.9 1115.2 272.55 1115.6 270.55 1115.95 268.55 1115.05 266.75 1114.1 264.9 1112.25 264.05 1108.95 262.45 1106.95 259.4 1104.9 256.25 1104.9 252.45 1104.9 249.35 1106.3 246.6 1107.6 244 1110 242.2 1111.2 241.25 1111.85 239.85 1112.45 238.35 1112.3 236.8 1112.15 235.25 1111.25 234 1110.35 232.75 1108.95 232.05 1105.65 230.45 1103.7 227.35 1101.65 224.2 1101.65 220.4 1101.65 215.1 1105.4 211.25 1109.2 207.5 1114.55 207.5 1118.1 207.5 1121.1 209.35 1124.05 211.05 1125.75 214.05 1126.45 215.3 1127.65 216.1 1128.85 216.9 1130.25 217.05 1133.25 217.35 1135.35 215.2 1137.1 213.3 1139.5 212.2 1141.95 211.15 1144.65 211.1 L1145.25 211.1 Q1147.3 211.15 1148.95 209.9 1150.6 208.7 1151.15 206.75 1152.3 202.6 1155.75 200 1159.2 197.35 1163.55 197.35 1168.95 197.35 1172.7 201.15 1176.45 204.95 1176.45 210.25 1176.45 213.75 1174.75 216.7 1173.1 219.6 1170.2 221.3 1168.95 222.05 1168.15 223.35 1167.35 224.65 1167.3 226.1 1167.2 227.6 1167.8 229 1168.5 230.35 1169.7 231.25 L1170.3 231.7 Q1172.2 233.1 1174.55 232.85 1176.95 232.55 1178.45 230.7 1180.3 228.55 1182.8 227.3 1185.45 226.05 1188.4 226.05 1193.75 226.05 1197.5 229.8 1201.3 233.65 1201.3 238.95 1201.3 242.9 1199.1 246.15 1196.95 249.35 1193.45 250.85 1191.25 251.75 1190.3 253.95 1189.4 256.15 1190.2 258.4 L1190.45 259.1 Q1191 260.65 1192.3 261.65 1193.55 262.7 1195.15 262.95 1199.8 263.7 1202.9 267.3 1206 270.9 1206 275.7 1206 281 1202.25 284.8 1198.4 288.6 1193.1 288.6 1188.9 288.6 1185.55 286.15 1182.2 283.7 1180.9 279.9 1180.35 278.3 1179.05 277.2 1177.8 276.15 1176.15 275.9 L1175.6 275.85"/>
    <path stroke="none" fill="#FFFFFF" d="M95.55 355.15 L98.9 355.45 Q100.6 355.1 101.75 353.75 102.9 352.4 103.05 350.7 103.15 348.95 102.25 347.45 L101.95 347.05 Q99.6 343.25 100.65 338.9 101.7 334.55 105.5 332.15 109.3 329.8 113.65 330.85 118.05 331.85 120.4 335.7 124.6 342.5 127.45 347.95 128.25 349.5 129.85 350.25 131.4 351 133.1 350.7 134.8 350.35 136 349.1 137.2 347.8 137.4 346.1 137.6 344.4 138.9 343.25 140.15 342.1 141.9 342.05 143.6 342.05 144.95 343.15 146.25 344.25 146.55 345.9 146.8 347.4 147.8 348.55 148.85 349.7 150.3 350.1 151.8 350.55 153.3 350.1 154.75 349.65 155.75 348.55 L157.85 346.25 Q160.25 343.7 163.75 343.6 167.3 343.5 169.85 345.95 172.4 348.35 172.45 351.9 172.55 355.4 170.1 357.9 L162.2 366.25 Q161.1 367.4 160.8 368.95 160.5 370.45 161.1 371.95 161.7 373.4 162.95 374.3 164.25 375.2 165.8 375.25 171.6 375.45 178.35 377.15 181.35 377.85 182.95 380.5 184.5 383.15 183.75 386.15 183 389.1 180.35 390.7 177.75 392.3 174.75 391.55 L158.95 387.55 Q157.05 387.05 155.3 387.95 153.55 388.8 152.8 390.6 152 392.4 152.55 394.25 153.15 396.15 154.8 397.2 162.65 402.2 169.3 413.7 170.85 416.35 170.05 419.35 169.25 422.35 166.55 423.85 163.9 425.4 160.95 424.6 158 423.8 156.45 421.15 L155.35 419.3 Q154.45 417.65 152.7 417 L149.15 416.85 Q147.4 417.45 146.35 419 145.3 420.55 145.45 422.4 145.8 426.25 145.65 430.25 145.6 433.35 143.35 435.45 141.1 437.55 138.05 437.45 134.95 437.4 132.85 435.15 130.75 432.9 130.85 429.85 L131.4 411.45 Q131.4 409.6 130.35 408.15 129.25 406.65 127.5 406.15 L124 406.35 Q122.35 407.1 121.45 408.65 117.25 416.15 107.75 423.35 105.35 425.2 102.3 424.8 99.25 424.35 97.35 421.9 95.9 420 95.85 417.55 95.8 415.2 97.15 413.25 98.15 411.8 98.1 410.1 98.05 408.4 97 407 95.95 405.65 94.3 405.15 92.7 404.65 91.05 405.2 L86.05 406.85 Q81.75 408.15 77.8 406.05 73.85 403.95 72.55 399.65 71.25 395.4 73.35 391.4 75.45 387.45 79.7 386.15 88 383.65 93.95 382.3 95.55 381.9 96.65 380.7 97.8 379.45 98 377.85 98.25 376.2 97.5 374.7 96.75 373.25 95.3 372.45 91.85 370.6 88.2 367.95 85.7 366.15 85.2 363.1 84.75 360.05 86.55 357.55 88.1 355.4 90.65 354.75 93.2 354.05 95.55 355.15"/>
    <path stroke="none" fill="#FFFFFF" d="M272.2 360.6 L273.7 360.35 273.75 360.35 Q275 359.85 275.7 358.7 277.25 356.3 279.15 354.2 280.3 352.9 282.1 352.8 283.9 352.7 285.2 353.9 286.5 355.05 286.55 356.8 286.65 358.55 285.5 359.9 L284.05 361.45 Q283.1 362.55 283 363.95 282.9 365.35 283.7 366.55 284.55 367.7 285.9 368.15 L288.55 368.05 290.7 367.75 Q291.8 367.85 292.75 368.4 293.9 369.05 295.3 368.9 296.65 368.65 297.65 367.75 303.25 362.15 311.45 358.25 L313.25 358.2 Q314.25 358.55 314.65 359.4 315.1 360.3 314.75 361.25 314.45 362.2 313.5 362.6 L297.55 370.15 296 371.45 Q295.4 372.3 295.25 373.35 295.15 374.6 294.35 375.6 293.65 376.7 292.45 377.25 L287.1 379.8 Q286.15 380.25 285.55 381.1 284.95 381.95 284.8 383 284.55 384.7 283.35 385.9 282.45 386.75 282.15 387.9 281.9 389.15 282.35 390.3 282.8 391.45 283.8 392.15 284.8 392.9 286 392.9 295 393.2 304.4 397 305.5 397.5 305.95 398.6 306.4 399.7 306 400.8 305.55 401.9 304.4 402.4 L302.25 402.35 292.25 398.35 289.7 398.15 Q288.45 398.45 287.6 399.45 286.75 400.45 286.6 401.75 286.5 403.05 287.15 404.15 287.9 405.5 287.85 406.95 287.7 408.5 286.8 409.7 285.55 411.35 283.5 411.65 281.5 411.9 279.8 410.65 L275.65 407.55 Q274.45 406.6 272.95 406.7 271.4 406.8 270.3 407.9 269.2 408.95 269.1 410.5 269 412 269.9 413.25 272.1 416.2 273.3 419.85 274 421.75 273.1 423.65 272.15 425.5 270.2 426.15 L266.35 425.9 Q264.55 425 263.85 423.05 L261.35 415.45 Q260.95 414.25 259.85 413.5 258.8 412.7 257.5 412.65 256.25 412.6 255.15 413.35 254.1 414.1 253.65 415.3 252.45 418.3 250.35 421.05 249.35 422.4 247.75 422.85 L244.65 422.75 241.5 422.9 Q239.95 423.6 239.35 425.2 237.6 430.1 234.25 434.45 233.15 435.8 231.4 436.05 229.6 436.25 228.25 435.15 226.85 434.1 226.6 432.35 226.45 430.6 227.5 429.2 L237.7 416.25 Q238.45 415.2 238.5 413.95 238.6 412.75 238 411.65 237.4 410.6 236.3 410.05 235.15 409.5 233.9 409.6 L230.75 409.4 Q229.15 409.1 227.85 408.15 227.1 407.7 226.2 407.55 L224.45 407.65 Q223.55 407.95 222.85 408.55 222.2 409.15 221.8 410 217.9 419.2 209 424.8 207.5 425.7 205.8 425.3 204.1 424.95 203.15 423.45 202.25 422 202.65 420.25 203 418.5 204.5 417.55 L222.15 406.6 Q223.25 405.9 223.75 404.75 224.25 403.6 224.05 402.35 L223.9 400.6 Q223.9 399.45 223.3 398.4 222.65 397.45 221.65 396.85 220.6 396.35 219.4 396.45 218.25 396.6 217.3 397.3 211.8 401.55 204.55 403.75 202.25 404.4 200.2 403.3 198.1 402.2 197.4 399.9 196.75 397.65 197.9 395.6 199 393.5 201.25 392.8 L211.75 389.65 Q213.15 389.2 214 388 214.8 386.75 214.65 385.3 214.45 383.8 213.4 382.75 212.3 381.7 210.85 381.65 L207.5 381.25 Q205.8 380.95 204.8 379.55 203.75 378.15 204.05 376.35 204.3 374.6 205.75 373.6 207.2 372.6 208.9 372.85 L217.45 374.25 Q218.95 374.5 220.3 373.75 221.6 372.9 222.05 371.45 222.5 369.95 221.85 368.6 221.3 367.15 219.85 366.5 L218.65 365.9 Q217.1 365.1 216.55 363.4 216 361.7 216.8 360.15 217.65 358.6 219.3 358.1 221 357.55 222.55 358.35 L234.45 364.55 236.25 365 238.1 364.6 239.55 363.4 Q240.15 362.65 240.35 361.7 240.6 360.3 241.6 359.3 242.6 358.2 244 357.85 L245 357.7 Q246.1 357.65 247.05 357.05 248 356.4 248.45 355.45 248.95 354.45 248.85 353.35 248.8 352.2 248.15 351.25 243.75 344.9 242.7 336.75 242.45 335 243.5 333.6 244.6 332.2 246.35 331.95 248.1 331.75 249.5 332.85 250.9 333.9 251.1 335.65 L253 350.55 Q253.2 351.85 254.1 352.75 254.95 353.75 256.2 354.05 L258.7 353.8 Q259.9 353.3 260.6 352.25 261.3 350.95 262.75 350.45 264.1 349.95 265.5 350.45 267.1 351 267.9 352.45 268.7 353.95 268.3 355.5 268 356.65 268.35 357.7 268.7 358.85 269.55 359.55 270.65 360.6 272.2 360.6"/>
    <path stroke="none" fill="#FFFFFF" d="M351.95 365.15 L355.95 364.95 Q357.95 364.1 358.8 362.15 359.7 360.2 359 358.2 358.35 356.1 356.5 355.05 349.3 351 344.6 346.3 342.7 344.4 342.65 341.65 342.6 338.95 344.55 337.05 346.45 335.1 349.2 335.05 351.85 335.05 353.8 336.95 357.9 340.9 361.55 346.85 362.45 348.2 363.95 348.9 365.45 349.6 367.05 349.4 368.7 349.15 369.95 348.1 371.2 347 371.6 345.45 371.9 344.35 372.75 343.6 373.55 342.8 374.65 342.5 376.35 342.05 377.85 342.9 379.4 343.8 379.85 345.5 L380.55 349.6 Q380.8 351.65 382.35 353.05 383.9 354.45 386.05 354.45 388.1 354.45 389.7 353.15 391.25 351.75 391.55 349.7 L391.8 348.15 Q392.1 346.7 393.4 345.9 394.6 345.05 396.1 345.35 397.55 345.65 398.4 346.9 399.25 348.15 398.95 349.65 398.2 353.2 396.4 357.45 395.5 359.45 396.2 361.5 396.9 363.6 398.8 364.55 400.7 365.6 402.85 365.1 404.95 364.6 406.1 362.75 423.1 336.9 427.9 332.05 430.3 329.7 433.65 329.75 437.05 329.75 439.45 332.1 441.8 334.45 441.8 337.85 441.75 341.2 439.4 343.55 435.35 347.65 416.15 360.45 414.8 361.35 414.2 362.85 413.55 364.3 413.8 365.95 414.05 367.55 415.1 368.75 416.2 370 417.75 370.4 418.75 370.7 419.45 371.5 420.15 372.25 420.3 373.3 420.55 374.75 419.7 376 418.85 377.2 417.35 377.5 L408.8 377.85 Q407.2 377.75 405.75 378.65 404.3 379.45 403.6 380.9 L402 382.85 Q400.5 383.9 400 385.6 399.45 387.35 400.05 389.05 L400.3 390.15 Q400.45 392.15 401.85 393.6 403.25 395 405.25 395.2 418.75 396.55 428.2 400.9 431.2 402.3 432.35 405.45 433.45 408.5 432.05 411.5 430.7 414.5 427.55 415.65 424.5 416.75 421.45 415.35 415.25 412.45 408.9 407.35 407.45 406.2 405.65 406.15 403.75 406.05 402.25 407.15 400.7 408.2 400.1 410 399.6 411.8 400.15 413.5 L400.45 414.35 Q401.05 416.6 399.85 418.6 398.75 420.65 396.45 421.25 394.25 421.85 392.2 420.7 390.2 419.5 389.6 417.25 L389.25 415.55 Q388.95 414 387.9 412.8 386.85 411.6 385.3 411.15 L382.3 411.1 Q380.75 411.55 379.65 412.65 378.85 413.6 377.6 413.75 376.35 414 375.3 413.35 374.15 412.75 372.95 412.65 371.7 412.5 370.55 413 369.35 413.45 368.5 414.35 367.6 415.25 367.25 416.5 362.6 430.6 360.65 434.25 359.15 437.05 356.05 437.95 353 438.85 350.15 437.35 347.4 435.8 346.45 432.7 345.55 429.7 347.1 426.9 350.25 421.05 369.7 398.05 370.55 397.05 370.85 395.85 371.2 394.6 370.9 393.35 370.7 392.15 369.95 391.1 369.15 390.1 368.05 389.55 L367.5 389.15 Q365.9 388.05 364.05 388.15 362.15 388.2 360.7 389.45 347.65 400.4 335.75 404.1 332.85 404.95 330.15 403.55 327.5 402.1 326.6 399.25 325.7 396.3 327.1 393.65 328.5 390.95 331.45 390.05 335.7 388.75 340.6 388.15 342.3 387.95 343.6 386.8 344.9 385.65 345.3 384 345.7 382.3 345.1 380.7 344.45 379.05 343 378.05 341.05 376.7 340.15 374.45 339.3 372.1 339.95 369.65 340.8 366.6 343.55 365.05 346.35 363.5 349.4 364.35 L351.95 365.15"/>
    <path stroke="none" fill="#FFFFFF" d="M494.3 348.6 L496.35 349.05 498.35 348.55 499.9 347.2 Q500.55 346.35 500.75 345.3 501.35 341.8 502.85 339.5 504.45 336.95 506.95 336.25 510 335.35 513.6 337.7 517.75 340.4 520.6 346.1 521.15 347.15 522.15 347.8 523.15 348.45 524.35 348.55 L526.65 348.1 Q527.7 347.55 528.4 346.55 529.35 345.05 530.9 344.25 532.5 343.35 534.35 343.35 536.85 343.35 538.85 344.95 540.8 346.5 541.3 348.95 541.6 350.4 542.75 351.4 543.85 352.4 545.35 352.5 548.8 352.75 550.6 354.85 552.75 357.25 552.1 361.65 551.9 362.6 552.2 363.6 552.45 364.55 553.1 365.3 554.55 366.9 556.6 366.8 559.8 366.75 561.9 367.85 563.5 368.75 563.85 369.9 564.45 371.6 562.65 373.95 560.2 377.15 555.65 378.8 554.6 379.2 553.8 380.05 553.05 380.85 552.8 382 552.55 383.1 552.85 384.2 553.15 385.3 553.95 386.15 555.9 388.2 556.75 390.35 557.7 392.65 557.15 394.75 556.75 396.35 557.45 397.85 558.2 399.35 559.7 400 561.6 400.85 562.8 402.6 564 404.4 564 406.55 564 409.5 561.9 411.6 559.8 413.7 556.85 413.7 553.95 413.7 551.85 411.65 549.75 409.55 549.7 406.65 L549.75 406.2 Q549.8 404.25 548.45 402.8 546.95 401.35 545 401.5 L541.25 401.4 539.1 401.75 Q538.1 402.15 537.4 403.05 536.65 403.9 536.45 405 536.2 406.1 536.5 407.1 537.6 410.9 537.2 413.85 536.8 417.15 534.65 418.85 531.65 421.25 526.45 419.75 524.35 419.2 522.6 420.4 520.9 421.6 520.7 423.7 520.45 426.95 519.05 429.05 518.05 430.6 516.75 430.85 515.3 431.15 513.55 429.75 511.15 427.9 509.75 424.35 509.35 423.3 508.5 422.6 507.65 421.85 506.55 421.65 505.5 421.4 504.45 421.65 503.35 421.95 502.55 422.7 499.45 425.5 496.5 426.55 L490.65 426.4 Q487.95 425.1 486.85 421.7 485.8 418.55 486.2 414.25 486.4 412.25 485.05 410.75 483.7 409.3 481.65 409.3 478.75 409.35 476.5 408.5 L473.95 408.25 Q472.6 408.55 471.65 409.5 469.55 411.65 466.55 411.65 463.6 411.65 461.5 409.55 459.4 407.45 459.4 404.5 459.4 401.55 461.5 399.45 463.6 397.35 466.55 397.35 L468.75 397.75 471.75 397.65 Q473.3 397.1 474.1 395.7 476.65 391.1 481.5 387.65 482.45 386.95 482.95 385.95 483.4 384.85 483.35 383.7 483.3 382.55 482.65 381.6 482.05 380.6 481 380.05 478.35 378.6 476.9 376.8 475.25 374.8 475.15 372.55 475.05 369.5 477.7 366.85 480.05 364.45 484.25 362.85 486.3 362 486.95 359.9 487.25 358.9 487.05 357.85 486.85 356.8 486.25 356 484.45 353.55 484.1 351.2 483.85 349.45 484.6 348.45 485.45 347.3 487.75 347.1 490.75 346.85 494.3 348.6"/>
    <path stroke="none" fill="#FFFFFF" d="M599.6 377.25 Q600.8 376.3 601.3 374.9 601.8 373.45 601.5 371.95 601.2 370.45 600.15 369.3 599.1 368.2 597.65 367.75 593.75 366.65 591.65 363.05 589.45 359.3 590.55 355.1 591.7 350.95 595.4 348.8 598.65 346.9 602.4 347.55 606.05 348.15 608.5 350.95 609.55 352.1 611 352.6 L613.95 352.7 Q615.4 352.3 616.5 351.2 617.6 350.15 618 348.65 618.85 345 621 342.05 623.25 338.95 626.6 337.05 633.15 333.25 640.5 335.2 647.85 337.15 651.65 343.75 653.75 347.35 654.05 351.6 654.15 353.05 654.95 354.25 655.7 355.45 657 356.05 L659.7 356.7 Q661.15 356.65 662.3 355.9 L662.7 355.65 Q669.3 351.9 676.55 353.9 683.9 355.85 687.7 362.4 691.45 368.95 689.5 376.35 687.55 383.6 681 387.4 677.45 389.45 673.4 389.85 671.2 390 669.75 391.6 668.3 393.25 668.35 395.45 668.45 398.25 667.1 400.75 665.7 403.35 663.15 404.8 660.3 406.45 657.05 406.15 653.85 405.85 651.45 403.85 650.35 403.05 649.05 402.8 L646.55 402.9 641.85 403.15 Q639.85 402.8 638.15 403.8 636.4 404.8 635.75 406.65 L634.9 408.4 Q633.85 410.05 634.15 412.05 634.4 414 635.85 415.3 637.05 416.4 637.85 417.8 640 421.6 638.9 425.7 637.75 429.85 634 432.05 630.3 434.2 626.1 433.05 621.95 432 619.8 428.2 618.55 426.05 618.45 423.55 618.25 421.15 619.25 418.9 620.05 417.1 619.5 415.2 618.9 413.25 617.2 412.15 L615.75 411.05 Q614.05 409.55 611.8 409.65 609.55 409.75 608.05 411.45 L605.6 413.45 Q601.85 415.6 597.65 414.45 593.5 413.35 591.35 409.6 589.4 406.2 590.1 402.45 590.85 398.6 593.85 396.25 595.1 395.3 595.65 393.75 596.2 392.15 595.75 390.6 L595.45 389.45 Q594.8 385.9 595.95 382.6 597.05 379.35 599.6 377.25"/>
    <path stroke="none" fill="#FFFFFF" d="M747.95 363.4 Q748.85 362.65 749.05 361.5 749.3 360.4 748.75 359.35 747.55 356.8 748.35 354.15 749.15 351.4 751.6 350 754.15 348.5 757.05 349.25 759.9 350.05 761.4 352.6 762.15 353.95 762.3 355.45 762.4 356.35 762.9 357.05 763.45 357.8 764.3 358.2 L766 358.5 Q766.9 358.45 767.65 357.85 769.25 356.75 771.15 356.6 772.35 356.5 773.2 355.65 774.1 354.8 774.25 353.6 774.5 351.15 776.35 349.35 778.2 347.55 780.8 347.2 L784.3 347.5 Q785.95 348.05 787.2 349.15 788.25 350.2 789.75 350.1 791.2 350 792.15 348.8 793.35 347.3 795.1 346.3 798.9 344.1 803.15 345.25 807.4 346.4 809.6 350.2 810.75 352.2 810.95 354.45 811.15 356.7 810.45 358.75 810.15 359.65 810.35 360.6 810.6 361.55 811.25 362.2 811.9 362.9 812.85 363.1 L814.7 363.05 Q818.2 361.85 821.7 363.2 825.2 364.55 827.1 367.8 829.3 371.6 828.2 375.85 827.05 380.1 823.25 382.3 821.15 383.5 818.8 383.65 816.5 383.85 814.35 383.1 L812.15 383.05 Q811.1 383.4 810.45 384.3 809.8 385.25 809.85 386.45 809.9 387.6 810.65 388.45 L811.8 390.05 Q814 393.85 812.85 398.1 811.7 402.35 807.9 404.55 805.8 405.75 803.4 405.9 801 406.05 798.75 405.2 L796.1 405.35 Q794.8 406 794.35 407.4 793.7 409.4 792.3 410.75 790.4 412.6 787.8 412.9 785.25 413.25 783.2 411.95 782.15 411.3 780.9 411.45 779.75 411.65 778.9 412.55 777.25 414.35 774.7 414.7 772.15 415.05 769.8 413.8 767.7 412.7 766.6 410.65 765.5 408.6 765.75 406.35 765.85 405.55 765.55 404.8 L764.65 403.45 Q764.05 402.95 763.2 402.75 762.45 402.55 761.6 402.75 L758.95 402.8 Q757.75 402.65 756.7 403.25 755.65 403.85 755.25 404.95 L754.7 406.1 Q754.05 407.1 754.2 408.35 754.4 409.5 755.25 410.35 L756.55 411.9 Q757.85 414.2 757.15 416.7 756.45 419.3 754.2 420.65 752.5 421.6 750.55 421.45 748.7 421.35 747.15 420.2 746.5 419.75 745.75 419.6 L744.15 419.7 742.75 420.55 Q742.15 421.15 741.95 421.9 741.35 423.75 740.15 425.35 738.9 426.9 737.15 427.95 733.35 430.15 729.1 429 724.9 427.85 722.7 424.05 720.55 420.4 721.55 416.2 722.55 412.1 726.15 409.85 727.1 409.2 727.55 408.05 727.9 406.9 727.45 405.8 726.7 403.7 727.4 401.6 L727.55 400 Q727.45 399.2 726.95 398.55 L725.8 397.55 Q725.05 397.2 724.25 397.2 721.5 397.15 719.1 395.75 716.6 394.35 715.2 391.9 713 388.05 714.15 383.85 715.25 379.6 719.05 377.4 721.4 376.05 724.2 375.95 725.35 375.95 726.25 375.3 727.2 374.5 727.4 373.4 728.1 370.75 730.45 369.4 732.45 368.25 734.75 368.65 736.95 369.05 738.5 370.75 739.1 371.5 740 371.75 L741.8 371.85 Q742.75 371.65 743.4 370.95 744.05 370.3 744.3 369.35 745.15 365.8 747.95 363.4"/>
    <path stroke="none" fill="#FFFFFF" d="M859.7 343.2 Q863 342 864.65 338.95 866.3 335.85 865.5 332.45 L865.45 331.55 Q865.45 329.8 866.65 328.6 867.9 327.35 869.6 327.35 871.35 327.35 872.55 328.6 873.8 329.8 873.8 331.55 L873.5 333.05 Q872.25 336.25 873.4 339.55 874.55 342.85 877.55 344.55 L877.9 344.8 Q879.75 346.1 882 346.4 L886.4 346 Q888.55 345.25 890.1 343.55 891.65 341.9 892.25 339.75 892.65 338.4 893.75 337.55 894.9 336.7 896.3 336.7 L898.1 337.1 Q901.55 338.8 905.15 337.6 908.75 336.4 910.5 333.05 911.05 332 912 331.4 913 330.8 914.2 330.8 915.9 330.8 917.15 331.95 918.35 333.15 918.4 334.85 918.45 337.25 919.7 339.35 920.9 341.45 923 342.65 925.05 343.85 927.5 343.9 929.85 344 932.05 342.9 932.85 342.45 933.95 342.45 935.65 342.45 936.9 343.65 938.15 344.9 938.15 346.6 938.15 347.6 937.65 348.55 L936.4 350 Q934.1 351.7 933.15 354.4 932.2 357.15 933 359.95 933.75 362.7 935.95 364.6 938.15 366.45 941.05 366.75 945 367.15 947.7 370.1 950.4 373.1 950.4 377.1 950.4 381.4 947.4 384.45 944.35 387.5 940.05 387.55 L940 387.5 Q937.25 387.45 934.9 388.9 932.55 390.4 931.35 392.9 930.2 395.4 930.6 398.15 930.95 400.9 932.8 403 933.8 404.15 933.8 405.75 933.8 407.45 932.6 408.7 931.35 409.9 929.6 409.9 928.05 409.9 926.85 408.85 925.65 407.8 925.45 406.25 925.05 402.65 922.3 400.3 919.55 397.95 915.95 398.05 912.3 398.15 909.75 400.7 907.15 403.2 906.95 406.85 906.8 409.35 905.2 411.35 903.65 413.3 901.25 414.05 899.45 414.6 898.05 415.85 896.6 417.05 895.75 418.7 894.9 420.4 894.75 422.3 894.6 424.2 895.2 425.95 895.8 427.65 895.8 429.5 895.8 434.1 892.55 437.4 889.3 440.65 884.7 440.65 880.05 440.65 876.8 437.4 873.55 434.1 873.55 429.5 873.55 426.9 874.7 424.6 875.65 422.7 875.7 420.6 875.7 418.5 874.85 416.55 874 414.65 872.4 413.3 870.75 411.9 868.75 411.4 867.75 411.15 867 410.5 L865.9 408.85 Q865.2 407.05 863.75 405.65 862.4 404.25 860.55 403.55 858.7 402.85 856.75 402.95 854.75 403.05 853 403.9 L851.15 404.35 Q849.4 404.35 848.2 403.15 846.95 401.9 846.95 400.15 846.95 398.8 847.8 397.7 848.55 396.6 849.8 396.2 852.9 395.2 854.65 392.45 856.45 389.7 856.1 386.5 L856.1 386.2 Q856.1 384.7 857.05 383.55 858 382.4 859.4 382.1 861.95 381.6 863.85 379.85 865.7 378.1 866.45 375.65 867.15 373.2 866.55 370.7 865.95 368.25 864.15 366.4 862.6 364.85 861.75 362.9 860.9 360.85 860.85 358.6 860.85 356.2 859.7 354.15 858.55 352 856.5 350.75 854.5 349.5 852.1 349.35 849.7 349.2 847.55 350.25 L845.75 350.6 Q844.05 350.6 842.85 349.4 841.6 348.15 841.6 346.45 841.6 344.7 842.85 343.45 844.05 342.25 845.75 342.25 847.2 342.25 848.3 343.1 850.65 344.9 853.55 345 856.5 345.15 859 343.6 L859.7 343.2"/>
    <path stroke="none" fill="#FFFFFF" d="M981.5 358.4 Q983.55 358.2 984.95 356.7 986.3 355.15 986.25 353.1 L986.2 352.2 Q986.25 344.85 991.45 339.65 996.65 334.45 1004 334.45 1010.9 334.45 1015.95 339.05 1021 343.65 1021.7 350.35 1021.95 352.7 1023.9 354.05 L1024.05 354.15 1024.5 354.55 Q1026.35 356.05 1028.65 355.65 1031 355.25 1032.25 353.25 1033.7 350.85 1036.15 349.4 1038.7 348 1041.65 348 1043.95 348 1046.1 348.95 1048.15 349.85 1049.7 351.5 1050.65 352.55 1052 352.95 L1054.7 353.05 1058.7 352.6 Q1066.05 352.6 1071.25 357.8 1076.5 363 1076.5 370.4 1076.5 374.6 1074.65 378.3 1072.85 381.95 1069.65 384.45 1068.3 385.5 1067.85 387.15 1067.35 388.8 1068 390.4 1068.7 392.2 1068.7 394.25 1068.7 398.2 1066.25 401.25 1063.75 404.25 1060 405.05 1058.05 405.45 1056.9 407.1 1055.75 408.75 1055.95 410.7 L1056.05 411.9 Q1056.05 416.45 1052.8 419.7 1049.55 422.9 1045 422.9 1040.45 422.9 1037.2 419.7 1034 416.5 1033.95 411.95 1033.95 409.65 1032.25 408.15 1030.55 406.6 1028.2 406.85 L1024 406.5 1020.75 406.7 Q1019.15 407.4 1018.25 408.85 1017.35 410.35 1017.55 412.05 1017.7 413.8 1018.9 415.05 1021.85 418.2 1021.85 422.5 1021.85 427.05 1018.6 430.3 1015.35 433.55 1010.8 433.55 1006.25 433.55 1003 430.3 999.75 427.05 999.75 422.5 L999.8 421.7 Q999.95 420.3 999.3 419 998.65 417.7 997.45 416.9 996.25 416.15 994.85 416.1 993.4 416 992.15 416.7 989.7 418 986.95 418 982.4 418 979.15 414.75 975.9 411.5 975.9 406.95 975.9 402.4 979.15 399.15 982.4 395.9 986.95 395.9 L989.1 396.15 Q991.1 396.55 992.9 395.45 994.65 394.35 995.15 392.35 L995.45 391.4 Q996.15 389.7 995.6 387.9 995 386.1 993.4 385.1 991.7 384.05 990.5 382.25 989.6 380.9 988.05 380.35 L984.95 380.15 982.55 380.4 Q977.95 380.4 974.75 377.15 971.5 373.95 971.5 369.35 971.5 365.1 974.4 361.95 977.3 358.8 981.5 358.4"/>
    <path stroke="none" fill="#FFFFFF" d="M1196.15 346.35 L1195.4 346.4 1194.65 346.3 1191.35 346.55 Q1189.75 347.1 1188.7 348.45 1187.6 349.75 1187.35 351.45 1187.15 353.15 1187.8 354.75 L1188.05 355.2 Q1188.9 357.75 1191.4 358.85 1192.6 359.35 1193.9 359.35 L1196.35 358.8 1197.35 358.5 1197.6 358.4 1197.8 358.4 1198.35 358.35 Q1200.25 358.4 1201.6 359.8 1202.9 361.1 1202.9 363.05 1202.9 364.95 1201.6 366.25 1200.25 367.65 1198.35 367.7 L1197.6 367.65 Q1196.15 367.55 1194.8 368.15 1193.45 368.75 1192.55 369.9 1191.6 371 1191.3 372.45 1191 373.9 1191.4 375.3 L1191.65 377.3 1191.6 377.85 Q1191.4 380.15 1192.8 382 1194.2 383.9 1196.5 384.35 1199.15 384.9 1200.9 386.95 1202.65 389.05 1202.75 391.8 1202.8 393.7 1203.9 395.2 1205 396.75 1206.85 397.4 1208.2 397.85 1209.05 399.05 1209.9 400.3 1209.9 401.75 1209.9 403.7 1208.55 405.05 1207.15 406.4 1205.25 406.4 1203.85 406.4 1202.65 405.6 1201.55 404.85 1201 403.55 1200.25 401.8 1198.65 400.8 1197.05 399.8 1195.2 399.85 L1194.5 399.85 Q1192.7 399.7 1191.15 400.55 1189.55 401.4 1188.7 402.95 1187.8 404.5 1187.9 406.3 1188.05 408.05 1189.1 409.5 1190.5 411.5 1190.5 414 1190.5 415.75 1189.75 417.35 1189 418.9 1187.7 420 1186.65 420.85 1186.1 422.05 1185.55 423.25 1185.5 424.6 1185.45 425.9 1186 427.15 1186.55 428.35 1187.55 429.25 1189.1 430.6 1189.1 432.7 1189.1 434.6 1187.7 435.95 1186.35 437.35 1184.45 437.35 1182.5 437.35 1181.15 435.95 1179.8 434.65 1179.8 432.7 1179.8 431.1 1180.7 429.9 1182.4 427.7 1181.9 425 1181.35 422.25 1178.95 420.85 L1178.8 420.8 Q1176.65 419.55 1174.25 420.15 1171.85 420.75 1170.55 422.85 1169.45 424.55 1167.75 425.55 1165.95 426.6 1163.85 426.6 L1163 426.5 Q1161.25 426.3 1159.65 427.05 1158.05 427.8 1157.1 429.3 1156.05 430.95 1154.35 431.95 1152.55 432.9 1150.5 432.9 1147.3 432.9 1145 430.6 1142.7 428.35 1142.7 425.1 1142.7 422.85 1143.9 420.9 1145.2 418.9 1144.75 416.55 1144.35 414.2 1142.4 412.75 1140.8 411.6 1140 409.7 1139.45 408.55 1138.5 407.65 L1136.25 406.4 Q1133.7 405.55 1131.3 406.95 1129.6 408 1127.4 408 L1126.1 407.9 Q1123.75 407.45 1121.75 408.8 1119.75 410.1 1119.15 412.45 1118.75 413.95 1117.5 414.95 1116.25 415.95 1114.65 415.95 1112.75 415.95 1111.4 414.55 1110 413.2 1110 411.3 1110 409.5 1111.2 408.15 1112.4 406.85 1114.15 406.65 1116.5 406.4 1118.1 404.65 1119.65 402.8 1119.6 400.45 L1119.6 400.1 Q1119.6 396.9 1121.9 394.65 1124.2 392.35 1127.4 392.35 1129.75 392.35 1131.7 393.65 1133.6 394.9 1134.55 396.95 1135.05 398.15 1136.05 399 L1138.25 400.3 Q1140.85 401.1 1143.2 399.75 1145 398.7 1147.1 398.7 1150.15 398.7 1152.4 400.7 1154.6 402.75 1154.9 405.75 1155.05 407 1155.65 408.15 1156.3 409.3 1157.35 410.05 1158.4 410.8 1159.7 411.1 1161 411.35 1162.25 411.1 L1163.85 410.9 1164.85 411 Q1166.9 411.3 1168.75 410.25 1170.55 409.2 1171.3 407.25 1172.1 405.35 1171.55 403.3 1171 401.3 1169.35 400.05 1167.9 398.95 1167.1 397.35 1166.25 395.7 1166.25 393.8 1166.25 392.7 1166.55 391.7 1167 390.05 1166.6 388.4 1166.15 386.75 1164.85 385.55 1163.65 384.4 1161.95 384 L1158.7 384.25 Q1156.15 385.1 1153.35 385.1 1148.6 385.1 1144.55 382.55 1140.7 380.1 1138.6 375.95 1138 374.7 1136.9 373.85 1135.8 373 1134.45 372.7 1133.1 372.4 1131.75 372.7 1130.4 373.05 1129.3 373.9 1127.2 375.6 1124.45 375.6 L1123 375.45 Q1120.6 375 1118.55 376.3 1116.5 377.55 1115.9 379.9 1115.5 381.4 1114.25 382.35 1113 383.35 1111.4 383.35 1109.5 383.35 1108.1 381.95 1106.75 380.6 1106.75 378.65 1106.75 376.85 1108 375.55 1109.25 374.2 1111 374.05 1113.45 373.85 1115.05 372.05 1116.7 370.25 1116.65 367.8 L1116.65 367.7 Q1116.65 364.7 1118.7 362.5 1120.75 360.3 1123.75 360 1125.45 359.85 1126.85 358.8 1128.25 357.75 1128.85 356.15 1129.5 354.5 1129.2 352.85 1128.9 351.1 1127.75 349.8 1125.75 347.65 1125.75 344.7 1125.75 341.45 1128.1 339.15 1130.35 336.85 1133.6 336.85 1136.6 336.85 1138.8 338.85 1139.95 339.9 1141.45 340.25 L1144.5 340.2 Q1146 339.8 1147.1 338.75 1148.25 337.65 1148.7 336.15 1149.5 333.75 1151.5 332.3 1153.6 330.75 1156.15 330.75 1159.4 330.75 1161.7 333.05 1164 335.3 1164 338.55 1164 340.35 1163.2 341.95 1162.5 343.5 1161.15 344.6 1160 345.55 1159.4 346.9 1158.8 348.25 1158.9 349.75 1159.05 351.25 1159.8 352.5 1160.55 353.8 1161.85 354.55 L1164.15 356.2 Q1165.2 357.15 1166.6 357.5 L1169.35 357.6 Q1170.7 357.35 1171.85 356.5 1173 355.6 1173.65 354.35 1174.9 351.8 1177.4 350.7 1178.75 350.1 1179.7 348.95 1180.6 347.8 1180.9 346.35 1181.2 344.9 1180.8 343.5 1180.4 342.1 1179.4 341 1178.2 339.7 1178.2 337.9 1178.2 336 1179.55 334.6 1180.9 333.25 1182.85 333.25 1184 333.25 1185 333.75 1186 334.3 1186.65 335.2 1187.85 336.95 1189.9 337.6 L1193.9 337.4 1195.55 337.1 Q1197.45 337.1 1198.8 338.45 1200.15 339.8 1200.15 341.7 1200.15 343.4 1199.1 344.7 1198 346 1196.4 346.3 L1196.15 346.35 M1098.2 352.9 Q1100.05 352.65 1101.5 351.35 1102.95 350.1 1103.35 348.2 1103.7 346.7 1105 345.7 1106.25 344.7 1107.85 344.7 1109.8 344.7 1111.15 346.05 1112.5 347.4 1112.5 349.3 1112.5 351.05 1111.35 352.4 1110.2 353.7 1108.5 353.9 1106.6 354.15 1105.15 355.45 1103.75 356.7 1103.3 358.6 1102.95 360.1 1101.7 361.1 1100.4 362.1 1098.8 362.1 1096.9 362.1 1095.5 360.75 1094.15 359.4 1094.15 357.5 1094.15 355.7 1095.3 354.4 1096.45 353.1 1098.2 352.9"/>
    <path stroke="none" fill="#FFFFFF" d="M143.7 498.6 L143.9 498.7 147.35 498.8 Q149.1 498.2 150.1 496.7 156.5 486.7 167.25 482.5 L173.55 482.65 Q176.7 484 177.9 487.2 179.15 490.35 177.75 493.45 176.4 496.6 173.25 497.8 L157.45 503.9 Q155.85 504.55 154.95 505.95 154.05 507.4 154.15 509.05 L154.15 510.3 Q153.95 512.05 154.9 513.55 155.8 515.05 157.45 515.7 164.9 518.45 170.5 524.35 172.9 526.8 172.8 530.2 172.7 533.6 170.25 535.95 167.8 538.3 164.4 538.2 161 538.15 158.65 535.7 L154.35 531.15 Q153.35 530.1 151.95 529.75 L149.1 529.8 Q147.7 530.25 146.75 531.35 145.8 532.45 145.55 533.9 145.2 536.15 143.7 537.8 142.2 539.5 140 540.1 L139.85 540.1 Q138.65 540.4 137.7 541.15 136.8 541.95 136.3 543.05 135.8 544.15 135.85 545.35 135.9 546.6 136.5 547.65 139.85 553.6 140.7 560.65 141.1 564.05 139 566.7 136.9 569.4 133.5 569.8 130.15 570.2 127.45 568.1 124.8 566 124.4 562.6 L121.5 537.45 Q121.2 535.1 119.3 533.8 117.4 532.45 115.1 533 113.15 533.55 111.4 532.45 L110.75 531.9 Q109.8 531.05 108.55 530.7 L106.1 530.65 Q104.8 530.95 103.85 531.75 102.9 532.6 102.4 533.8 98.75 543.15 90.7 549.25 87.95 551.25 84.6 550.8 81.2 550.3 79.15 547.6 77.15 544.9 77.6 541.5 78.1 538.15 80.8 536.1 L89.25 529.75 Q90.45 528.85 91 527.55 91.5 526.15 91.25 524.75 91 523.3 90.05 522.2 89.05 521.15 87.65 520.7 86.4 520.35 85.5 519.4 84.6 518.4 84.3 517.05 83.95 515.1 85.05 513.45 86.15 511.8 88.1 511.4 L93.2 510.35 Q94.95 510 96.1 508.7 97.25 507.35 97.3 505.65 97.45 503.9 96.45 502.45 95.45 501 93.8 500.45 86.7 498.1 81.05 492.85 78.55 490.55 78.4 487.15 78.25 483.75 80.55 481.25 82.75 478.9 85.95 478.65 87.3 478.55 88.4 477.8 89.55 477.05 90.15 475.85 90.75 474.65 90.7 473.3 90.65 471.95 89.9 470.8 88.4 468.45 87.2 465.5 85.9 462.35 87.2 459.2 88.5 456.05 91.65 454.8 94.8 453.5 97.95 454.8 101.1 456.1 102.35 459.25 L105.05 465.7 Q105.9 467.9 108.2 468.65 L110.4 468.9 112.45 468.15 Q114.65 466.85 117.15 467 119.6 467.15 121.55 468.6 123.45 469.95 124.35 472.2 124.9 473.55 126.1 474.45 127.3 475.35 128.8 475.4 130.3 475.5 131.6 474.8 132.9 474.05 133.6 472.75 L135.3 469.95 Q137.2 467.1 140.55 466.4 143.9 465.75 146.7 467.65 149.5 469.55 150.2 472.85 150.85 476.2 149 479 L141.1 490.9 Q140.3 492.05 140.2 493.5 140.15 494.9 140.8 496.15 141.75 497.95 143.7 498.6"/>
    <path stroke="none" fill="#FFFFFF" d="M223.45 477.5 Q225.2 478.5 227.2 478.15 229.25 477.75 230.5 476.2 231.8 474.6 231.75 472.6 231.75 470.55 230.4 469 L223.15 460.65 Q222 459.3 222.1 457.55 222.25 455.75 223.6 454.6 224.9 453.45 226.7 453.55 228.45 453.7 229.65 455.05 239.15 465.95 244.05 476.15 245 478.05 246.9 478.85 L250.85 479 Q252.85 478.35 253.9 476.55 255 474.75 254.6 472.65 L253.05 464.8 Q252.8 463.5 253.55 462.35 254.3 461.25 255.65 460.95 257 460.75 258.1 461.5 259.25 462.25 259.5 463.6 260.8 470.2 261.2 475.8 261.35 477.7 262.55 479.15 263.85 480.55 265.7 480.9 267.55 481.25 269.25 480.45 270.95 479.55 271.75 477.85 L274.05 473.2 Q274.65 472 275.95 471.55 L278.45 471.7 Q279.65 472.3 280.1 473.6 280.55 474.85 279.95 476.1 L277.5 480.8 Q276.6 482.4 276.9 484.25 277.15 486.1 278.45 487.4 279.75 488.7 281.6 488.95 283.4 489.25 285.05 488.35 L300.6 480.05 Q301.8 479.4 303.1 479.8 304.4 480.2 305.05 481.4 305.7 482.6 305.3 483.9 304.9 485.2 303.7 485.85 296.05 490 289.05 492.3 287.75 492.8 286.8 493.8 285.85 494.8 285.5 496.15 285.1 497.45 285.4 498.85 285.7 500.15 286.6 501.25 287.2 501.95 287.15 502.85 L286.9 503.7 Q286.3 504.95 286.3 506.35 286.35 507.75 287.05 508.95 287.75 510.2 288.9 510.9 290.1 511.7 291.5 511.8 L309 513.05 Q309.95 513.1 310.55 513.8 311.2 514.55 311.1 515.45 311.05 516.45 310.35 517.05 309.65 517.65 308.65 517.6 L298.3 516.3 295.15 516.55 Q293.65 517.15 292.7 518.5 291.75 519.8 291.65 521.4 291.55 523.05 292.35 524.45 293 525.6 293 526.9 293.05 528.25 292.45 529.5 291.45 531.5 289.35 532.2 287.2 532.9 285.2 531.9 278 528.25 272.35 524.6 271.05 523.75 269.6 523.7 268.15 523.6 266.8 524.3 265.5 524.9 264.65 526.15 263.85 527.4 263.7 528.85 L261 565.45 Q260.85 567.65 259.2 569.15 257.5 570.6 255.25 570.45 253 570.3 251.55 568.6 250.1 566.9 250.25 564.65 251.3 550.35 254.7 539.3 255.35 537.25 254.5 535.35 253.6 533.4 251.7 532.55 249.75 531.65 247.75 532.3 245.7 532.95 244.6 534.75 L240.3 541.95 Q239.7 543 238.5 543.4 L236.2 543.25 Q234 542.3 231.75 543.25 229.5 544.2 228.7 546.45 L224.05 559.25 Q223.6 560.55 222.35 561.1 L219.85 561.2 Q218.55 560.75 218 559.5 217.45 558.3 217.9 557 222.3 544.9 228 536.8 229 535.3 229 533.55 228.95 531.75 227.9 530.3 226.9 528.85 225.15 528.3 223.5 527.7 221.75 528.25 L219.1 528.35 Q217.7 528.1 216.6 527.15 214.95 525.7 214.8 523.45 214.65 521.2 216.1 519.5 L219.65 515.65 Q220.8 514.4 221.1 512.75 221.35 511.05 220.65 509.5 219.95 508 218.55 507.05 217.05 506.2 215.35 506.25 L203.3 506.7 Q202.35 506.75 201.65 506.1 200.95 505.45 200.9 504.5 200.9 503.55 201.5 502.9 202.15 502.2 203.1 502.15 206.9 502 210.25 502.15 211.55 502.2 212.75 501.65 213.95 501.15 214.75 500.15 215.6 499.15 215.9 497.9 216.25 496.6 215.95 495.35 L215.95 494.45 Q216.1 493.55 216.9 493 217.65 492.45 218.55 492.65 L219 492.7 Q221.05 493.1 222.85 492.1 224.65 491.1 225.4 489.15 226.05 487.2 225.35 485.25 224.6 483.3 222.8 482.35 L220.4 481.05 Q219.6 480.55 219.3 479.65 219.05 478.8 219.5 477.95 219.95 477.1 220.85 476.85 L222.55 477 223.45 477.5"/>
    <path stroke="none" fill="#FFFFFF" d="M376.45 482.8 L378.3 482.4 Q379.2 481.95 379.75 481.15 L380.5 479.4 Q380.6 478.4 380.3 477.5 375.7 464.55 375.15 461 374.85 458.85 376.15 457.1 377.45 455.35 379.6 455.05 381.75 454.75 383.5 456 385.25 457.3 385.6 459.45 386.05 462.75 385.55 475.2 385.55 476.3 386.05 477.25 386.5 478.2 387.45 478.75 388.5 479.4 389 480.45 389.5 481.65 390.65 482.3 391.75 482.95 393.05 482.8 394.25 482.7 395.4 483.3 396.55 484 397.2 485.15 L397.5 485.7 Q398 487 399.25 487.7 400.45 488.4 401.9 488.15 L402.8 488.1 Q403.95 488.15 404.95 487.6 405.95 487 406.5 486 412.9 474 415.4 470.85 417.6 468.15 421 467.8 424.45 467.4 427.15 469.55 429.85 471.7 430.25 475.15 430.65 478.6 428.45 481.3 426.4 483.9 419.1 490.3 418.4 490.95 418.05 491.85 417.7 492.7 417.8 493.65 417.9 494.6 418.4 495.45 418.9 496.25 419.7 496.75 420.65 497.25 421.25 498.3 421.8 499.3 421.85 500.55 421.85 501.9 421.25 503.05 420.6 504.2 419.5 504.7 418.35 505.25 417.75 506.4 417.1 507.55 417.3 508.85 417.45 509.8 417 510.8 416.6 511.75 415.8 512.5 414.5 513.7 414.5 515.45 414.5 517.15 415.8 518.4 423.3 525.4 424.9 527.55 425.95 528.95 425.65 530.7 425.4 532.45 423.95 533.55 422.55 534.6 420.8 534.3 419.05 534.1 418 532.65 L417.7 532.25 Q417.15 531.45 416.35 531 415.5 530.55 414.55 530.5 L412.8 530.85 Q411.9 531.25 411.3 532 L410.9 532.4 Q409.7 533.45 409.5 535 409.35 536.6 410.3 537.85 L411.65 539.85 Q412.8 541.7 412.25 543.8 411.7 545.95 409.85 547.05 408.15 548.05 406.2 547.7 L404 547.9 Q402.9 548.35 402.25 549.3 401.55 550.25 401.5 551.45 401.45 552.6 402 553.6 405.6 559.85 406.35 561.95 407.1 564 406.15 566 405.25 567.95 403.2 568.7 L399.15 568.5 Q397.2 567.6 396.45 565.55 395.1 561.9 392.8 546.65 392.6 545.3 391.65 544.4 390.7 543.45 389.35 543.25 388.05 543.1 386.9 543.75 385.75 544.4 385.2 545.6 384.35 547.6 382.3 548.4 380.3 549.2 378.3 548.35 376.3 547.5 375.5 545.45 375.05 544.25 373.95 543.55 372.85 542.85 371.6 542.9 370.3 543 369.3 543.8 368.3 544.6 367.95 545.85 366.3 551.75 365.45 553.55 364.7 555.15 363.05 555.75 L359.75 555.6 Q358.15 554.85 357.55 553.15 356.95 551.5 357.7 549.9 358.4 548.4 360.85 544.8 361.55 543.75 361.5 542.45 361.5 541.15 360.7 540.15 359.9 539.1 358.65 538.75 L356.2 538.8 354.55 538.9 353.15 538.05 Q352.4 537.2 352.45 536.05 352.5 534.85 353.35 534.1 L358.95 530.3 360.15 529.05 Q360.65 528.3 360.75 527.4 L360.6 525.7 Q360.35 524.8 359.7 524.2 358.65 523.05 358 521.55 357.35 520 357.3 518.3 L357.4 516.55 Q357.6 515.4 357.2 514.4 356.8 513.35 355.9 512.65 355 512 353.9 511.85 352.8 511.75 351.75 512.25 347.05 514.55 345.35 515.05 344.15 515.4 343.05 514.8 341.9 514.2 341.55 512.95 341.2 511.75 341.8 510.65 342.4 509.5 343.65 509.15 L351.9 507.95 Q353.35 507.8 354.35 506.75 355.35 505.7 355.45 504.2 355.55 502.75 354.65 501.6 353.75 500.45 352.35 500.1 343.05 498 340.6 496.95 338.8 496.2 338.05 494.4 337.3 492.6 338.1 490.8 338.85 489 340.7 488.25 342.5 487.55 344.25 488.3 347.85 489.85 361.85 499.45 363 500.3 364.4 500.15 365.8 500.05 366.85 499.1 L368.25 498 Q369.05 497.5 370 497.15 371.6 496.6 372.3 495.1 L372.6 494.6 Q373.35 493.6 373.35 492.25 373.35 490.95 372.6 489.95 371.9 488.95 371.9 487.65 371.85 486.35 372.55 485.15 373.15 484.05 374.25 483.4 375.3 482.8 376.45 482.8"/>
    <path stroke="none" fill="#FFFFFF" d="M469.1 493.85 Q471 493.85 472.7 492.9 474.35 491.9 475.3 490.2 475.85 489.25 476.75 488.7 477.7 488.15 478.8 488.15 480.15 488.15 481.2 488.95 482.8 490.15 484.8 490.35 486.8 490.5 488.65 489.65 490.45 488.75 491.55 487.05 492.6 485.3 492.65 483.3 L492.7 482.4 Q492.95 480.95 492.6 479.5 492.2 478.1 491.35 476.95 490.45 475.75 489.15 475.05 487.9 474.35 486.4 474.15 483.6 473.85 481.65 471.7 479.75 469.6 479.75 466.7 479.75 463.6 481.9 461.4 484.1 459.2 487.2 459.2 490.3 459.2 492.55 461.4 494.7 463.6 494.7 466.7 L494.45 468.7 Q494.05 470.15 494.25 471.6 494.4 473.05 495.2 474.35 495.95 475.6 497.15 476.45 498.3 477.35 499.75 477.65 501.3 478 502.45 479.05 503.95 480.45 505.95 480.85 L509.9 480.5 Q511.8 479.75 513.05 478.1 514.25 476.5 514.45 474.45 514.7 471.55 516.8 469.6 518.95 467.6 521.9 467.6 525 467.6 527.2 469.8 529.4 472 529.4 475.1 529.4 476.75 528.75 478.15 528 479.85 528.15 481.65 528.3 483.5 529.3 485.05 530.3 486.55 531.95 487.4 533.6 488.25 535.45 488.25 L535.9 488.25 537.6 488.45 540.6 488.75 Q542.15 488.55 543.5 487.75 L545.65 485.6 Q546.55 484.3 546.8 482.75 547.25 479.75 549.6 477.7 551.95 475.65 555.1 475.65 558.55 475.65 561.05 478.15 563.5 480.6 563.5 484.1 563.5 487.55 561.05 490.05 558.55 492.5 555.1 492.5 553.1 492.5 551.35 491.6 549.95 490.95 548.4 490.85 546.85 490.85 545.4 491.45 543.95 492.05 542.9 493.2 541.85 494.35 541.4 495.85 540.85 497.45 539.65 498.45 538.55 499.4 537.95 500.7 537.3 501.95 537.2 503.4 537.1 504.8 537.55 506.2 538 507.5 538.95 508.6 541.1 511.05 541.1 514.3 L541.05 515 Q540.9 516.85 541.65 518.55 542.4 520.25 543.85 521.35 545.35 522.5 547.15 522.75 L550.75 522.35 Q551.8 522 552.8 522 555.2 522 556.95 523.7 558.65 525.4 558.65 527.85 558.65 530.25 556.95 531.95 555.2 533.65 552.8 533.65 551.3 533.65 550 532.95 548.75 532.3 547.95 531.1 546.85 529.45 545.05 528.6 543.3 527.8 541.3 528 539.35 528.2 537.8 529.35 536.2 530.5 535.45 532.3 535.05 533.25 534.3 533.85 533.55 534.5 532.55 534.7 529.85 535.3 528.25 537.55 526.65 539.8 526.95 542.55 L527 542.7 Q527.05 544.35 527.85 545.85 528.65 547.3 530 548.25 531.35 549.2 533 549.45 L536.25 549.25 537.45 549.05 Q539.1 549.05 540.3 550.25 541.45 551.45 541.45 553.1 541.45 554.8 540.3 555.95 539.1 557.15 537.45 557.15 536.3 557.15 535.3 556.55 533.8 555.55 532 555.4 530.2 555.3 528.55 556.05 526.9 556.8 525.8 558.2 524.7 559.65 524.4 561.45 524.2 562.9 523.1 563.85 521.95 564.8 520.45 564.8 518.8 564.8 517.6 563.65 516.4 562.45 516.4 560.8 516.4 559.65 517 558.7 517.6 557.75 518.55 557.2 520.05 556.4 521.05 555 522 553.6 522.25 551.9 522.5 550.2 521.9 548.6 521.35 547 520.15 545.8 518.95 544.65 518.9 542.95 518.9 541.45 518.3 540.05 517.7 538.65 516.55 537.65 515.4 536.65 514 536.2 L511 535.9 509.45 535.8 504.9 536.05 Q502.7 536.95 501.45 539 500.25 541.05 500.45 543.45 500.7 545.8 502.35 547.55 503.4 548.65 503.4 550.25 503.4 551.9 502.25 553.1 501.05 554.3 499.4 554.3 497.5 554.3 496.3 552.85 495.15 551.5 493.5 550.85 491.85 550.15 490.1 550.35 488.35 550.55 486.85 551.55 485.4 552.55 484.55 554.1 484.05 555.05 483.1 555.65 482.1 556.25 480.95 556.25 479.3 556.25 478.1 555.05 476.95 553.85 476.95 552.2 476.95 550.6 478.05 549.45 479.65 547.8 480 545.55 480.35 543.3 479.3 541.25 478.9 540.45 478.9 539.5 478.9 537.85 480.1 536.65 481.25 535.5 482.95 535.5 L483.7 535.55 Q486.5 536.15 488.95 534.6 491.35 533.1 492.05 530.3 L492.1 530.15 Q493.1 527.75 492.3 525.25 491.5 522.8 489.3 521.4 L488.35 520.5 Q487.05 518.65 485 517.8 L480.7 517.55 479.9 517.65 Q478.85 517.65 477.95 517.15 476.7 516.45 475.25 516.3 L472.4 516.55 Q471 516.95 469.9 517.9 468.75 518.8 468.1 520.1 L466.65 521.7 Q465.7 522.3 464.55 522.3 462.85 522.3 461.65 521.1 460.5 519.95 460.5 518.25 460.5 516.45 461.85 515.3 463.9 513.45 464.2 510.7 464.55 507.95 462.9 505.7 461.5 503.8 461.5 501.35 461.5 498.3 463.7 496.1 465.85 493.9 468.95 493.85 L469.1 493.85"/>
    <path stroke="none" fill="#FFFFFF" d="M662.1 494.4 L662.2 494.4 Q664.3 494.4 665.8 492.9 667.3 491.45 667.3 489.35 667.35 486.8 669.15 485 670.95 483.25 673.5 483.25 676.05 483.25 677.9 485.05 679.7 486.85 679.7 489.45 679.7 491.5 678.5 493.1 677.5 494.5 677.5 496.15 677.5 497.85 678.5 499.2 679.5 500.6 681.15 501.05 L684.35 500.95 686.5 500.55 Q689.05 500.55 690.9 502.4 692.7 504.2 692.7 506.75 692.7 509.3 690.9 511.15 689.05 512.95 686.5 512.95 684.85 512.95 683.45 512.15 682.05 511.35 680.45 511.5 678.85 511.6 677.6 512.65 676.65 513.45 675.45 513.8 674.2 514.2 673.3 515.15 672.35 516.1 672.05 517.4 671.7 518.7 672.05 519.95 672.35 521.25 673.3 522.2 L674 523.1 Q674.9 524.45 676.4 525.05 L679.5 525.2 681 525 Q683.6 525 685.4 526.85 687.2 528.65 687.2 531.2 687.2 533.8 685.4 535.6 683.6 537.45 681 537.45 679.45 537.45 678.05 536.65 676.7 535.9 675.85 534.65 674.95 533.3 673.45 532.7 L670.45 532.45 669.75 532.6 669.7 532.6 Q668.3 532.8 667.15 533.7 666.05 534.55 665.55 535.9 665.05 537.25 665.3 538.6 665.6 540 666.55 541.1 668.1 542.85 668.1 545.2 668.1 547.8 666.3 549.6 664.5 551.4 661.9 551.4 659.35 551.4 657.55 549.6 655.7 547.8 655.7 545.2 L655.9 543.8 Q656.3 542.05 655.5 540.4 654.65 538.75 653 537.95 651.65 537.35 650.7 536.2 649.7 534.95 648.1 534.5 L644.95 534.7 642.8 535.05 640.75 534.75 637.85 534.6 Q636.35 535 635.35 536.1 634.3 537.25 634.05 538.75 633.8 540.25 634.45 541.65 L634.5 541.75 634.7 542.35 Q635.1 543.5 635.95 544.35 L637.9 545.55 Q639.75 546.15 640.95 547.8 642.1 549.4 642.1 551.4 642.1 554 640.3 555.8 638.5 557.6 635.9 557.6 633.85 557.6 632.2 556.4 630.6 555.2 630 553.3 629.65 552.15 628.8 551.3 627.95 550.4 626.8 550 625.3 549.5 624.25 548.4 623.2 547.25 622.8 545.75 622.45 544.5 621.6 543.6 620.75 542.65 619.6 542.2 L617.15 541.95 Q615.9 542.15 614.9 542.85 L614.45 543.15 Q613.05 543.95 612.35 545.4 611.7 546.9 611.95 548.45 L612.05 549.5 Q612.05 552.05 610.25 553.9 608.4 555.7 605.85 555.7 603.55 555.7 601.8 554.2 600.05 552.7 599.7 550.45 599.4 548.45 597.8 547.2 596.2 545.95 594.15 546.15 L593.5 546.2 Q590.95 546.2 589.15 544.4 587.3 542.55 587.3 540 587.3 537.75 588.8 536 590.25 534.3 592.45 533.9 593.55 533.7 594.45 533.1 L595.95 531.5 Q596.5 530.55 596.65 529.4 596.75 528.3 596.4 527.25 596.1 526.3 596.1 525.3 596.1 524.4 596.35 523.45 596.95 521.6 596.15 519.85 595.35 518.05 593.55 517.25 591.9 516.55 590.9 515.05 589.85 513.5 589.85 511.6 589.85 509.05 591.65 507.2 593.5 505.4 596.05 505.4 L598.4 505.85 601.5 506.1 Q603.05 505.75 604.15 504.5 605.25 503.3 605.4 501.7 605.55 500.05 604.75 498.65 L604.4 497.85 Q603.9 496.6 602.9 495.75 601.9 494.9 600.6 494.65 598.45 494.2 597 492.5 595.6 490.8 595.6 488.55 595.6 486 597.4 484.15 599.2 482.35 601.8 482.35 603.75 482.35 605.35 483.45 606.9 484.55 607.6 486.35 608.05 487.55 609.05 488.45 610.1 489.3 611.4 489.55 L612.55 489.9 Q613.55 490.3 614.65 490.3 615.7 490.25 616.7 489.8 617.7 489.3 618.4 488.5 619.1 487.65 619.4 486.6 619.75 485.5 620.4 484.6 621.65 482.95 621.4 480.9 621.15 478.8 619.5 477.5 618.4 476.65 617.75 475.4 617.1 474.1 617.1 472.6 617.1 470.05 618.95 468.25 620.75 466.4 623.3 466.4 625.85 466.4 627.7 468.2 629.5 470 629.5 472.55 629.55 474.05 630.35 475.3 631.15 476.55 632.55 477.2 L635.35 477.55 Q636.85 477.35 637.95 476.35 639.7 474.85 642.05 474.85 644.6 474.85 646.45 476.65 648.25 478.45 648.25 481.05 L648 482.75 Q647.45 484.55 648.2 486.25 648.95 487.95 650.6 488.8 652.7 489.8 653.6 491.95 654.4 493.85 656.25 494.65 L660.05 494.75 662.1 494.4"/>
    <path stroke="none" fill="#FFFFFF" d="M744.6 472.4 L748.6 472.25 Q750.6 471.45 751.75 469.7 752.5 468.5 753.75 467.8 755 467.1 756.5 467.1 758.8 467.1 760.45 468.75 762.1 470.4 762.1 472.7 762.1 474.3 761.25 475.7 760.05 477.6 760.35 479.85 760.6 482.05 762.2 483.65 764 485.4 765.25 487.65 766.05 489.05 767.4 489.95 768.8 490.85 770.45 490.95 772.1 491 773.6 490.3 775.05 489.6 776 488.3 L776.8 487.2 Q778.1 485.55 778.15 483.45 778.2 481.3 777 479.6 776 478.15 776 476.4 776 474.05 777.65 472.4 779.3 470.75 781.65 470.75 783.1 470.75 784.4 471.45 785.65 472.15 786.4 473.4 787.2 474.7 788.5 475.45 789.8 476.25 791.3 476.35 L794.25 475.9 Q795.65 475.3 796.6 474.15 797.4 473.2 798.5 472.7 799.65 472.15 800.9 472.15 803.2 472.15 804.85 473.85 806.5 475.45 806.5 477.8 806.5 480.1 804.95 481.7 803.45 483.25 803.2 485.35 802.95 487.5 804 489.35 L804.6 490.45 Q805.65 492.55 807.8 493.5 L812.15 493.75 813.75 493.5 Q816.1 493.5 817.75 495.15 819.4 496.8 819.4 499.15 L819.05 501.1 Q818.25 503.15 818.95 505.3 819.65 507.4 821.5 508.6 822.65 509.35 823.3 510.6 824 511.85 824 513.3 824 515.65 822.35 517.25 820.7 518.95 818.4 518.95 L817.65 518.85 815.15 519 Q813.9 519.35 812.85 520.15 811.85 520.95 811.2 522.05 810.6 523.15 810.45 524.45 810.2 526.55 808.6 528 807 529.45 804.85 529.45 L804.5 529.4 801.75 529.8 Q800.4 530.25 799.4 531.25 798.4 532.3 797.9 533.6 797.45 534.95 797.6 536.35 L797.6 536.85 Q797.6 539.15 795.95 540.85 794.3 542.45 791.95 542.45 789.95 542.45 788.45 541.2 786.9 540 786.45 538.05 786.2 536.75 785.35 535.65 784.55 534.55 783.35 533.85 782.2 533.2 780.8 533.1 L778.15 533.4 Q775.7 534.3 772.9 534.3 L772.8 534.3 Q770.55 534.25 768.8 535.6 767 536.95 766.45 539.1 765.9 541.25 766.8 543.3 767.75 545.3 769.7 546.3 771.1 547.05 771.9 548.35 772.75 549.75 772.75 551.35 772.75 553.65 771.15 555.3 769.45 556.95 767.15 556.95 764.9 556.95 763.3 555.45 761.7 553.95 761.55 551.75 761.4 549.55 759.85 547.9 758.4 546.25 756.2 545.9 754 545.55 752.05 546.65 750.1 547.7 749.3 549.8 748.65 551.35 747.25 552.35 745.8 553.3 744.05 553.3 741.75 553.3 740.1 551.65 738.45 550 738.45 547.65 L738.5 546.8 Q738.8 545.1 738.2 543.5 737.6 541.9 736.3 540.85 734.5 539.35 733.2 537.45 732.3 536.1 730.85 535.35 729.4 534.6 727.75 534.7 726.15 534.75 724.7 535.55 723.3 536.4 722.5 537.8 721.75 539.05 720.5 539.8 719.2 540.55 717.65 540.55 715.3 540.55 713.65 538.9 712 537.3 712 534.95 712 532.6 713.65 531 715.3 529.3 717.65 529.3 719.25 529.3 720.6 528.55 722 527.85 722.9 526.5 723.8 525.25 723.95 523.65 724.15 522.1 723.55 520.6 L723.4 520.2 Q722.8 518.4 721.3 517.2 719.75 516.05 717.85 515.9 715.65 515.7 714.15 514.1 712.65 512.5 712.65 510.25 712.65 507.95 714.3 506.3 715.95 504.65 718.3 504.65 720.15 504.65 721.65 505.75 723.1 506.85 723.65 508.55 724.25 510.4 725.75 511.6 727.3 512.8 729.2 512.95 L729.7 513 Q731.55 513.3 733.25 512.55 734.9 511.85 735.95 510.35 737 508.85 737.1 507 737.2 505.15 736.25 503.6 734.15 499.8 734.15 495.5 L734.25 493.65 Q734.45 492.1 733.9 490.65 733.4 489.2 732.25 488.2 731.1 487.15 729.6 486.75 L726.6 486.65 725.45 486.8 Q723.1 486.8 721.5 485.15 719.8 483.5 719.8 481.15 719.8 478.85 721.5 477.2 723.1 475.55 725.45 475.55 727.35 475.55 728.9 476.7 729.95 477.55 731.3 477.85 L733.95 477.95 Q735.3 477.7 736.45 476.9 737.55 476.1 738.25 474.95 739 473.65 740.3 472.95 741.6 472.15 743.1 472.15 L744.6 472.4"/>
    <path stroke="none" fill="#FFFFFF" d="M852.65 561.5 Q854.35 561.6 855.7 560.45 857.05 559.3 857.25 557.55 857.4 556.2 858.15 555 858.85 553.85 859.95 553.05 860.95 552.3 861.45 551.15 861.95 550 861.8 548.75 861.6 547.5 860.8 546.55 860 545.6 858.8 545.2 857.35 544.7 856.3 543.6 855.25 542.55 854.75 541.1 854.35 540 853.55 539.25 852.65 538.45 851.55 538.2 L849.3 538.25 Q848.2 538.55 847.4 539.35 846.35 540.35 844.95 540.35 843.5 540.35 842.5 539.35 841.45 538.3 841.45 536.9 841.45 535.45 842.5 534.4 843.5 533.4 844.95 533.4 846.6 533.4 847.6 534.65 848.65 535.95 850.3 536.2 851.9 536.5 853.35 535.65 854.75 534.8 855.3 533.25 855.8 531.7 855.2 530.15 854.75 529.05 854.75 527.8 854.75 525.6 856.1 523.8 856.9 522.8 857.05 521.5 857.15 520.2 856.55 519.05 L856.15 518.1 Q855.75 517.1 854.95 516.35 854.15 515.65 853.15 515.4 851 514.8 849.7 513.1 848.3 511.35 848.3 509.1 848.3 506.4 850.2 504.5 852.15 502.6 854.85 502.6 856.5 502.6 857.95 503.4 L858.7 503.75 859.25 504.3 Q860.4 505.4 860.95 506.8 861.3 507.85 862.1 508.6 862.9 509.3 863.95 509.6 865.35 509.95 866.45 510.9 867.95 512.15 869.85 511.95 871.75 511.7 872.9 510.15 L873.75 509.25 Q874.8 508.3 875.1 506.85 875.4 505.45 874.8 504.15 874.35 503.1 874.25 501.9 874.2 500.95 873.75 500.05 L872.55 498.6 Q871.75 498 870.8 497.8 869.85 497.6 868.9 497.8 L867.55 497.95 Q865.85 497.95 864.4 497.1 L863.7 496.8 863.15 496.2 Q861.65 494.85 861.2 492.85 860.8 491 859.15 490 857.6 489 855.75 489.45 L854.15 489.65 Q851.45 489.65 849.55 487.75 847.65 485.85 847.65 483.15 847.65 480.45 849.55 478.55 851.45 476.65 854.15 476.65 856.45 476.65 858.25 478.1 860.05 479.5 860.5 481.75 860.95 483.55 862.5 484.55 864.05 485.55 865.9 485.15 L866.15 485.05 Q867.7 484.7 868.7 483.45 869.65 482.2 869.6 480.6 L869.6 480.4 Q869.65 477.7 871.55 475.85 873.45 473.95 876.1 473.95 878 473.95 879.55 474.9 881.1 475.85 881.9 477.45 882.75 479.05 884.4 479.65 886.55 480.4 887.7 482.25 888.3 483.15 889.25 483.7 890.2 484.25 891.25 484.3 892.35 484.3 893.35 483.9 L894.95 482.6 Q895.65 481.7 896.6 481.1 898.3 480.05 898.65 478.1 899 476.15 897.75 474.6 896.4 472.85 896.4 470.6 896.4 467.9 898.3 465.95 900.2 464.05 902.9 464.05 905.6 464.05 907.5 465.95 909.4 467.9 909.4 470.6 909.4 472.25 908.6 473.7 908.1 474.7 908.1 475.85 908.1 477 908.6 477.95 909.15 478.95 910.1 479.6 911.05 480.2 912.15 480.3 L914.1 480.75 917.05 480.9 Q918.5 480.45 919.4 479.2 920.5 477.7 922.15 477 923.05 476.6 923.75 475.85 924.4 475.15 924.65 474.2 924.95 473.25 924.85 472.25 924.7 471.3 924.15 470.45 923.6 469.65 923.6 468.6 L923.8 467.45 Q924.5 465.7 923.65 464 922.85 462.25 921.05 461.65 920 461.3 919.35 460.45 918.65 459.5 918.65 458.35 918.65 456.9 919.65 455.9 920.7 454.9 922.15 454.9 923.6 454.9 924.65 455.95 925.6 456.95 926.95 457.25 L929.6 456.95 930.9 456.7 Q932.35 456.7 933.35 457.75 934.4 458.75 934.4 460.2 934.4 461.1 933.9 461.95 L932.65 463.2 Q931.4 463.9 930.85 465.2 930.25 466.55 930.5 467.95 L930.6 468.6 Q930.6 469.4 930.2 470.15 L929.3 471.35 Q928.5 471.95 928.05 472.8 927.65 473.7 927.6 474.7 927.6 475.7 927.95 476.55 928.35 477.5 929.05 478.15 930.1 479.05 930.65 480.3 931.25 481.55 931.25 483 931.25 485.1 930 486.8 928.8 488.5 926.85 489.15 925.25 489.7 924.4 491.1 923.6 492.5 923.85 494.15 L923.95 495.2 Q923.95 496.95 923.1 498.5 922.2 499.95 920.75 500.8 919.05 501.85 918.7 503.8 918.5 504.7 918.7 505.65 918.95 506.6 919.5 507.3 L920.05 508.2 Q920.5 509.1 921.3 509.7 922.1 510.3 923.05 510.5 924 510.7 925 510.5 925.95 510.3 926.75 509.7 928.45 508.35 930.65 508.35 933.35 508.35 935.25 510.3 937.2 512.2 937.2 514.9 937.2 517.6 935.25 519.5 933.35 521.4 930.65 521.4 928.8 521.4 927.25 520.45 925.75 519.5 924.9 517.9 924.45 517 923.65 516.45 922.85 515.85 921.9 515.65 920.95 515.4 920 515.65 919 515.85 918.25 516.45 L916.9 517.25 Q915.1 518 914.45 519.8 913.8 521.65 914.65 523.35 L915.25 525.05 915.35 525.4 915.55 527.15 915.25 529.15 Q914.75 530.65 915.25 532.1 915.8 533.55 917.1 534.35 918.45 535.2 920 535 921.5 534.8 922.6 533.75 924.55 531.85 927.2 531.85 929.9 531.85 931.8 533.75 933.7 535.65 933.7 538.35 933.7 541.05 931.8 542.95 929.9 544.85 927.2 544.85 925.45 544.85 923.95 544 922.55 543.2 920.95 543.5 919.35 543.75 918.3 545 L917.15 546.1 Q915.75 547.15 915.4 548.85 915.1 550.6 916 552.1 917 553.7 917 555.55 917 558.25 915.1 560.15 913.2 562.05 910.5 562.05 907.85 562.05 905.95 560.2 904.85 559.1 903.25 558.95 901.65 558.85 900.3 559.75 898.65 560.9 896.6 560.9 893.9 560.9 892 559 890.1 557.1 890.1 554.4 890.1 553.15 890.55 551.95 L890.9 550.05 Q890.85 549.05 890.4 548.15 L889.1 546.7 Q888.35 546.1 887.35 545.9 L886.3 545.55 884.2 545.25 Q883.1 545.35 882.2 545.95 881.25 546.55 880.75 547.5 880.2 548.45 880.15 549.55 880.05 552 878.35 553.8 876.6 555.55 874.15 555.75 872.65 555.9 871.55 556.9 870.4 557.95 870.15 559.4 L870.05 559.85 Q869.85 560.8 870.05 561.8 870.25 562.75 870.9 563.55 871.55 564.45 871.55 565.65 871.55 567.1 870.55 568.1 869.55 569.1 868.1 569.1 867.05 569.1 866.2 568.55 865.35 568 864.95 567.1 864.55 566.2 863.8 565.55 863.05 564.95 862.1 564.65 L861.45 564.45 Q859.8 563.8 858.2 564.4 856.6 565.05 855.8 566.55 L854.55 567.95 Q853.7 568.45 852.7 568.45 851.25 568.45 850.25 567.45 849.25 566.45 849.25 564.95 849.25 563.55 850.25 562.55 851.2 561.55 852.65 561.5 M944.2 502.6 Q943.4 501.4 942.05 500.85 L939.3 500.75 938.5 500.85 Q937.05 500.85 936.05 499.85 935 498.85 935 497.35 935 495.95 936.05 494.9 937.05 493.9 938.5 493.9 939.4 493.9 940.15 494.35 940.95 494.75 941.4 495.45 942.2 496.65 943.55 497.2 L946.3 497.3 947.1 497.2 Q948.55 497.2 949.55 498.25 950.55 499.25 950.55 500.7 950.55 502.1 949.55 503.15 948.55 504.15 947.1 504.15 946.2 504.15 945.45 503.75 L944.2 502.6"/>
    <path stroke="none" fill="#FFFFFF" d="M1070.15 495.5 L1069.5 495.65 1067.8 495.95 Q1066.2 495.95 1064.85 495.05 1063.55 494.2 1062.9 492.75 1062.4 491.6 1061.4 490.8 1060.4 490.05 1059.15 489.8 L1056.75 489.9 Q1055.55 490.25 1054.6 491.1 1053.35 492.35 1051.7 492.8 1050.05 493.35 1049.05 494.7 1048.05 496.05 1048.05 497.75 L1047.85 499.25 Q1047.65 500.35 1047.9 501.4 1048.1 502.5 1048.8 503.4 1049.45 504.35 1050.45 504.85 1051.45 505.4 1052.55 505.45 1055.45 505.7 1057.5 507.85 1059.5 510.05 1059.5 513 1059.5 514.6 1058.9 515.95 1058.1 518 1058.95 520 1059.8 522 1061.85 522.8 1065.5 524.15 1067.75 527.35 1070 530.55 1070 534.55 1070 539.7 1066.35 543.4 1062.65 547.05 1057.5 547.05 1054 547.05 1051.05 545.25 1048.2 543.55 1046.55 540.6 1045.85 539.35 1044.55 538.65 1043.3 537.95 1041.85 538 1040.4 538 1039.2 538.8 1038 539.6 1037.35 540.9 1035.85 544.1 1032.8 546.05 1029.75 548 1026.05 548 1021.35 548 1017.8 544.9 1014.3 541.85 1013.65 537.2 1013.45 535.75 1012.5 534.6 1011.55 533.45 1010.15 533 1008.25 532.4 1006.9 530.85 1005.6 529.35 1003.6 529.15 1001.6 528.95 1000 530.1 998.05 531.5 995.65 531.5 993.4 531.5 991.6 530.3 989.75 529.15 988.85 527.15 988 525.4 986.15 524.6 984.35 523.85 982.45 524.55 L978.35 525.2 Q973.15 525.2 969.5 521.55 965.85 517.9 965.85 512.7 965.85 507.9 969.05 504.3 972.25 500.75 976.95 500.25 978.15 500.1 979.15 499.45 L980.8 497.8 Q981.45 496.8 981.55 495.6 981.65 494.4 981.25 493.3 980.8 492.1 980.8 490.8 980.8 487.65 983 485.45 985.25 483.2 988.35 483.2 L989.45 483.3 Q991.7 483.65 993.45 482.2 995.2 480.8 995.4 478.55 995.45 477.6 995.75 476.75 996.1 475.65 995.95 474.45 995.8 473.3 995.2 472.3 994.55 471.3 993.5 470.7 992.5 470.1 991.3 469.95 989 469.75 987.4 468 985.8 466.25 985.8 463.9 985.8 461.35 987.6 459.55 989.4 457.75 991.9 457.75 994.45 457.75 996.25 459.55 998.05 461.35 998.05 463.9 L997.9 465.2 Q997.6 466.35 997.9 467.5 998.15 468.65 998.85 469.55 999.6 470.5 1000.7 471 1001.75 471.5 1002.9 471.5 1005.4 471.5 1007.45 473.05 1009.4 474.5 1010.15 476.8 1010.7 478.65 1012.3 479.65 1013.9 480.65 1015.75 480.4 L1016.7 480.35 1018.2 480.5 1020.6 480.4 Q1021.85 480.05 1022.75 479.2 L1024.1 477.2 Q1024.5 476 1024.35 474.8 L1024.3 473.55 Q1024.35 471.2 1022.65 469.6 1021.55 468.55 1020.95 467.2 1020.3 465.75 1020.3 464.15 1020.3 461 1022.5 458.8 1024.7 456.55 1027.85 456.55 1030.2 456.55 1032.15 457.95 1034 459.25 1034.85 461.35 1035.25 462.4 1036.1 463.2 L1037.95 464.35 Q1040.25 465.15 1042.3 463.9 1043.95 462.9 1046.05 462.9 1049.15 462.9 1051.4 465.15 1053.6 467.35 1053.6 470.45 1053.6 472.1 1052.9 473.6 1052.15 475.2 1052.55 476.9 1052.95 478.65 1054.3 479.75 1056.05 481.25 1056.7 483.4 1057.1 484.6 1057.95 485.5 1058.8 486.45 1060 486.85 L1062.45 487.05 Q1063.65 486.85 1064.7 486.1 1066.1 485.1 1067.8 485.1 1070.05 485.1 1071.65 486.7 1073.2 488.3 1073.2 490.55 1073.2 491.95 1072.5 493.2 1071.85 494.35 1070.7 495.1 L1070.15 495.5 M1037.1 490.95 Q1038.85 490.05 1039.65 488.25 1040.35 486.4 1039.65 484.5 1039 482.65 1037.25 481.75 1035.5 480.8 1033.6 481.25 L1031.85 481.45 1030.4 481.3 1027.95 481.4 Q1026.75 481.75 1025.85 482.6 1024.9 483.45 1024.5 484.6 1024.05 485.8 1024.2 487.05 L1024.3 487.9 Q1024.3 489.3 1023.75 490.6 1023.1 492.35 1023.65 494.1 1024.25 495.9 1025.85 496.9 L1026.1 497.05 Q1028.1 498.25 1030.35 497.55 1031.45 497.2 1032.25 496.45 1033.1 495.7 1033.55 494.7 1034.65 492.15 1037.1 490.95 M1074.45 504.55 L1075.1 504.35 1076.8 504.1 Q1079.05 504.1 1080.65 505.7 1082.2 507.25 1082.2 509.5 1082.2 511.75 1080.65 513.35 1079.05 514.9 1076.8 514.9 1074.6 514.9 1073 513.35 1071.4 511.75 1071.4 509.5 1071.4 508.1 1072.1 506.85 1072.8 505.65 1073.95 504.95 L1074.45 504.55 M1046.55 518.3 Q1045.6 517.35 1044.35 516.95 L1041.75 516.9 Q1040.45 517.2 1039.45 518.1 1038.45 519 1038.05 520.25 L1036.8 522.5 Q1035.75 523.8 1035.7 525.45 1035.6 527.1 1036.5 528.55 L1037.05 529.45 Q1037.75 530.7 1039.05 531.4 1040.25 532.1 1041.7 532.05 1043.15 532 1044.35 531.2 1045.55 530.4 1046.2 529.15 1046.95 527.55 1048 526.35 1048.7 525.6 1049 524.55 L1049.25 522.5 Q1049.05 520.3 1047.3 518.9 L1046.55 518.3 M1044.25 556.6 Q1046.5 556.6 1048.05 558.2 1049.65 559.8 1049.65 562 1049.65 564.25 1048.05 565.85 1046.5 567.4 1044.25 567.4 1042 567.4 1040.4 565.85 1038.85 564.25 1038.85 562 1038.85 559.75 1040.4 558.2 1042 556.6 1044.25 556.6 M1001.8 486.55 L999.7 486.65 Q998.65 486.95 997.8 487.65 996 489.05 995.9 491.3 L995.6 492.9 Q995.2 494.2 995.55 495.5 995.8 496.85 996.75 497.85 997.65 498.85 998.95 499.25 L1001.55 499.45 1002.9 499.3 1004.65 499.5 1007.6 499.35 Q1009.1 498.8 1010 497.5 1010.95 496.25 1011 494.7 1011.1 493.15 1010.25 491.8 L1009.4 489.9 Q1008.8 488.2 1007.25 487.25 1005.65 486.3 1003.85 486.55 L1002.9 486.65 1001.8 486.55 M989.2 553.15 Q988.75 551.05 986.95 549.85 985.15 548.65 983.05 549.1 L981.95 549.2 Q979.7 549.2 978.15 547.6 976.55 546.05 976.55 543.8 976.55 541.55 978.15 539.95 979.75 538.4 981.95 538.4 983.65 538.4 985.05 539.35 986.4 540.3 987 541.8 987.8 543.85 989.75 544.65 991.75 545.55 993.8 544.7 995.15 544.15 996.6 544.15 999.7 544.15 1001.95 546.35 1004.15 548.6 1004.15 551.7 1004.15 554.85 1001.95 557.05 999.7 559.25 996.6 559.25 993.85 559.25 991.75 557.5 989.7 555.8 989.2 553.15"/>
    <path stroke="none" fill="#FFFFFF" d="M1120.75 457.2 L1123.95 457.3 Q1125.6 456.85 1126.65 455.6 1127.9 454.15 1129.8 454.15 1131.5 454.15 1132.7 455.35 1133.95 456.55 1133.95 458.2 L1133.95 459.05 Q1133.8 461.25 1135.3 462.9 1136.7 464.6 1138.95 464.8 1140.1 464.9 1141 465.55 1141.95 466.25 1142.4 467.25 1143.2 469.2 1145.15 470.05 1147 470.95 1149 470.35 L1152.4 469.85 Q1154.2 469.85 1155.95 470.4 L1158.45 470.55 Q1159.75 470.4 1160.8 469.65 L1162.45 467.75 Q1163.05 466.6 1163.1 465.3 1163.2 461 1166.3 458.05 1169.4 455.05 1173.7 455.05 1178.1 455.05 1181.2 458.15 1184.3 461.25 1184.3 465.65 1184.3 468.65 1182.7 471.3 1181.95 472.5 1181.85 473.9 1181.75 475.3 1182.35 476.6 1182.95 477.85 1184.1 478.7 1185.25 479.5 1186.65 479.7 1188.2 479.85 1189.2 481.05 1190.25 482.25 1190.25 483.85 1190.25 485.55 1189.05 486.8 1187.8 488 1186.1 488 L1185.3 487.95 1182.35 488.15 Q1180.9 488.7 1179.9 489.85 1178.95 491.05 1178.75 492.6 1178.55 494.1 1179.15 495.5 1179.75 496.9 1179.75 498.3 L1179.7 498.8 Q1179.6 500.1 1180.1 501.3 1180.55 502.5 1181.55 503.35 1182.5 504.25 1183.75 504.6 L1186.3 504.65 1188.1 504.45 1189.05 504.5 1191.3 504.3 1193.25 503.2 Q1195.1 501.65 1195.15 499.2 1195.2 497.55 1196.4 496.35 1197.65 495.15 1199.35 495.15 1201.05 495.15 1202.3 496.35 1203.5 497.6 1203.5 499.3 1203.5 500.45 1202.95 501.4 1202.4 502.35 1201.5 502.9 1199.85 503.9 1199.15 505.65 1198.5 507.4 1199.05 509.25 1199.6 511.05 1201.15 512.15 1202.7 513.25 1204.6 513.15 L1205.15 513.1 Q1206.85 513.15 1208.05 514.35 1209.2 515.55 1209.2 517.3 1209.2 519 1208 520.25 1206.75 521.45 1205.05 521.45 1203.2 521.45 1201.95 520.1 1200.45 518.4 1198.1 518.3 1195.8 518.15 1194.1 519.75 L1193.65 520.15 Q1192.25 521.35 1191.85 523.05 1191.4 524.8 1192.1 526.45 1192.55 527.6 1192.6 528.9 1192.6 530.6 1193.6 531.95 1194.65 533.35 1196.25 533.95 1197.5 534.4 1198.25 535.45 1199.05 536.55 1199.05 537.85 1199.05 539.2 1198.3 540.25 1197.55 541.3 1196.4 541.75 1194.95 542.3 1194.05 543.5 1193.1 544.7 1192.9 546.25 1192.75 547.75 1193.35 549.15 1193.95 550.55 1195.2 551.4 1196.05 552 1196.5 552.85 1197 553.75 1197 554.8 1197 556.5 1195.75 557.75 1194.55 559 1192.8 559 1191.4 559 1190.3 558.15 1188.8 556.95 1186.95 556.95 1185.1 556.95 1183.6 558.1 L1182.6 558.75 Q1181.1 559.7 1180.4 561.4 1179.75 563.05 1180.2 564.8 L1180.3 565.7 Q1180.3 567.45 1179.05 568.65 1177.85 569.9 1176.1 569.9 1174.35 569.9 1173.15 568.65 1171.9 567.45 1171.9 565.7 L1171.95 565.05 Q1172.3 563.3 1171.55 561.65 1170.75 560 1169.2 559.15 L1168.2 558.6 Q1166.75 557.6 1165 557.65 1163.2 557.7 1161.8 558.8 1159.95 560.2 1157.6 560.2 L1156.8 560.15 Q1155.25 559.95 1153.8 560.65 1152.35 561.3 1151.5 562.65 1150.55 564.15 1149 565 1147.4 565.9 1145.55 565.9 1142.65 565.9 1140.6 563.85 1138.5 561.8 1138.5 558.9 1138.5 555.9 1140.65 553.85 1142.4 552.2 1142.35 549.7 1142.3 547.25 1140.45 545.7 1138.4 543.95 1137.15 541.6 1135.85 539.15 1135.55 536.45 1135.35 534.45 1133.9 533.1 1132.45 531.7 1130.4 531.55 1127.65 531.4 1125.7 529.35 1123.8 527.35 1123.8 524.55 1123.8 522.05 1125.4 520.1 1126.95 518.15 1129.4 517.65 1131.6 517.2 1132.85 515.3 1134.15 513.35 1133.65 511.15 1133.3 509.6 1133.3 508.05 1133.3 505.45 1134.2 503.05 1134.85 501.25 1134.25 499.45 1133.7 497.65 1132.15 496.6 1130.6 495.55 1128.7 495.65 1126.85 495.8 1125.4 497 1123.95 498.25 1122.05 498.6 1120.05 498.95 1118.75 500.6 1117.45 502.25 1117.55 504.3 L1117.6 505 Q1117.55 506.7 1116.3 507.9 1115.1 509.05 1113.4 509.05 1111.85 509.05 1110.65 508.05 1109.5 507.05 1109.25 505.55 1109.05 504.2 1108.25 503.1 1107.45 502 1106.2 501.4 L1103.6 500.9 Q1102.25 500.95 1101.05 501.65 1100.15 502.2 1099 502.2 1097.25 502.2 1096.05 500.95 1095 499.9 1094.85 498.45 L1094.8 498 1094.85 497.55 Q1095 496.25 1095.85 495.25 1096.9 494.05 1098.45 493.85 1100.15 493.65 1101.45 492.5 1102.75 491.35 1103.1 489.65 1103.45 488.3 1104.55 487.4 1105.7 486.5 1107.15 486.5 L1108.05 486.6 Q1110.05 487.05 1111.85 486.1 1113.7 485.15 1114.45 483.25 1115.2 481.35 1114.55 479.4 1113.85 477.5 1112.1 476.45 1109.65 475.05 1108.25 472.65 1106.8 470.2 1106.8 467.3 1106.8 462.85 1109.9 459.8 1113 456.65 1117.4 456.65 1119.15 456.65 1120.75 457.2 M1112.5 549.25 Q1113.25 548.05 1113.35 546.75 1113.4 545.4 1112.85 544.15 1112.3 542.9 1111.25 542.05 1110.15 541.25 1108.8 540.95 1107.35 540.7 1106.4 539.55 1105.4 538.35 1105.4 536.85 1105.4 535.15 1106.65 533.9 1107.85 532.7 1109.6 532.7 1111.2 532.7 1112.35 533.7 1113.5 534.7 1113.75 536.25 1114.05 538.6 1115.95 539.95 1117.9 541.35 1120.2 540.9 L1120.8 540.8 Q1122.55 540.8 1123.75 542.05 1125 543.3 1125 545 1125 546.15 1124.4 547.15 1123.85 548.1 1122.85 548.65 1120.7 549.9 1120.2 552.25 1119.9 553.65 1118.75 554.6 1117.6 555.5 1116.15 555.5 1114.4 555.5 1113.15 554.3 1111.95 553.05 1111.95 551.35 1111.95 550.2 1112.5 549.25"/>
  </g>
</svg>