<svg xmlns="http://www.w3.org/2000/svg" xmlns:xlink="http://www.w3.org/1999/xlink">
  <defs/>
  <g>
    <path stroke="none" fill="#FFFFFF" d="M-31.05 -39.3 Q-29.6 -37.85 -27.7 -37.4 L-23.85 -37.5 Q-21.95 -38.1 -20.6 -39.6 -19.3 -41.05 -18.9 -43 -18.3 -46.25 -15.95 -48.55 -13.5 -50.95 -10.1 -51.45 -5.8 -52.1 -2.3 -49.5 1.2 -46.9 1.85 -42.55 2.6 -37.65 2.25 -33.25 2.15 -31.25 3.05 -29.45 3.95 -27.65 5.65 -26.6 7.35 -25.55 9.35 -25.55 11.35 -25.5 13.05 -26.5 15.9 -28.2 20 -30.35 23.9 -32.35 28.05 -31.05 32.25 -29.7 34.25 -25.8 35.7 -23.1 35.4 -19.95 35.05 -17 33.25 -14.6 32.05 -13.05 31.8 -11.1 31.6 -9.1 32.35 -7.35 33.15 -5.5 34.75 -4.4 36.35 -3.25 38.35 -3.05 L45.95 -2.2 Q50.3 -1.6 52.95 1.9 55.6 5.4 54.95 9.7 54.35 14.05 50.85 16.7 47.35 19.3 43.05 18.7 L39.25 18 34.9 18.3 Q32.75 19.15 31.55 21.1 30.3 23 30.4 25.3 30.5 27.55 31.9 29.4 34.3 32.4 34.15 36.3 34 40.25 31.3 43.1 28.3 46.3 23.95 46.45 19.55 46.55 16.4 43.6 8.45 36.15 5.35 26.5 4.55 23.9 2.2 22.55 -0.15 21.15 -2.85 21.7 -5.5 22.2 -7.15 24.4 -8.8 26.6 -8.6 29.3 -8.15 34.7 -8.15 41.1 -8.15 45.5 -11.25 48.55 -14.35 51.65 -18.7 51.65 -23.05 51.65 -26.2 48.55 -29.3 45.5 -29.3 41.1 -29.3 34.7 -27.55 28.95 -26.9 26.85 -27.55 24.75 -28.15 22.65 -29.85 21.3 -31.55 19.9 -33.75 19.7 -35.95 19.55 -37.85 20.6 -41.5 22.6 -45.5 21.6 -49.55 20.6 -51.85 17.1 -54.2 13.4 -53.25 9.1 -52.35 4.85 -48.7 2.45 -40.8 -2.55 -32.35 -3.75 -29.95 -4.1 -28.25 -5.8 -26.55 -7.5 -26.25 -9.9 -25.9 -12.3 -27.1 -14.4 -28.3 -16.5 -30.5 -17.45 -40.9 -21.95 -49.95 -27.35 -53.65 -29.6 -54.75 -33.85 -55.8 -38.1 -53.55 -41.85 -51.3 -45.6 -47.05 -46.65 -42.8 -47.7 -39.1 -45.45 -34.55 -42.75 -31.05 -39.3"/>
  </g>
</svg>