<svg xmlns="http://www.w3.org/2000/svg" xmlns:xlink="http://www.w3.org/1999/xlink">
  <defs/>
  <g>
    <path stroke="none" fill="#FFFFFF" d="M-36.65 -42.5 Q-35.15 -42.4 -33.85 -43.15 -32.55 -43.9 -32 -45.3 -30.4 -49.1 -27 -51.45 -23.45 -53.8 -19.25 -53.8 -15.45 -53.8 -12.2 -51.9 -9 -50 -7.2 -46.8 -6.7 -45.9 -5.9 -45.3 -5.05 -44.7 -4.05 -44.55 -1.15 -44 0.75 -41.75 2.7 -39.45 2.7 -36.45 2.7 -35.1 2.3 -33.9 1.9 -32.75 2.15 -31.5 2.4 -30.3 3.2 -29.4 4.05 -28.5 5.2 -28.1 L7.6 -28 10.25 -28.25 Q15.5 -28.25 19.2 -24.55 22.9 -20.85 22.9 -15.65 22.9 -13 21.85 -10.6 21.25 -9.15 21.6 -7.65 22 -6.15 23.2 -5.15 24.45 -4.2 26 -4.2 27.5 -4.2 28.75 -5.1 31 -6.8 33.55 -7.65 36.25 -8.55 39.1 -8.55 46.2 -8.55 51.25 -3.55 56.3 1.5 56.3 8.6 56.3 15.75 51.25 20.75 46.2 25.8 39.1 25.8 L36.15 25.55 Q34.55 25.25 33.1 26.05 31.7 26.85 31.1 28.35 28.65 34.6 23.1 38.45 17.45 42.4 10.5 42.4 L9.65 42.4 Q8.2 42.35 6.95 43.2 5.75 44 5.25 45.35 3.85 49.15 0.6 51.45 -2.75 53.85 -6.9 53.85 -12.2 53.85 -16 50.05 -19.8 46.25 -19.8 40.9 -19.8 37.4 -18 34.4 -17.25 33.15 -17.4 31.65 -17.55 30.2 -18.5 29.1 -19.5 28 -20.9 27.65 L-23.7 27.85 Q-26.15 28.9 -28.85 28.9 -34.3 28.9 -38.25 25.1 -42.2 21.3 -42.35 15.85 -42.4 14.3 -43.4 13.1 -44.35 11.9 -45.85 11.55 -50.35 10.5 -53.3 6.85 -56.25 3.15 -56.25 -1.6 -56.25 -7.2 -52.25 -11.15 -48.3 -15.1 -42.75 -15.1 -39.9 -15.1 -37.3 -13.95 L-34.05 -13.8 Q-32.45 -14.3 -31.55 -15.75 -30.3 -17.9 -28.45 -19.7 -27.2 -20.9 -27.05 -22.55 -26.9 -24.25 -27.9 -25.65 -28.9 -27 -30.55 -27.4 -32.2 -27.8 -33.7 -27.05 -35.4 -26.15 -37.4 -26.15 -40.8 -26.15 -43.2 -28.55 -45.6 -30.95 -45.6 -34.35 -45.6 -37.75 -43.2 -40.15 -40.8 -42.55 -37.4 -42.55 L-36.65 -42.5"/>
  </g>
</svg>