<svg xmlns="http://www.w3.org/2000/svg" xmlns:xlink="http://www.w3.org/1999/xlink">
  <defs/>
  <g>
    <path stroke="none" fill="#FFFFFF" d="M-23.4 -39.6 L-19.4 -39.75 Q-17.4 -40.55 -16.25 -42.3 -15.5 -43.5 -14.25 -44.2 -13 -44.9 -11.5 -44.9 -9.2 -44.9 -7.55 -43.25 -5.9 -41.6 -5.9 -39.3 -5.9 -37.7 -6.75 -36.3 -7.95 -34.4 -7.65 -32.15 -7.4 -29.95 -5.8 -28.35 -4 -26.6 -2.75 -24.35 -1.95 -22.95 -0.6 -22.05 0.8 -21.15 2.45 -21.05 4.1 -21 5.6 -21.7 7.05 -22.4 8 -23.7 L8.8 -24.8 Q10.1 -26.45 10.15 -28.55 10.2 -30.7 9 -32.4 8 -33.85 8 -35.6 8 -37.95 9.65 -39.6 11.3 -41.25 13.65 -41.25 15.1 -41.25 16.4 -40.55 17.65 -39.85 18.4 -38.6 19.2 -37.3 20.5 -36.55 21.8 -35.75 23.3 -35.65 24.8 -35.55 26.25 -36.1 27.65 -36.7 28.6 -37.85 29.4 -38.8 30.5 -39.3 31.65 -39.85 32.9 -39.85 35.2 -39.85 36.85 -38.15 38.5 -36.55 38.5 -34.2 38.5 -31.9 36.95 -30.3 35.45 -28.75 35.2 -26.65 34.95 -24.5 36 -22.65 L36.6 -21.55 Q37.65 -19.45 39.8 -18.5 L44.15 -18.25 45.75 -18.5 Q48.1 -18.5 49.75 -16.85 51.4 -15.2 51.4 -12.85 51.4 -11.8 51.05 -10.9 50.25 -8.85 50.95 -6.7 51.65 -4.6 53.5 -3.4 54.65 -2.65 55.3 -1.4 56 -0.15 56 1.3 56 3.65 54.35 5.25 52.7 6.95 50.4 6.95 L49.65 6.85 47.15 7 Q45.9 7.35 44.85 8.15 43.85 8.95 43.2 10.05 42.6 11.15 42.45 12.45 42.2 14.55 40.6 16 39 17.45 36.85 17.45 L36.5 17.4 33.75 17.8 Q32.4 18.25 31.4 19.25 30.4 20.3 29.9 21.6 29.45 22.95 29.6 24.35 L29.6 24.85 Q29.6 27.15 27.95 28.85 26.3 30.45 23.95 30.45 21.95 30.45 20.45 29.2 18.9 28 18.45 26.05 18.2 24.75 17.35 23.65 16.55 22.55 15.35 21.85 14.2 21.2 12.8 21.1 L10.15 21.4 Q7.7 22.3 4.9 22.3 L4.8 22.3 Q2.55 22.25 0.8 23.6 -1 24.95 -1.55 27.1 -2.1 29.25 -1.2 31.3 -0.25 33.3 1.7 34.3 3.1 35.05 3.9 36.35 4.75 37.75 4.75 39.35 4.75 41.65 3.15 43.3 1.45 44.95 -0.85 44.95 -3.1 44.95 -4.7 43.45 -6.3 41.95 -6.45 39.75 -6.6 37.55 -8.15 35.9 -9.6 34.25 -11.8 33.9 -14 33.55 -15.95 34.65 -17.9 35.7 -18.7 37.8 -19.35 39.35 -20.75 40.35 -22.2 41.3 -23.95 41.3 -26.25 41.3 -27.9 39.65 -29.55 38 -29.55 35.65 L-29.5 34.8 Q-29.2 33.1 -29.8 31.5 -30.4 29.9 -31.7 28.85 -33.5 27.35 -34.8 25.45 -35.7 24.1 -37.15 23.35 -38.6 22.6 -40.25 22.7 -41.85 22.75 -43.3 23.55 -44.7 24.4 -45.5 25.8 -46.25 27.05 -47.5 27.8 -48.8 28.55 -50.35 28.55 -52.7 28.55 -54.35 26.9 -56 25.3 -56 22.95 -56 20.6 -54.35 19 -52.7 17.3 -50.35 17.3 -48.75 17.3 -47.4 16.55 -46 15.85 -45.1 14.5 -44.2 13.25 -44.05 11.65 -43.85 10.1 -44.45 8.6 L-44.6 8.2 Q-45.2 6.4 -46.7 5.2 -48.25 4.05 -50.15 3.9 -52.35 3.7 -53.85 2.1 -55.35 0.5 -55.35 -1.75 -55.35 -4.05 -53.7 -5.7 -52.05 -7.35 -49.7 -7.35 -47.85 -7.35 -46.35 -6.25 -44.9 -5.15 -44.35 -3.45 -43.75 -1.6 -42.25 -0.4 -40.7 0.8 -38.8 0.95 L-38.3 1 Q-36.45 1.3 -34.75 0.55 -33.1 -0.15 -32.05 -1.65 -31 -3.15 -30.9 -5 -30.8 -6.85 -31.75 -8.4 -33.85 -12.2 -33.85 -16.5 L-33.75 -18.35 Q-33.55 -19.9 -34.1 -21.35 -34.6 -22.8 -35.75 -23.8 -36.9 -24.85 -38.4 -25.25 L-41.4 -25.35 -42.55 -25.2 Q-44.9 -25.2 -46.5 -26.85 -48.2 -28.5 -48.2 -30.85 -48.2 -33.15 -46.5 -34.8 -44.9 -36.45 -42.55 -36.45 -40.65 -36.45 -39.1 -35.3 -38.05 -34.45 -36.7 -34.15 L-34.05 -34.05 Q-32.7 -34.3 -31.55 -35.1 -30.45 -35.9 -29.75 -37.05 -29 -38.35 -27.7 -39.05 -26.4 -39.85 -24.9 -39.85 L-23.4 -39.6"/>
  </g>
</svg>