<svg xmlns="http://www.w3.org/2000/svg" xmlns:xlink="http://www.w3.org/1999/xlink">
  <defs/>
  <g>
    <path stroke="none" fill="#FFFFFF" d="M-17.4 -34.85 Q-16.4 -34.4 -15.35 -34.4 -14.3 -34.4 -13.35 -34.9 -12.4 -35.4 -11.8 -36.25 -11.15 -37.1 -10.95 -38.15 -10.35 -41.65 -8.85 -43.95 -7.25 -46.5 -4.75 -47.2 -1.7 -48.1 1.9 -45.75 6.05 -43.05 8.9 -37.35 9.45 -36.3 10.45 -35.65 11.45 -35 12.65 -34.9 13.85 -34.8 14.95 -35.35 16 -35.9 16.7 -36.9 17.65 -38.4 19.2 -39.2 20.8 -40.1 22.65 -40.1 25.15 -40.1 27.15 -38.5 29.1 -36.95 29.6 -34.5 29.9 -33.05 31.05 -32.05 32.15 -31.05 33.65 -30.95 37.1 -30.7 38.9 -28.6 41.05 -26.2 40.4 -21.8 40.2 -20.85 40.5 -19.85 40.75 -18.9 41.4 -18.15 42.85 -16.55 44.9 -16.65 48.1 -16.7 50.2 -15.6 51.8 -14.7 52.15 -13.55 52.75 -11.85 50.95 -9.5 48.5 -6.3 43.95 -4.65 42.9 -4.25 42.1 -3.4 41.35 -2.6 41.1 -1.45 40.85 -0.35 41.15 0.75 41.45 1.85 42.25 2.7 44.2 4.75 45.05 6.9 46 9.2 45.45 11.3 45.05 12.9 45.75 14.4 46.5 15.9 48 16.55 49.9 17.4 51.1 19.15 52.3 20.95 52.3 23.1 52.3 26.05 50.2 28.15 48.1 30.25 45.15 30.25 42.25 30.25 40.15 28.2 38.05 26.1 38 23.2 L38.05 22.75 Q38.1 20.8 36.75 19.35 35.25 17.9 33.3 18.05 L29.55 17.95 27.4 18.3 Q26.4 18.7 25.7 19.6 24.95 20.45 24.75 21.55 24.5 22.65 24.8 23.65 25.9 27.45 25.5 30.4 25.1 33.7 22.95 35.4 19.95 37.8 14.75 36.3 12.65 35.75 10.9 36.95 9.2 38.15 9 40.25 8.75 43.5 7.35 45.6 6.35 47.15 5.05 47.4 3.6 47.7 1.85 46.3 -0.55 44.45 -1.95 40.9 -2.35 39.85 -3.2 39.15 -4.05 38.4 -5.15 38.2 -6.2 37.95 -7.25 38.2 -8.35 38.5 -9.15 39.25 -12.25 42.05 -15.2 43.1 L-21.05 42.95 Q-23.75 41.65 -24.85 38.25 -25.9 35.1 -25.5 30.8 -25.3 28.8 -26.65 27.3 -28 25.85 -30.05 25.85 -32.95 25.9 -35.2 25.05 L-37.75 24.8 Q-39.1 25.1 -40.05 26.05 -42.15 28.2 -45.15 28.2 -48.1 28.2 -50.2 26.1 -52.3 24 -52.3 21.05 -52.3 18.1 -50.2 16 -48.1 13.9 -45.15 13.9 L-42.95 14.3 -39.95 14.2 Q-38.4 13.65 -37.6 12.25 -35.05 7.65 -30.2 4.2 -29.25 3.5 -28.75 2.5 -28.3 1.4 -28.35 0.25 -28.4 -0.9 -29.05 -1.85 -29.65 -2.85 -30.7 -3.4 -33.35 -4.85 -34.8 -6.65 -36.45 -8.65 -36.55 -10.9 -36.65 -13.95 -34 -16.6 -31.65 -19 -27.45 -20.6 -25.4 -21.45 -24.75 -23.55 -24.45 -24.55 -24.65 -25.6 -24.85 -26.65 -25.45 -27.45 -27.25 -29.9 -27.6 -32.25 -27.85 -34 -27.1 -35 -26.25 -36.15 -23.95 -36.35 -20.95 -36.6 -17.4 -34.85"/>
  </g>
</svg>