<svg xmlns="http://www.w3.org/2000/svg" xmlns:xlink="http://www.w3.org/1999/xlink">
  <defs/>
  <g>
    <path stroke="none" fill="#FFFFFF" d="M-28.55 -24.6 Q-26.85 -25.55 -26.2 -27.35 -25.55 -29.15 -26.2 -30.95 -27.45 -34.55 -26.15 -38.2 -24.85 -41.8 -21.45 -43.8 -18.35 -45.55 -14.8 -45.1 -11.3 -44.7 -8.75 -42.2 -7.85 -41.25 -6.5 -40.9 L-3.9 -40.8 Q-2.65 -41.15 -1.65 -41.95 -0.6 -42.85 -0.05 -44.1 L1.2 -47.15 Q3.55 -52.85 9.35 -55.15 15.1 -57.55 20.8 -55.1 26.45 -52.75 28.85 -46.9 31.15 -41.2 28.8 -35.5 25.9 -28.9 21.9 -23.75 20.75 -22.2 20.8 -20.35 20.75 -18.5 22 -17 23.1 -15.6 24.95 -15.15 26.8 -14.75 28.5 -15.55 32.55 -17.6 37.55 -19.55 42.1 -21.4 46.65 -19.5 51.15 -17.5 53 -13 54.15 -10.15 53.75 -7.2 53.5 -4.25 51.8 -1.8 50.6 0 50.9 2.15 51.25 4.25 53 5.55 54.7 6.8 55.85 8.7 58.05 12.55 56.9 16.85 55.75 21.1 51.9 23.3 49.05 25 45.8 24.65 42.6 24.4 40 22.5 39.1 21.75 38 21.5 L35.65 21.4 Q34.55 21.65 33.65 22.3 32.7 23.05 32.1 24.1 30.8 26.2 28.45 27.3 26 28.35 23.45 27.8 15.5 25.95 9.85 20.85 8.35 19.45 6.35 19.45 4.3 19.45 2.7 20.8 1.2 22.15 0.9 24.2 0.7 26.15 1.85 27.85 4.3 31.4 6.55 35.4 8.2 38.2 7.35 41.35 6.5 44.6 3.7 46.15 0.8 47.8 -2.3 46.95 -5.55 46.1 -7.15 43.3 -9.9 38.5 -10.8 33.65 -11.2 31.75 -12.5 30.6 -13.85 29.4 -15.6 29.2 -17.4 29.05 -18.9 30 -20.45 30.95 -21.05 32.6 -24.2 40.6 -28.35 48.7 -30.95 53.85 -36.5 55.65 -42 57.4 -47.15 54.75 -52.25 52.1 -53.95 46.65 -55.8 41.2 -53.1 36.05 L-51.8 33.65 Q-50.8 31.8 -51.2 29.85 -51.6 27.85 -53.2 26.7 -54.8 25.4 -55.9 23.5 -57.8 20.2 -57.15 16.35 -56.5 12.65 -53.55 10.15 -52.05 8.8 -51.8 6.8 -51.5 4.75 -52.65 3.05 -54 1.05 -54 -1.45 -53.95 -4.7 -51.6 -7.05 -49.2 -9.35 -45.95 -9.25 -41.8 -9.15 -38.4 -8.25 -37 -7.85 -35.5 -8.25 -34.05 -8.7 -33.05 -9.7 -32.1 -10.85 -31.75 -12.3 -31.45 -13.8 -32 -15.2 -32.75 -17.5 -32.05 -19.9 -31.35 -22.4 -29.45 -23.95 L-28.55 -24.6"/>
  </g>
</svg>