<svg xmlns="http://www.w3.org/2000/svg" xmlns:xlink="http://www.w3.org/1999/xlink">
  <defs/>
  <g>
    <path stroke="none" fill="#FFFFFF" d="M15.7 -13.4 L15.9 -13.3 19.35 -13.2 Q21.1 -13.8 22.1 -15.3 28.5 -25.3 39.25 -29.5 L45.55 -29.35 Q48.7 -28 49.9 -24.8 51.15 -21.65 49.75 -18.55 48.4 -15.4 45.25 -14.2 L29.45 -8.1 Q27.85 -7.45 26.95 -6.05 26.05 -4.6 26.15 -2.95 L26.15 -1.7 Q25.95 0.05 26.9 1.55 27.8 3.05 29.45 3.7 36.9 6.45 42.5 12.35 44.9 14.8 44.8 18.2 44.7 21.6 42.25 23.95 39.8 26.3 36.4 26.2 33 26.15 30.65 23.7 L26.35 19.15 Q25.35 18.1 23.95 17.75 L21.1 17.8 Q19.7 18.25 18.75 19.35 17.8 20.45 17.55 21.9 17.2 24.15 15.7 25.8 14.2 27.5 12 28.1 L11.85 28.1 Q10.65 28.4 9.7 29.15 8.8 29.95 8.3 31.05 7.8 32.15 7.85 33.35 7.9 34.6 8.5 35.65 11.85 41.6 12.7 48.65 13.1 52.05 11 54.7 8.9 57.4 5.5 57.8 2.15 58.2 -0.55 56.1 -3.2 54 -3.6 50.6 L-6.5 25.45 Q-6.8 23.1 -8.7 21.8 -10.6 20.45 -12.9 21 -14.85 21.55 -16.6 20.45 L-17.25 19.9 Q-18.2 19.05 -19.45 18.7 L-21.9 18.65 Q-23.2 18.95 -24.15 19.75 -25.1 20.6 -25.6 21.8 -29.25 31.15 -37.3 37.25 -40.05 39.25 -43.4 38.8 -46.8 38.3 -48.85 35.6 -50.85 32.9 -50.4 29.5 -49.9 26.15 -47.2 24.1 L-38.75 17.75 Q-37.55 16.85 -37 15.55 -36.5 14.15 -36.75 12.75 -37 11.3 -37.95 10.2 -38.95 9.15 -40.35 8.7 -41.6 8.35 -42.5 7.4 -43.4 6.4 -43.7 5.05 -44.05 3.1 -42.95 1.45 -41.85 -0.2 -39.9 -0.6 L-34.8 -1.65 Q-33.05 -2 -31.9 -3.3 -30.75 -4.65 -30.7 -6.35 -30.55 -8.1 -31.55 -9.55 -32.55 -11 -34.2 -11.55 -41.3 -13.9 -46.95 -19.15 -49.45 -21.45 -49.6 -24.85 -49.75 -28.25 -47.45 -30.75 -45.25 -33.1 -42.05 -33.35 -40.7 -33.45 -39.6 -34.2 -38.45 -34.95 -37.85 -36.15 -37.25 -37.35 -37.3 -38.7 -37.35 -40.05 -38.1 -41.2 -39.6 -43.55 -40.8 -46.5 -42.1 -49.65 -40.8 -52.8 -39.5 -55.95 -36.35 -57.2 -33.2 -58.5 -30.05 -57.2 -26.9 -55.9 -25.65 -52.75 L-22.95 -46.3 Q-22.1 -44.1 -19.8 -43.35 L-17.6 -43.1 Q-16.5 -43.25 -15.55 -43.85 -13.35 -45.15 -10.85 -45 -8.4 -44.85 -6.45 -43.4 -4.55 -42.05 -3.65 -39.8 -3.1 -38.45 -1.9 -37.55 -0.7 -36.65 0.8 -36.6 2.3 -36.5 3.6 -37.2 4.9 -37.95 5.6 -39.25 L7.3 -42.05 Q9.2 -44.9 12.55 -45.6 15.9 -46.25 18.7 -44.35 21.5 -42.45 22.2 -39.15 22.85 -35.8 21 -33 L13.1 -21.1 Q12.3 -19.95 12.2 -18.5 12.15 -17.1 12.8 -15.85 13.75 -14.05 15.7 -13.4"/>
  </g>
</svg>