<svg xmlns="http://www.w3.org/2000/svg" xmlns:xlink="http://www.w3.org/1999/xlink">
  <defs/>
  <g>
    <path stroke="none" fill="#FFFFFF" d="M-32.55 -34.5 Q-30.8 -33.5 -28.8 -33.85 -26.75 -34.25 -25.5 -35.8 -24.2 -37.4 -24.25 -39.4 -24.25 -41.45 -25.6 -43 L-32.85 -51.35 Q-34 -52.7 -33.9 -54.45 -33.75 -56.25 -32.4 -57.4 -31.1 -58.55 -29.3 -58.45 -27.55 -58.3 -26.35 -56.95 -16.85 -46.05 -11.95 -35.85 -11 -33.95 -9.1 -33.15 L-5.15 -33 Q-3.15 -33.65 -2.1 -35.45 -1 -37.25 -1.4 -39.35 L-2.95 -47.2 Q-3.2 -48.5 -2.45 -49.65 -1.7 -50.75 -0.35 -51.05 1 -51.25 2.1 -50.5 3.25 -49.75 3.5 -48.4 4.8 -41.8 5.2 -36.2 5.35 -34.3 6.55 -32.85 7.85 -31.45 9.7 -31.1 11.55 -30.75 13.25 -31.55 14.95 -32.45 15.75 -34.15 L18.05 -38.8 Q18.65 -40 19.95 -40.45 L22.45 -40.3 Q23.65 -39.7 24.1 -38.4 24.55 -37.15 23.95 -35.9 L21.5 -31.2 Q20.6 -29.6 20.9 -27.75 21.15 -25.9 22.45 -24.6 23.75 -23.3 25.6 -23.05 27.4 -22.75 29.05 -23.65 L44.6 -31.95 47.1 -32.2 Q48.4 -31.8 49.05 -30.6 49.7 -29.4 49.3 -28.1 48.9 -26.8 47.7 -26.15 40.05 -22 33.05 -19.7 31.75 -19.2 30.8 -18.2 29.85 -17.2 29.5 -15.85 29.1 -14.55 29.4 -13.15 29.7 -11.85 30.6 -10.75 31.2 -10.05 31.15 -9.15 L30.9 -8.3 Q30.3 -7.05 30.3 -5.65 30.35 -4.25 31.05 -3.05 31.75 -1.8 32.9 -1.1 34.1 -0.3 35.5 -0.2 L53 1.05 Q53.95 1.1 54.55 1.8 55.2 2.55 55.1 3.45 55.05 4.45 54.35 5.05 53.65 5.65 52.65 5.6 L42.3 4.3 39.15 4.55 Q37.65 5.15 36.7 6.5 35.75 7.8 35.65 9.4 35.55 11.05 36.35 12.45 37 13.6 37 14.9 37.05 16.25 36.45 17.5 35.45 19.5 33.35 20.2 31.2 20.9 29.2 19.9 22 16.25 16.35 12.6 15.05 11.75 13.6 11.7 12.15 11.6 10.8 12.3 9.5 12.9 8.65 14.15 7.85 15.4 7.7 16.85 L5 53.45 Q4.85 55.65 3.2 57.15 1.5 58.6 -0.75 58.45 -3 58.3 -4.45 56.6 -5.9 54.9 -5.75 52.65 -4.7 38.35 -1.3 27.3 -0.65 25.25 -1.5 23.35 -2.4 21.4 -4.3 20.55 -6.25 19.65 -8.25 20.3 -10.3 20.95 -11.4 22.75 L-15.7 29.95 Q-16.3 31 -17.5 31.4 L-19.8 31.25 Q-22 30.3 -24.25 31.25 -26.5 32.2 -27.3 34.45 L-31.95 47.25 Q-32.4 48.55 -33.65 49.1 L-36.15 49.2 Q-37.45 48.75 -38 47.5 -38.55 46.3 -38.1 45 -33.7 32.9 -28 24.8 -27 23.3 -27 21.55 -27.05 19.75 -28.1 18.3 -29.1 16.85 -30.85 16.3 -32.5 15.7 -34.25 16.25 L-36.9 16.35 Q-38.3 16.1 -39.4 15.15 -41.05 13.7 -41.2 11.45 -41.35 9.2 -39.9 7.5 L-36.35 3.65 Q-35.2 2.4 -34.9 0.75 -34.65 -0.95 -35.35 -2.5 -36.05 -4 -37.45 -4.95 -38.95 -5.8 -40.65 -5.75 L-52.7 -5.3 Q-53.65 -5.25 -54.35 -5.9 -55.05 -6.55 -55.1 -7.5 -55.1 -8.45 -54.5 -9.1 -53.85 -9.8 -52.9 -9.85 L-45.75 -9.85 Q-44.45 -9.8 -43.25 -10.35 -42.05 -10.85 -41.25 -11.85 -40.4 -12.85 -40.1 -14.1 -39.75 -15.4 -40.05 -16.65 L-40.05 -17.55 Q-39.9 -18.45 -39.1 -19 -38.35 -19.55 -37.45 -19.35 L-37 -19.3 Q-34.95 -18.9 -33.15 -19.9 -31.35 -20.9 -30.6 -22.85 -29.95 -24.8 -30.65 -26.75 -31.4 -28.7 -33.2 -29.65 L-35.6 -30.95 Q-36.4 -31.45 -36.7 -32.35 -36.95 -33.2 -36.5 -34.05 -36.05 -34.9 -35.15 -35.15 L-33.45 -35 -32.55 -34.5"/>
  </g>
</svg>