<svg xmlns="http://www.w3.org/2000/svg" xmlns:xlink="http://www.w3.org/1999/xlink">
  <defs/>
  <g>
    <path stroke="none" fill="#FFFFFF" d="M-32.05 -18.85 L-28.05 -19.05 Q-26.05 -19.9 -25.2 -21.85 -24.3 -23.8 -25 -25.8 -25.65 -27.9 -27.5 -28.95 -34.7 -33 -39.4 -37.7 -41.3 -39.6 -41.35 -42.35 -41.4 -45.05 -39.45 -46.95 -37.55 -48.9 -34.8 -48.95 -32.15 -48.95 -30.2 -47.05 -26.1 -43.1 -22.45 -37.15 -21.55 -35.8 -20.05 -35.1 -18.55 -34.4 -16.95 -34.6 -15.3 -34.85 -14.05 -35.9 -12.8 -37 -12.4 -38.55 -12.1 -39.65 -11.25 -40.4 -10.45 -41.2 -9.35 -41.5 -7.65 -41.95 -6.15 -41.1 -4.6 -40.2 -4.15 -38.5 L-3.45 -34.4 Q-3.2 -32.35 -1.65 -30.95 -0.1 -29.55 2.05 -29.55 4.1 -29.55 5.7 -30.85 7.25 -32.25 7.55 -34.3 L7.8 -35.85 Q8.1 -37.3 9.4 -38.1 10.6 -38.95 12.1 -38.65 13.55 -38.35 14.4 -37.1 15.25 -35.85 14.95 -34.35 14.2 -30.8 12.4 -26.55 11.5 -24.55 12.2 -22.5 12.9 -20.4 14.8 -19.45 16.7 -18.4 18.85 -18.9 20.95 -19.4 22.1 -21.25 39.1 -47.1 43.9 -51.95 46.3 -54.3 49.65 -54.25 53.05 -54.25 55.45 -51.9 57.8 -49.55 57.8 -46.15 57.75 -42.8 55.4 -40.45 51.35 -36.35 32.15 -23.55 30.8 -22.65 30.2 -21.15 29.55 -19.7 29.8 -18.05 30.05 -16.45 31.1 -15.25 32.2 -14 33.75 -13.6 34.75 -13.3 35.45 -12.5 36.15 -11.75 36.3 -10.7 36.55 -9.25 35.7 -8 34.85 -6.8 33.35 -6.5 L24.8 -6.15 Q23.2 -6.25 21.75 -5.35 20.3 -4.55 19.6 -3.1 18.95 -1.9 18 -1.15 16.5 -0.1 16 1.6 15.45 3.35 16.05 5.05 L16.3 6.15 Q16.45 8.15 17.85 9.6 19.25 11 21.25 11.2 34.75 12.55 44.2 16.9 47.2 18.3 48.35 21.45 49.45 24.5 48.05 27.5 46.7 30.5 43.55 31.65 40.5 32.75 37.45 31.35 31.25 28.45 24.9 23.35 23.45 22.2 21.65 22.15 19.75 22.05 18.25 23.15 16.7 24.2 16.1 26 15.6 27.8 16.15 29.5 L16.45 30.35 Q17.05 32.6 15.85 34.6 14.75 36.65 12.45 37.25 10.25 37.85 8.2 36.7 6.2 35.5 5.6 33.25 L5.25 31.55 Q4.95 30 3.9 28.8 2.85 27.6 1.3 27.15 L-1.7 27.1 Q-3.25 27.55 -4.35 28.65 -5.15 29.6 -6.4 29.75 -7.65 30 -8.7 29.35 -9.85 28.75 -11.05 28.65 -12.3 28.5 -13.45 29 -14.65 29.45 -15.5 30.35 -16.4 31.25 -16.75 32.5 -21.4 46.6 -23.35 50.25 -24.85 53.05 -27.95 53.95 -31 54.85 -33.85 53.35 -36.6 51.8 -37.55 48.7 -38.45 45.7 -36.9 42.9 -33.75 37.05 -14.3 14.05 -13.45 13.05 -13.15 11.85 -12.8 10.6 -13.1 9.35 -13.3 8.15 -14.05 7.1 -14.85 6.1 -15.95 5.55 L-16.5 5.15 Q-18.1 4.05 -19.95 4.15 -21.85 4.2 -23.3 5.45 -36.35 16.4 -48.25 20.1 -51.15 20.95 -53.85 19.55 -56.5 18.1 -57.4 15.25 -58.3 12.3 -56.9 9.65 -55.5 6.95 -52.55 6.05 -48.3 4.75 -43.4 4.15 -41.7 3.95 -40.4 2.8 -39.1 1.65 -38.7 0 -38.3 -1.7 -38.9 -3.3 -39.55 -4.95 -41 -5.95 -42.95 -7.3 -43.85 -9.55 -44.7 -11.9 -44.05 -14.35 -43.2 -17.4 -40.45 -18.95 -37.65 -20.5 -34.6 -19.65 L-32.05 -18.85"/>
  </g>
</svg>