<svg xmlns="http://www.w3.org/2000/svg" xmlns:xlink="http://www.w3.org/1999/xlink">
  <defs/>
  <g>
    <path stroke="none" fill="#FFFFFF" d="M-42.5 -25.6 Q-40.45 -25.8 -39.05 -27.3 -37.7 -28.85 -37.75 -30.9 L-37.8 -31.8 Q-37.75 -39.15 -32.55 -44.35 -27.35 -49.55 -20 -49.55 -13.1 -49.55 -8.05 -44.95 -3 -40.35 -2.3 -33.65 -2.05 -31.3 -0.1 -29.95 L0.05 -29.85 0.5 -29.45 Q2.35 -27.95 4.65 -28.35 7 -28.75 8.25 -30.75 9.7 -33.15 12.15 -34.6 14.7 -36 17.65 -36 19.95 -36 22.1 -35.05 24.15 -34.15 25.7 -32.5 26.65 -31.45 28 -31.05 L30.7 -30.95 34.7 -31.4 Q42.05 -31.4 47.25 -26.2 52.5 -21 52.5 -13.6 52.5 -9.4 50.65 -5.7 48.85 -2.05 45.65 0.45 44.3 1.5 43.85 3.15 43.35 4.8 44 6.4 44.7 8.2 44.7 10.25 44.7 14.2 42.25 17.25 39.75 20.25 36 21.05 34.05 21.45 32.9 23.1 31.75 24.75 31.95 26.7 L32.05 27.9 Q32.05 32.45 28.8 35.7 25.55 38.9 21 38.9 16.45 38.9 13.2 35.7 10 32.5 9.95 27.95 9.95 25.65 8.25 24.15 6.55 22.6 4.2 22.85 L0 22.5 -3.25 22.7 Q-4.85 23.4 -5.75 24.85 -6.65 26.35 -6.45 28.05 -6.3 29.8 -5.1 31.05 -2.15 34.2 -2.15 38.5 -2.15 43.05 -5.4 46.3 -8.65 49.55 -13.2 49.55 -17.75 49.55 -21 46.3 -24.25 43.05 -24.25 38.5 L-24.2 37.7 Q-24.05 36.3 -24.7 35 -25.35 33.7 -26.55 32.9 -27.75 32.15 -29.15 32.1 -30.6 32 -31.85 32.7 -34.3 34 -37.05 34 -41.6 34 -44.85 30.75 -48.1 27.5 -48.1 22.95 -48.1 18.4 -44.85 15.15 -41.6 11.9 -37.05 11.9 L-34.9 12.15 Q-32.9 12.55 -31.1 11.45 -29.35 10.35 -28.85 8.35 L-28.55 7.4 Q-27.85 5.7 -28.4 3.9 -29 2.1 -30.6 1.1 -32.3 0.05 -33.5 -1.75 -34.4 -3.1 -35.95 -3.65 L-39.05 -3.85 -41.45 -3.6 Q-46.05 -3.6 -49.25 -6.85 -52.5 -10.05 -52.5 -14.65 -52.5 -18.9 -49.6 -22.05 -46.7 -25.2 -42.5 -25.6"/>
  </g>
</svg>