<svg xmlns="http://www.w3.org/2000/svg" xmlns:xlink="http://www.w3.org/1999/xlink">
  <defs/>
  <g>
    <path stroke="none" fill="#FFFFFF" d="M-21.2 -37.8 Q-20.2 -37.55 -19.15 -37.8 -18.15 -38 -17.3 -38.6 L-15.95 -40.15 Q-15.45 -41.05 -15.35 -42.1 -14.85 -47.75 -10.65 -51.65 -6.4 -55.55 -0.6 -55.55 5.5 -55.55 9.85 -51.2 14.2 -46.85 14.2 -40.7 14.2 -36.8 12.2 -33.35 11.65 -32.45 11.55 -31.35 11.45 -30.3 11.85 -29.3 12.2 -28.3 12.95 -27.55 13.7 -26.75 14.65 -26.4 17.65 -25.25 19.9 -23 22.15 -20.75 23.3 -17.8 23.65 -16.65 24.6 -15.9 25.45 -15.1 26.6 -14.8 L28.95 -14.75 Q30.05 -15.05 31 -15.85 32.95 -17.55 35.4 -18.5 37.9 -19.45 40.65 -19.45 46.75 -19.45 51.1 -15.1 55.45 -10.8 55.45 -4.65 55.45 1.45 51.1 5.8 46.75 10.15 40.65 10.15 L38.15 9.95 Q36.3 9.6 34.75 10.6 33.15 11.6 32.65 13.45 31.75 16.85 29.35 19.5 26.95 22.1 23.65 23.35 22.55 23.8 21.75 24.7 20.95 25.55 20.65 26.7 20.35 27.9 20.65 29 20.9 30.2 21.7 31.1 23.4 33.05 24.35 35.5 25.3 38.05 25.3 40.75 25.3 46.9 20.95 51.2 16.65 55.55 10.5 55.55 4.35 55.55 0.05 51.2 -4.3 46.9 -4.3 40.75 -4.3 37.65 -3.05 34.85 -2.6 33.75 -2.65 32.55 -2.75 31.35 -3.4 30.3 -4.05 29.3 -5.1 28.7 -6.15 28.1 -7.35 28.05 L-11.15 27.6 Q-13.25 27.15 -15 28.35 -16.7 29.6 -17 31.7 -17.7 37.2 -21.85 40.9 -26.05 44.6 -31.7 44.6 -37.8 44.6 -42.15 40.25 -46.45 35.95 -46.45 29.8 -46.45 26.75 -45.3 24 -44.15 21.35 -42.05 19.3 -41.15 18.35 -40.8 17.1 -40.45 15.85 -40.8 14.55 -41.15 13.25 -42.05 12.35 -43 11.45 -44.3 11.15 -49.15 9.9 -52.25 5.95 -55.45 1.9 -55.45 -3.2 -55.45 -8.65 -51.9 -12.8 -48.4 -16.9 -43.15 -17.8 -41.35 -18.1 -40.2 -19.5 -39.05 -20.9 -39.1 -22.7 L-39.1 -23.4 Q-39.05 -29.5 -34.75 -33.8 -30.45 -38.15 -24.3 -38.15 L-21.2 -37.8"/>
  </g>
</svg>