<svg xmlns="http://www.w3.org/2000/svg" xmlns:xlink="http://www.w3.org/1999/xlink">
  <defs/>
  <g>
    <path stroke="none" fill="#FFFFFF" d="M-29.2 -28.2 Q-28.2 -26.45 -26.3 -25.75 L-22.55 -25.6 Q-20.6 -26.2 -19.45 -27.85 -18.35 -29.5 -18.5 -31.5 L-18.55 -32.7 Q-18.55 -41.1 -12.55 -47.05 -6.65 -53 1.8 -53 10.2 -53 16.15 -47.05 22.15 -41.1 22.15 -32.7 22.15 -29.55 21.2 -26.6 20.8 -25.35 21 -24.05 21.2 -22.75 21.95 -21.65 22.7 -20.55 23.85 -19.95 25 -19.25 26.3 -19.15 33.15 -18.65 38.65 -14.55 44.05 -10.5 46.5 -4.25 47.1 -2.7 48.35 -1.75 49.7 -0.75 51.3 -0.6 53.8 -0.35 55.45 1.45 57.15 3.35 57.15 5.85 57.15 8.5 55.3 10.4 53.4 12.25 50.75 12.3 L50.6 12.3 Q48.95 12.25 47.5 13.1 46.1 13.9 45.35 15.35 43.35 19.1 40.2 21.9 37 24.75 33.05 26.3 31.4 26.9 30.4 28.4 29.35 29.8 29.35 31.6 29.35 40.45 23.05 46.7 16.75 53 7.9 53 -0.95 53 -7.25 46.7 -13.55 40.45 -13.55 31.6 L-13.55 31.05 Q-13.5 29.05 -14.7 27.45 -15.9 25.85 -17.85 25.35 -19.8 24.85 -21.65 25.65 -23.5 26.5 -24.4 28.3 -26.55 32.4 -30.4 34.85 -34.45 37.35 -39.2 37.35 -46.05 37.35 -50.9 32.5 -55.8 27.6 -55.8 20.75 L-55.65 18.45 Q-55.45 17.2 -55.8 15.95 -56.2 14.7 -57.05 13.8 -58.65 11.95 -58.65 9.5 -58.65 6.85 -56.75 4.95 -54.9 3.05 -52.2 3.05 -50.25 3.05 -48.7 4.1 -47.65 4.8 -46.4 5 L-43.9 4.8 -40.95 4.2 Q-38.65 4 -37.15 2.2 -35.65 0.4 -35.8 -1.95 L-35.9 -3.2 Q-35.95 -5.45 -37.5 -7.05 -39.05 -8.65 -41.25 -8.8 -46.25 -9.2 -49.7 -12.85 -53.2 -16.55 -53.2 -21.65 -53.2 -27 -49.4 -30.75 -45.6 -34.55 -40.3 -34.55 -36.8 -34.55 -33.8 -32.75 -30.9 -31.1 -29.2 -28.2 M49.85 -23.75 Q49.65 -26.1 47.75 -27.7 45.9 -29.25 43.45 -28.95 L42.65 -28.9 Q39.35 -28.9 37 -31.2 34.7 -33.55 34.7 -36.8 34.7 -40.1 37 -42.4 39.35 -44.75 42.65 -44.75 45.9 -44.75 48.25 -42.4 50.55 -40.1 50.55 -36.8 L50.4 -35.3 Q49.9 -32.95 51.3 -30.95 52.7 -28.95 55.05 -28.5 56.65 -28.25 57.65 -27 58.7 -25.8 58.7 -24.15 58.7 -22.3 57.45 -21 56.15 -19.7 54.3 -19.7 52.55 -19.7 51.3 -20.9 50 -22.05 49.85 -23.75"/>
  </g>
</svg>