<svg xmlns="http://www.w3.org/2000/svg" xmlns:xlink="http://www.w3.org/1999/xlink">
  <defs/>
  <g>
    <path stroke="none" fill="#FFFFFF" d="M-36.3 -40.8 Q-33 -42 -31.35 -45.05 -29.7 -48.15 -30.5 -51.55 L-30.55 -52.45 Q-30.55 -54.2 -29.35 -55.4 -28.1 -56.65 -26.4 -56.65 -24.65 -56.65 -23.45 -55.4 -22.2 -54.2 -22.2 -52.45 -22.2 -51.6 -22.5 -50.95 -23.75 -47.75 -22.6 -44.45 -21.45 -41.15 -18.45 -39.45 L-18.1 -39.2 Q-16.25 -37.9 -14 -37.6 -11.7 -37.25 -9.6 -38 -7.45 -38.75 -5.9 -40.45 -4.35 -42.1 -3.75 -44.25 -3.35 -45.6 -2.25 -46.45 -1.1 -47.3 0.3 -47.3 L2.1 -46.9 Q5.55 -45.2 9.15 -46.4 12.75 -47.6 14.5 -50.95 15.05 -52 16 -52.6 17 -53.2 18.2 -53.2 19.9 -53.2 21.15 -52.05 22.35 -50.85 22.4 -49.15 22.45 -46.75 23.7 -44.65 24.9 -42.55 27 -41.35 29.05 -40.15 31.5 -40.1 33.85 -40 36.05 -41.1 L37.95 -41.55 Q39.65 -41.55 40.9 -40.35 42.15 -39.1 42.15 -37.4 42.15 -36.4 41.65 -35.45 41.2 -34.6 40.4 -34 38.1 -32.3 37.15 -29.6 36.2 -26.85 37 -24.05 37.75 -21.3 39.95 -19.4 42.15 -17.55 45.05 -17.25 49 -16.85 51.7 -13.9 54.4 -10.9 54.4 -6.9 54.4 -2.6 51.4 0.45 48.35 3.5 44.05 3.55 L44 3.5 Q41.25 3.45 38.9 4.9 36.55 6.4 35.35 8.9 34.2 11.4 34.6 14.15 34.95 16.9 36.8 19 37.8 20.15 37.8 21.75 37.8 23.45 36.6 24.7 35.35 25.9 33.6 25.9 32.05 25.9 30.85 24.85 29.65 23.8 29.45 22.25 29.05 18.65 26.3 16.3 23.55 13.95 19.95 14.05 16.3 14.15 13.75 16.7 11.15 19.2 10.95 22.85 10.8 25.35 9.2 27.35 7.65 29.3 5.25 30.05 3.45 30.6 2.05 31.85 0.6 33.05 -0.25 34.7 -1.1 36.4 -1.25 38.3 -1.4 40.2 -0.8 41.95 -0.2 43.65 -0.2 45.5 -0.2 50.1 -3.45 53.4 -6.7 56.65 -11.3 56.65 -15.95 56.65 -19.2 53.4 -22.45 50.1 -22.45 45.5 -22.45 42.9 -21.3 40.6 -20.35 38.7 -20.3 36.6 -20.3 34.5 -21.15 32.55 -22 30.65 -23.6 29.3 -25.25 27.9 -27.25 27.4 -28.25 27.15 -29 26.5 -29.75 25.8 -30.1 24.85 -30.8 23.05 -32.25 21.65 -33.6 20.25 -35.45 19.55 -37.3 18.85 -39.25 18.95 -41.25 19.05 -43 19.9 L-44.85 20.35 Q-46.6 20.35 -47.8 19.15 -49.05 17.9 -49.05 16.15 -49.05 14.8 -48.2 13.7 -47.45 12.6 -46.2 12.2 -43.1 11.2 -41.35 8.45 -39.55 5.7 -39.9 2.5 L-39.9 2.2 Q-39.9 0.7 -38.95 -0.45 -38 -1.6 -36.6 -1.9 -34.05 -2.4 -32.15 -4.15 -30.3 -5.9 -29.55 -8.35 -28.85 -10.8 -29.45 -13.3 -30.05 -15.75 -31.85 -17.6 -33.4 -19.15 -34.25 -21.1 -35.1 -23.15 -35.15 -25.4 -35.15 -27.8 -36.3 -29.85 -37.45 -32 -39.5 -33.25 -41.5 -34.5 -43.9 -34.65 -46.3 -34.8 -48.45 -33.75 L-50.25 -33.4 Q-51.95 -33.4 -53.15 -34.6 -54.4 -35.85 -54.4 -37.55 -54.4 -39.3 -53.15 -40.55 -51.95 -41.75 -50.25 -41.75 -48.8 -41.75 -47.7 -40.9 -45.35 -39.1 -42.45 -39 -39.5 -38.85 -37 -40.4 L-36.3 -40.8"/>
  </g>
</svg>