<svg xmlns="http://www.w3.org/2000/svg" xmlns:xlink="http://www.w3.org/1999/xlink">
  <defs/>
  <g>
    <path stroke="none" fill="#FFFFFF" d="M-10.15 -32.55 Q-9.45 -31.4 -8.25 -30.8 -7.05 -30.2 -5.7 -30.35 -4.4 -30.45 -3.3 -31.2 -2.25 -32 -1.75 -33.25 L6.95 -54.2 Q7.75 -56.15 9.7 -57 11.65 -57.8 13.65 -57 15.6 -56.15 16.4 -54.2 17.2 -52.25 16.4 -50.3 14 -44.4 11.25 -39.3 10.5 -37.9 10.75 -36.4 10.95 -34.85 12.05 -33.75 13.15 -32.6 14.7 -32.4 16.25 -32.15 17.65 -32.85 19.45 -33.85 21.55 -33.85 25 -33.85 27.45 -31.4 29.9 -28.95 29.95 -25.5 L29.95 -25.3 Q29.9 -24.05 30.5 -22.9 31.1 -21.8 32.2 -21.1 33.25 -20.45 34.55 -20.45 35.8 -20.4 36.9 -21 L41.25 -23.3 43.35 -23.5 Q44.45 -23.15 45 -22.15 45.55 -21.15 45.25 -20 44.9 -18.9 43.9 -18.35 40.4 -16.5 36.75 -14.9 L35.1 -13.75 34.1 -12 Q33.8 -11 33.9 -10 34.05 -8.95 34.55 -8.1 35.8 -6.1 35.8 -3.75 L35.55 -1.75 Q35.25 -0.7 35.45 0.3 35.7 1.35 36.3 2.2 36.9 3.05 37.85 3.55 38.75 4.05 39.8 4.15 L48.4 4.75 Q49.2 4.8 49.7 5.45 50.25 6.05 50.15 6.85 50.1 7.65 49.5 8.15 48.9 8.7 48.1 8.65 L39.25 7.5 36.6 7.75 Q35.35 8.3 34.5 9.4 33.7 10.5 33.6 11.9 33.55 13.25 34.2 14.45 34.75 15.45 34.8 16.55 34.8 17.75 34.3 18.75 L32.95 20.35 Q32.15 21 31.1 21.2 29.85 21.45 28.9 22.3 27.95 23.15 27.55 24.4 26.75 26.95 24.55 28.55 22.35 30.15 19.6 30.15 17.7 30.15 16.05 29.4 14.6 28.7 13.1 29.05 11.55 29.35 10.45 30.55 9.45 31.7 9.3 33.3 9.15 34.85 10 36.2 L18.85 50.4 Q19.9 52.05 19.45 53.9 19 55.75 17.4 56.75 15.8 57.75 13.95 57.3 12.1 56.9 11.05 55.25 2.2 41.05 -0.4 29.2 -0.75 27.8 -1.8 26.75 -2.85 25.75 -4.3 25.55 -5.7 25.3 -7.05 25.95 -8.35 26.55 -9.1 27.8 L-10.05 29.35 Q-10.75 30.55 -12.15 30.7 -13.9 30.85 -15.1 32.1 -16.35 33.35 -16.45 35.1 L-17.3 46.7 Q-17.4 47.9 -18.25 48.65 -19.15 49.4 -20.3 49.3 -21.45 49.25 -22.2 48.35 -22.95 47.5 -22.85 46.3 -21.85 32.2 -17.5 22.95 -16.75 21.5 -17.1 19.9 -17.5 18.3 -18.75 17.3 -19.95 16.25 -21.6 16.2 -23.2 16.1 -24.55 17.05 L-25.4 17.55 Q-27 18.25 -27.8 19.8 -29.3 22.7 -32.05 24.45 -34.95 26.3 -38.35 26.3 -43.2 26.3 -46.65 22.8 -50.15 19.35 -50.15 14.45 -50.15 11.2 -48.45 8.4 -46.85 5.7 -44.1 4.15 -42.65 3.4 -42 1.9 -41.4 0.4 -41.8 -1.15 -42.15 -2.7 -43.45 -3.7 -44.7 -4.7 -46.3 -4.75 -47.05 -4.75 -47.6 -5.3 -48.15 -5.8 -48.2 -6.6 -48.2 -7.4 -47.7 -7.95 -47.15 -8.55 -46.3 -8.6 L-40.45 -8.6 Q-39.05 -8.55 -37.85 -9.3 -36.6 -10.05 -36 -11.35 -35.4 -12.6 -35.6 -14 -35.8 -15.4 -36.75 -16.5 -38.8 -18.85 -38.8 -22.05 -38.8 -25.5 -36.35 -27.95 -33.9 -30.45 -30.45 -30.45 L-27.85 -30 -24.8 -30.05 Q-23.3 -30.55 -22.4 -31.9 -21.5 -33.25 -21.6 -34.85 -21.7 -36.45 -22.8 -37.65 L-24.65 -39.8 Q-25.65 -40.95 -25.55 -42.45 -25.45 -43.95 -24.3 -44.95 -23.15 -45.95 -21.65 -45.8 -20.15 -45.7 -19.15 -44.6 -13.7 -38.35 -10.15 -32.55 M13.15 -25.75 Q13.2 -27.3 12.3 -28.6 11.45 -29.9 9.95 -30.4 L7 -30.45 Q5.5 -29.95 4.6 -28.7 1.6 -24.7 -1.7 -21.5 -3.05 -20.25 -3.15 -18.4 -3.25 -16.6 -2.15 -15.15 -1.05 -13.7 0.75 -13.4 2.55 -13.1 4.1 -14.05 5.4 -14.85 6.9 -14.85 L7.75 -14.75 Q9.3 -14.5 10.75 -15.2 12.2 -15.95 12.9 -17.35 L13.5 -18.7 Q14.45 -20.55 13.7 -22.45 13.2 -23.8 13.15 -25.4 L13.15 -25.75 M-23.4 2.7 Q-22.35 1.7 -22.05 0.25 -21.75 -1.2 -22.3 -2.55 -22.9 -3.95 -24.15 -4.7 -25.4 -5.5 -26.85 -5.45 L-31.55 -5.3 Q-33.2 -5.2 -34.45 -4.15 -35.7 -3.1 -36 -1.45 -36.35 0.15 -35.6 1.6 -34.85 3.05 -33.35 3.8 -32.3 4.25 -31.35 4.95 -29.95 6 -28.2 5.85 -26.45 5.75 -25.2 4.5 L-23.4 2.7"/>
  </g>
</svg>