<svg xmlns="http://www.w3.org/2000/svg" xmlns:xlink="http://www.w3.org/1999/xlink">
  <defs/>
  <g>
    <path stroke="none" fill="#FFFFFF" d="M-48.15 -31.15 Q-46.4 -31.3 -45 -32.3 -43.55 -33.25 -42.85 -34.85 -42.15 -36.4 -42.3 -38.1 -42.5 -39.85 -43.5 -41.2 L-44.8 -43.15 Q-45.65 -44.55 -45.25 -46.1 -44.9 -47.65 -43.5 -48.45 -42.15 -49.3 -40.6 -48.9 -39.05 -48.55 -38.2 -47.2 L-31.45 -36 Q-30.35 -34.25 -28.45 -33.45 -26.55 -32.65 -24.55 -33.15 -22.55 -33.6 -21.25 -35.2 -19.9 -36.75 -19.75 -38.8 -19.6 -40.95 -18.25 -42.65 -16.85 -44.35 -14.7 -44.95 -11.95 -45.65 -9.5 -44.25 -7.05 -42.85 -6.35 -40.1 L-4 -31.15 Q-3.6 -29.65 -2.55 -28.5 -1.5 -27.4 -0.05 -26.85 1.4 -26.3 2.95 -26.5 4.45 -26.7 5.75 -27.6 8.15 -29.3 11.05 -30.45 L14.05 -30.35 Q15.5 -29.7 16.1 -28.2 L16.15 -28.05 Q16.75 -26.1 18.4 -24.85 20.1 -23.65 22.15 -23.6 24.2 -23.6 25.85 -24.8 27.5 -26 28.15 -27.95 30.1 -33.85 34.75 -38.2 35.9 -39.3 37.5 -39.2 39.1 -39.15 40.2 -38 41.3 -36.85 41.25 -35.25 41.2 -33.65 40.05 -32.55 L34.15 -27.1 Q33.15 -26.15 32.65 -24.95 32.1 -23.7 32.15 -22.35 32.2 -21 32.75 -19.8 33.3 -18.6 34.3 -17.7 35.65 -16.55 36.45 -15.05 37.25 -13.45 37.45 -11.65 37.65 -9.35 36.75 -7.2 35.95 -5.4 36.35 -3.45 36.8 -1.45 38.2 -0.1 39.65 1.25 41.65 1.5 43.6 1.8 45.4 0.9 49.9 -1.4 55.1 -1.7 56.7 -1.8 57.9 -0.75 59.1 0.3 59.2 1.95 59.3 3.55 58.2 4.75 57.15 5.95 55.55 6 L41.5 6.8 Q39.95 6.9 38.6 7.7 37.25 8.5 36.45 9.85 35.65 11.2 35.55 12.8 35.45 14.35 36.15 15.75 37.25 18.2 36.9 20.85 36.5 23.6 34.65 25.6 32.6 27.85 29.65 28.35 26.75 28.9 24.1 27.6 22.15 26.7 20 27.15 17.85 27.6 16.5 29.3 15.1 31 15.05 33.2 15.05 35.4 16.35 37.1 L18.1 39.65 Q18.9 41.05 18.5 42.6 18.1 44.15 16.75 44.95 15.35 45.8 13.8 45.4 12.25 45 11.4 43.65 L5.15 32.95 Q4.15 31.25 2.35 30.4 0.55 29.6 -1.4 29.95 -3.35 30.3 -4.75 31.7 -6.15 33.1 -6.5 35.05 -7.2 38.95 -8.55 42.65 -9.95 46.4 -13.6 48.1 -17.3 49.8 -21.05 48.4 -23.5 47.45 -25.15 45.45 -26.75 43.45 -27.2 40.95 -27.55 39.1 -28.9 37.7 -30.25 36.3 -32.1 35.9 L-35.8 36.25 Q-37.55 36.95 -38.65 38.55 -42.25 43.85 -48 46.75 L-50.95 46.95 Q-52.45 46.45 -53.2 45.05 -53.9 43.6 -53.4 42.1 -52.9 40.55 -51.45 39.85 L-37.3 32.75 Q-35.75 32 -34.8 30.55 -33.9 29.1 -33.8 27.4 -33.75 25.65 -34.55 24.15 -35.4 22.6 -36.85 21.75 L-38.15 20.5 Q-39 19.15 -38.65 17.55 -38.3 15.95 -36.95 15.1 L-27.45 9.15 Q-25.4 7.85 -24.75 5.45 -24.1 3.05 -25.25 0.85 -26.4 -1.3 -28.75 -2.1 L-33.3 -1.95 Q-42.75 2.15 -52.8 0.6 -55.85 0.1 -57.65 -2.35 -59.5 -4.8 -59.05 -7.85 -58.7 -10.1 -57.15 -11.75 -55.6 -13.4 -53.45 -13.95 -51.8 -14.35 -50.55 -15.55 -49.35 -16.75 -48.9 -18.4 -48.4 -20.05 -48.9 -21.7 -49.35 -23.35 -50.55 -24.55 -51.55 -25.5 -51.7 -26.9 -51.85 -28.35 -51.05 -29.5 L-49.75 -30.7 -48.15 -31.15"/>
  </g>
</svg>