<svg xmlns="http://www.w3.org/2000/svg" xmlns:xlink="http://www.w3.org/1999/xlink">
  <defs/>
  <g>
    <path stroke="none" fill="#FFFFFF" d="M-24.05 -47.35 Q-21.4 -45.8 -18.5 -46.85 -15.65 -47.9 -14.55 -50.8 -13.6 -53.25 -11.5 -54.85 -9.25 -56.4 -6.55 -56.4 -3.05 -56.4 -0.6 -53.95 1.95 -51.5 1.95 -48 L1.95 -46.95 Q1.75 -44.05 3.85 -41.95 5.9 -39.9 8.85 -40 L9.4 -40.05 Q13 -39.95 15.55 -37.4 18.1 -34.8 18.1 -31.25 18.1 -29.45 17.35 -27.75 16.65 -26.15 16.85 -24.25 17.15 -22.5 18.3 -21.05 19.4 -19.6 21.15 -18.95 L24.7 -18.7 26.3 -18.85 26.55 -18.85 Q29.7 -18.65 31.8 -21.05 33.85 -23.4 33.4 -26.5 L33.3 -27.75 Q33.3 -32.1 36.4 -35.2 39.5 -38.3 43.9 -38.3 48.25 -38.3 51.35 -35.2 54.45 -32.1 54.45 -27.75 54.45 -23.4 51.4 -20.3 48.35 -17.2 44.05 -17.15 L43.75 -17.2 Q40.6 -17.3 38.5 -14.95 37.5 -13.9 37.1 -12.45 36.7 -11 36.9 -9.55 L37 -7.95 Q36.85 -5.25 38.65 -3.25 40.4 -1.2 43.1 -1.05 46.45 -0.85 48.75 1.6 51 4.1 51 7.45 51 10.2 49.4 12.4 47.85 14.55 45.35 15.5 43.9 16 42.8 17.1 41.7 18.2 41.2 19.7 40.75 21.2 41.05 22.75 41.25 24.3 42.2 25.55 43.75 27.75 43.75 30.5 43.75 34 41.3 36.5 38.8 39 35.25 39 32.55 39 30.4 37.5 28.25 36 27.3 33.55 26.4 31.1 23.8 29.9 21.2 28.85 18.75 29.85 17 30.55 14.95 30.55 10.65 30.55 7.6 27.65 6.25 26.3 4.35 25.9 2.45 25.55 0.65 26.25 -1.15 27 -2.3 28.55 -3.45 30.1 -3.5 32.05 L-3.55 32.6 -3.6 32.75 Q-3.95 35.1 -2.7 37.1 -1.55 39.15 0.7 39.95 3.15 40.85 4.7 43 6.3 45.2 6.3 47.95 6.3 51.45 3.75 53.95 1.25 56.45 -2.25 56.45 -5.7 56.45 -8.25 54.05 -10.7 51.65 -10.8 48.15 -10.85 45.9 -12.35 44.15 -13.85 42.35 -16.1 41.9 L-17.55 41.5 -21.1 41.2 Q-22.9 41.55 -24.3 42.75 -26.65 44.95 -29.9 44.95 -33.45 44.95 -35.95 42.45 -38.45 39.95 -38.45 36.4 -38.45 33.4 -36.65 31.1 -34.8 28.8 -32 28.15 -29.7 27.6 -28.3 25.75 -26.85 23.9 -26.95 21.55 -27 19.15 -28.55 17.4 -30.05 15.65 -32.4 15.25 -35.65 14.7 -37.95 12.35 -40.3 10 -40.9 6.75 -41.25 4.6 -42.9 3.1 -44.55 1.55 -46.75 1.35 -50.05 1.05 -52.25 -1.35 -54.45 -3.8 -54.45 -7.1 -54.45 -10.65 -52 -13.15 -49.45 -15.65 -45.95 -15.65 -43.4 -15.65 -41.3 -14.3 -38.95 -12.7 -36.1 -13.4 -33.25 -14.05 -31.9 -16.65 -31 -18.3 -29.4 -19.65 -28 -20.9 -27.35 -22.7 -26.8 -24.5 -27.25 -26.35 L-27.35 -26.5 -27.35 -26.95 Q-27.65 -28.65 -28.75 -30 -29.85 -31.45 -31.45 -32.05 -33.85 -33 -35.35 -35.15 -36.8 -37.3 -36.8 -39.95 -36.8 -43.45 -34.3 -46 -31.8 -48.5 -28.3 -48.5 -26.05 -48.5 -24.05 -47.35"/>
  </g>
</svg>