<svg xmlns="http://www.w3.org/2000/svg" xmlns:xlink="http://www.w3.org/1999/xlink">
  <defs/>
  <g>
    <path stroke="none" fill="#FFFFFF" d="M22.1 -17.6 L22.2 -17.6 Q24.3 -17.6 25.8 -19.1 27.3 -20.55 27.3 -22.65 27.35 -25.2 29.15 -27 30.95 -28.75 33.5 -28.75 36.05 -28.75 37.9 -26.95 39.7 -25.15 39.7 -22.55 39.7 -20.5 38.5 -18.9 37.5 -17.5 37.5 -15.85 37.5 -14.15 38.5 -12.8 39.5 -11.4 41.15 -10.95 L44.35 -11.05 46.5 -11.45 Q49.05 -11.45 50.9 -9.6 52.7 -7.8 52.7 -5.25 52.7 -2.7 50.9 -0.85 49.05 0.95 46.5 0.95 44.85 0.95 43.45 0.15 42.05 -0.65 40.45 -0.5 38.85 -0.4 37.6 0.65 36.65 1.45 35.45 1.8 34.2 2.2 33.3 3.15 32.35 4.1 32.05 5.4 31.7 6.7 32.05 7.95 32.35 9.25 33.3 10.2 L34 11.1 Q34.9 12.45 36.4 13.05 L39.5 13.2 41 13 Q43.6 13 45.4 14.85 47.2 16.65 47.2 19.2 47.2 21.8 45.4 23.6 43.6 25.45 41 25.45 39.45 25.45 38.05 24.65 36.7 23.9 35.85 22.65 34.95 21.3 33.45 20.7 L30.45 20.45 29.75 20.6 29.7 20.6 Q28.3 20.8 27.15 21.7 26.05 22.55 25.55 23.9 25.05 25.25 25.3 26.6 25.6 28 26.55 29.1 28.1 30.85 28.1 33.2 28.1 35.8 26.3 37.6 24.5 39.4 21.9 39.4 19.35 39.4 17.55 37.6 15.7 35.8 15.7 33.2 L15.9 31.8 Q16.3 30.05 15.5 28.4 14.65 26.75 13 25.95 11.65 25.35 10.7 24.2 9.7 22.95 8.1 22.5 L4.95 22.7 2.8 23.05 0.75 22.75 -2.15 22.6 Q-3.65 23 -4.65 24.1 -5.7 25.25 -5.95 26.75 -6.2 28.25 -5.55 29.65 L-5.5 29.75 -5.3 30.35 Q-4.9 31.5 -4.05 32.35 -3.2 33.15 -2.1 33.55 -0.25 34.15 0.95 35.8 2.1 37.4 2.1 39.4 2.1 42 0.3 43.8 -1.5 45.6 -4.1 45.6 -6.15 45.6 -7.8 44.4 -9.4 43.2 -10 41.3 -10.35 40.15 -11.2 39.3 -12.05 38.4 -13.2 38 -14.7 37.5 -15.75 36.4 -16.8 35.25 -17.2 33.75 -17.55 32.5 -18.4 31.6 -19.25 30.65 -20.4 30.2 L-22.85 29.95 Q-24.1 30.15 -25.1 30.85 L-25.55 31.15 Q-26.95 31.95 -27.65 33.4 -28.3 34.9 -28.05 36.45 L-27.95 37.5 Q-27.95 40.05 -29.75 41.9 -31.6 43.7 -34.15 43.7 -36.45 43.7 -38.2 42.2 -39.95 40.7 -40.3 38.45 -40.6 36.45 -42.2 35.2 -43.8 33.95 -45.85 34.15 L-46.5 34.2 Q-49.05 34.2 -50.85 32.4 -52.7 30.55 -52.7 28 -52.7 25.75 -51.2 24 -49.75 22.3 -47.55 21.9 -46.45 21.7 -45.55 21.1 -44.6 20.45 -44.05 19.5 -43.5 18.55 -43.35 17.4 -43.25 16.3 -43.6 15.25 L-43.9 13.3 -43.65 11.45 Q-43.05 9.6 -43.85 7.85 -44.65 6.05 -46.45 5.25 -48.1 4.55 -49.1 3.05 -50.15 1.5 -50.15 -0.4 -50.15 -2.95 -48.35 -4.8 -46.5 -6.6 -43.95 -6.6 L-41.6 -6.15 -38.5 -5.9 Q-36.95 -6.25 -35.85 -7.5 -34.75 -8.7 -34.6 -10.3 -34.45 -11.95 -35.25 -13.35 L-35.6 -14.15 Q-36.1 -15.4 -37.1 -16.25 -38.1 -17.1 -39.4 -17.35 -41.55 -17.8 -43 -19.5 -44.4 -21.2 -44.4 -23.45 -44.4 -26 -42.6 -27.85 -40.8 -29.65 -38.2 -29.65 -36.25 -29.65 -34.65 -28.55 -33.1 -27.45 -32.4 -25.65 -31.95 -24.45 -30.95 -23.55 -29.9 -22.7 -28.6 -22.45 L-27.45 -22.1 -25.35 -21.7 Q-24.3 -21.75 -23.3 -22.2 -22.3 -22.7 -21.6 -23.5 -20.9 -24.35 -20.6 -25.4 L-19.6 -27.4 Q-18.35 -29.05 -18.6 -31.1 -18.85 -33.2 -20.5 -34.5 -21.6 -35.35 -22.25 -36.6 -22.9 -37.9 -22.9 -39.4 -22.9 -41.95 -21.05 -43.75 -19.25 -45.6 -16.7 -45.6 -14.15 -45.6 -12.3 -43.8 -10.5 -42 -10.5 -39.45 -10.45 -37.95 -9.65 -36.7 -8.85 -35.45 -7.45 -34.8 -6.1 -34.2 -4.65 -34.45 -3.15 -34.65 -2.05 -35.65 -0.3 -37.15 2.05 -37.15 4.6 -37.15 6.45 -35.35 8.25 -33.55 8.25 -30.95 L8 -29.25 Q7.45 -27.45 8.2 -25.75 8.95 -24.05 10.6 -23.2 12.7 -22.2 13.6 -20.05 14.4 -18.15 16.25 -17.35 L20.05 -17.25 22.1 -17.6"/>
  </g>
</svg>